{
.appVersion = "1230";
DisplayStrings = (
a,
"/zero.tf/one.tf/two.tf/three.tf/four.tf/five.tf/six.tf/seven.tf/eight.tf/nine.tf \0120123456789",
n
);
classes = (
{
code = "B D E F H' I K L M N P R b h i j k l m n p r bar dotlessi Egrave Eacute Ecircumflex Edieresis Igrave Iacute Icircumflex Idieresis Ntilde igrave iacute icircumflex idieresis ntilde bracketleft";
disabled = 1;
name = .LeftVertical;
},
{
code = "one H' I M N bracketright d i j l q bar dotlessi Igrave Iacute Icircumflex Idieresis Ntilde igrave iacute icircumflex idieresis ugrave uacute ucircumflex udieresis one.prop zero nine D O Q o p Ograve Oacute Ocircumflex Otilde Odieresis ograve oacute ocircumflex otilde odieresis zero.prop nine.prop";
disabled = 1;
name = .RightVertical;
},
{
code = "zero six C G O' Q c e o q Ograve Oacute Ocircumflex Otilde Odieresis egrave eacute ecircumflex edieresis ograve oacute ocircumflex otilde odieresis zero.prop six.prop";
disabled = 1;
name = .LeftRounded;
},
{
code = "zero nine D O' Q o p Ograve Oacute Ocircumflex Otilde Odieresis ograve oacute ocircumflex otilde odieresis zero.prop nine.prop";
disabled = 1;
name = .RightRounded;
},
{
code = "h m n' ntilde";
disabled = 1;
name = .VerticalOutstroke;
},
{
code = "U u' Ugrave Uacute Ucircumflex Udieresis ugrave uacute ucircumflex udieresis";
disabled = 1;
name = .VerticalInstroke;
},
{
code = "A' Agrave Aacute Acircumflex Atilde Adieresis";
disabled = 1;
name = .Adiacritics;
},
{
code = "E' Egrave Eacute Ecircumflex Edieresis";
disabled = 1;
name = .Ediacritics;
},
{
code = "I' Igrave Iacute Icircumflex Idieresis";
disabled = 1;
name = .Idiacritics;
},
{
code = "N', Ntilde";
disabled = 1;
name = .Ndiacritics;
},
{
code = "O' Ograve Oacute Ocircumflex Otilde Odieresis";
disabled = 1;
name = .Odiacritics;
},
{
code = "U' Ugrave Uacute Ucircumflex Udieresis";
disabled = 1;
name = .Udiacritics;
},
{
code = "a' agrave aacute acircumflex atilde adieresis";
disabled = 1;
name = .adiacritics;
},
{

glyphs = (
{
glyphname = comma;
lastChange = "2019-05-13 18:40:04 +0000";
layers = (
{
layerId = "B502AB2C-259B-4691-A7E9-F302DF43C341";
paths = (
{
closed = 1;
nodes = (
"364 -202 OFFCURVE",
"450 -66 OFFCURVE",
"450 58 CURVE SMOOTH",
"450 176 OFFCURVE",
"378 270 OFFCURVE",
"260 270 CURVE SMOOTH",
"166 270 OFFCURVE",
"98 208 OFFCURVE",
"98 128 CURVE SMOOTH",
"98 52 OFFCURVE",
"158 4 OFFCURVE",
"232 -10 CURVE",
"210 -84 OFFCURVE",
"136 -140 OFFCURVE",
"48 -184 CURVE",
"222 -272 LINE"
);
}
);
width = 506;
},
{
layerId = "1A474BE3-B501-44F4-8DAE-2FAB2708ADF8";
paths = (
{
closed = 1;
nodes = (
"294 -160 OFFCURVE",
"354 -56 OFFCURVE",
"354 38 CURVE SMOOTH",
"354 124 OFFCURVE",
"298 192 OFFCURVE",
"216 192 CURVE SMOOTH",
"150 192 OFFCURVE",
"104 146 OFFCURVE",
"104 90 CURVE SMOOTH",
"104 32 OFFCURVE",
"150 -4 OFFCURVE",
"208 -10 CURVE",
"192 -78 OFFCURVE",
"136 -122 OFFCURVE",
"60 -160 CURVE",
"178 -218 LINE"
);
}
);
width = 418;
}
);
unicode = 002C;
},
{
glyphname = period;
lastChange = "2019-05-13 18:40:04 +0000";
layers = (
{
layerId = "B502AB2C-259B-4691-A7E9-F302DF43C341";
paths = (
{
closed = 1;
nodes = (
"48 48 OFFCURVE",
"116 -18 OFFCURVE",
"212 -18 CURVE SMOOTH",
"308 -18 OFFCURVE",
"380 48 OFFCURVE",
"380 140 CURVE SMOOTH",
"380 228 OFFCURVE",
"308 298 OFFCURVE",
"212 298 CURVE SMOOTH",
"116 298 OFFCURVE",
"48 228 OFFCURVE",
"48 140 CURVE SMOOTH"
);
}
);
width = 430;
},
{
layerId = "1A474BE3-B501-44F4-8DAE-2FAB2708ADF8";
paths = (
{
closed = 1;
nodes = (
"60 30 OFFCURVE",
"110 -18 OFFCURVE",
"176 -18 CURVE SMOOTH",
"244 -18 OFFCURVE",
"296 30 OFFCURVE",
"296 94 CURVE SMOOTH",
"296 156 OFFCURVE",
"244 208 OFFCURVE",
"176 208 CURVE SMOOTH",
"110 208 OFFCURVE",
"60 156 OFFCURVE",
"60 94 CURVE SMOOTH"
);
}
);
width = 357;
}
);
unicode = 002E;
},
{
glyphname = hyphen;
lastChange = "2019-05-13 18:40:04 +0000";
layers = (
{
layerId = "B502AB2C-259B-4691-A7E9-F302DF43C341";
paths = (
{
closed = 1;
nodes = (
"654 500 LINE",
"654 706 LINE",
"92 706 LINE",
"92 500 LINE"
);
}
);
width = 747;
},
{
layerId = "1A474BE3-B501-44F4-8DAE-2FAB2708ADF8";
paths = (
{
closed = 1;
nodes = (
"620 514 LINE",
"620 650 LINE",
"76 650 LINE",
"76 514 LINE"
);
}
);
width = 696;
}
);
unicode = 002D;
},
{
glyphname = endash;
lastChange = "2019-05-13 18:40:04 +0000";
layers = (
{
layerId = "B502AB2C-259B-4691-A7E9-F302DF43C341";
paths = (
{
closed = 1;
nodes = (
"940 500 LINE",
"940 706 LINE",
"110 706 LINE",
"110 500 LINE"
);
}
);
width = 1050;
},
{
layerId = "1A474BE3-B501-44F4-8DAE-2FAB2708ADF8";
paths = (
{
closed = 1;
nodes = (
"836 514 LINE",
"836 650 LINE",
"110 650 LINE",
"110 514 LINE"
);
}
);
width = 945;
}
);
unicode = 2013;
},
{
glyphname = emdash;
lastChange = "2019-05-13 18:40:04 +0000";
layers = (
{
layerId = "B502AB2C-259B-4691-A7E9-F302DF43C341";
paths = (
{
closed = 1;
nodes = (
"1428 500 LINE",
"1428 706 LINE",
"110 706 LINE",
"110 500 LINE"
);
}
);
width = 1536;
},
{
layerId = "1A474BE3-B501-44F4-8DAE-2FAB2708ADF8";
paths = (
{
closed = 1;
nodes = (
"1342 514 LINE",
"1342 650 LINE",
"110 650 LINE",
"110 514 LINE"
);
}
);
width = 1449;
}
);
unicode = 2014;
},
{
glyphname = exclam;
lastChange = "2019-05-13 18:40:04 +0000";
layers = (
{
layerId = "B502AB2C-259B-4691-A7E9-F302DF43C341";
paths = (
{
closed = 1;
nodes = (
"400 438 LINE",
"428 1326 LINE",
"172 1326 LINE",
"198 438 LINE"
);
},
{
closed = 1;
nodes = (
"396 -18 OFFCURVE",
"468 48 OFFCURVE",
"468 140 CURVE SMOOTH",
"468 228 OFFCURVE",
"396 298 OFFCURVE",
"300 298 CURVE SMOOTH",
"204 298 OFFCURVE",
"136 228 OFFCURVE",
"136 140 CURVE SMOOTH",
"136 48 OFFCURVE",
"204 -18 OFFCURVE",
"300 -18 CURVE SMOOTH"
);
}
);
width = 586;
},
{
layerId = "1A474BE3-B501-44F4-8DAE-2FAB2708ADF8";
paths = (
{
closed = 1;
nodes = (
"344 352 LINE",
"364 1252 LINE",
"198 1252 LINE",
"218 352 LINE"
);
},
{
closed = 1;
nodes = (
"348 -18 OFFCURVE",
"400 30 OFFCURVE",
"400 94 CURVE SMOOTH",
"400 156 OFFCURVE",
"348 208 OFFCURVE",
"280 208 CURVE SMOOTH",
"214 208 OFFCURVE",
"164 156 OFFCURVE",
"164 94 CURVE SMOOTH",
"164 30 OFFCURVE",
"214 -18 OFFCURVE",
"280 -18 CURVE SMOOTH"
);
}
);
width = 555;
}
);
unicode = 0021;
},
{
glyphname = a;
lastChange = "2019-05-13 18:40:04 +0000";
layers = (
{
anchors = (
{
name = above;
position = "{596, 1052}";
}
);
layerId = "B502AB2C-259B-4691-A7E9-F302DF43C341";
paths = (
{
closed = 1;
nodes = (
"1010 0 LINE",
"1010 618 LINE SMOOTH",
"1010 880 OFFCURVE",
"844 998 OFFCURVE",
"592 998 CURVE SMOOTH",
"314 998 OFFCURVE",
"148 904 OFFCURVE",
"148 684 CURVE",
"406 684 LINE",
"406 774 OFFCURVE",
"478 826 OFFCURVE",
"592 826 CURVE SMOOTH",
"724 826 OFFCURVE",
"774 762 OFFCURVE",
"774 626 CURVE SMOOTH",
"774 236 LINE",
"804 0 LINE"
);
},
{
closed = 1;
nodes = (
"712 -28 OFFCURVE",
"830 150 OFFCURVE",
"830 360 CURVE",
"774 360 LINE",
"774 264 OFFCURVE",
"692 152 OFFCURVE",
"546 152 CURVE SMOOTH",
"418 152 OFFCURVE",
"362 212 OFFCURVE",
"362 284 CURVE SMOOTH",
"362 382 OFFCURVE",
"442 420 OFFCURVE",
"554 420 CURVE SMOOTH",
"630 420 OFFCURVE",
"722 406 OFFCURVE",
"796 382 CURVE",
"796 520 LINE",
"702 546 OFFCURVE",
"612 564 OFFCURVE",
"506 564 CURVE SMOOTH",
"264 564 OFFCURVE",
"110 468 OFFCURVE",
"110 284 CURVE SMOOTH",
"110 118 OFFCURVE",
"236 -28 OFFCURVE",
"486 -28 CURVE SMOOTH"
);
}
);
width = 1170;
},
{
anchors = (
{
name = above;
position = "{562, 1012}";
}
);
layerId = "1A474BE3-B501-44F4-8DAE-2FAB2708ADF8";
paths = (
{
closed = 1;
nodes = (
"930 0 LINE",
"930 616 LINE SMOOTH",
"930 874 OFFCURVE",
"774 980 OFFCURVE",
"554 980 CURVE SMOOTH",
"324 980 OFFCURVE",
"158 900 OFFCURVE",
"158 692 CURVE",
"332 692 LINE",
"332 810 OFFCURVE",
"430 862 OFFCURVE",
"554 862 CURVE SMOOTH",
"700 862 OFFCURVE",
"774 792 OFFCURVE",
"774 620 CURVE SMOOTH",
"774 210 LINE",
"794 0 LINE"
);
},
{
closed = 1;
nodes = (
"682 -24 OFFCURVE",
"812 144 OFFCURVE",
"812 336 CURVE",
"774 336 LINE",
"774 226 OFFCURVE",
"654 98 OFFCURVE",
"498 98 CURVE SMOOTH",
"350 98 OFFCURVE",
"286 174 OFFCURVE",
"286 268 CURVE SMOOTH",
"286 394 OFFCURVE",
"386 442 OFFCURVE",
"514 442 CURVE SMOOTH",
"598 442 OFFCURVE",
"708 422 OFFCURVE",
"788 390 CURVE",
"788 488 LINE",
"692 522 OFFCURVE",
"590 544 OFFCURVE",
"490 544 CURVE SMOOTH",
"280 544 OFFCURVE",
"120 462 OFFCURVE",
"120 268 CURVE SMOOTH",
"120 120 OFFCURVE",
"232 -24 OFFCURVE",
"468 -24 CURVE SMOOTH"
);
}
);
width = 1101;
}
);
unicode = 0061;
},
{
glyphname = b;
lastChange = "2019-05-13 18:40:04 +0000";
layers = (
{
layerId = "B502AB2C-259B-4691-A7E9-F302DF43C341";
paths = (
{
closed = 1;
nodes = (
"928 -28 OFFCURVE",
"1126 178 OFFCURVE",
"1126 490 CURVE SMOOTH",
"1126 798 OFFCURVE",
"936 998 OFFCURVE",
"700 998 CURVE SMOOTH",
"484 998 OFFCURVE",
"350 840 OFFCURVE",
"350 546 CURVE",
"422 546 LINE",
"422 698 OFFCURVE",
"528 786 OFFCURVE",
"646 786 CURVE SMOOTH",
"788 786 OFFCURVE",
"888 668 OFFCURVE",
"888 490 CURVE SMOOTH",
"888 306 OFFCURVE",
"786 186 OFFCURVE",
"648 186 CURVE SMOOTH",
"536 186 OFFCURVE",
"422 284 OFFCURVE",
"422 430 CURVE",
"350 430 LINE",
"350 124 OFFCURVE",
"500 -28 OFFCURVE",
"682 -28 CURVE SMOOTH"
);
},
{
closed = 1;
nodes = (
"340 0 LINE",
"422 240 LINE",
"422 1372 LINE",
"186 1372 LINE",
"186 0 LINE"
);
}
);
width = 1228;
},
{
layerId = "1A474BE3-B501-44F4-8DAE-2FAB2708ADF8";
paths = (
{
closed = 1;
nodes = (
"872 -24 OFFCURVE",
"1066 174 OFFCURVE",
"1066 482 CURVE SMOOTH",
"1066 788 OFFCURVE",
"876 980 OFFCURVE",
"650 980 CURVE SMOOTH",
"440 980 OFFCURVE",
"298 822 OFFCURVE",
"298 550 CURVE",
"358 550 LINE",
"358 740 OFFCURVE",
"486 842 OFFCURVE",
"622 842 CURVE SMOOTH",
"780 842 OFFCURVE",
"906 706 OFFCURVE",
"906 482 CURVE SMOOTH",
"906 254 OFFCURVE",
"778 116 OFFCURVE",
"624 116 CURVE SMOOTH",
"490 116 OFFCURVE",
"358 222 OFFCURVE",
"358 408 CURVE",
"298 408 LINE",
"298 130 OFFCURVE",
"448 -24 OFFCURVE",
"640 -24 CURVE SMOOTH"
);
},
{
closed = 1;
nodes = (
"312 0 LINE",
"358 224 LINE",
"358 1364 LINE",
"202 1364 LINE",
"202 0 LINE"
);
}
);
width = 1185;
}
);
unicode = 0062;
},
{
glyphname = c;
lastChange = "2019-05-13 18:40:04 +0000";
layers = (
{
layerId = "B502AB2C-259B-4691-A7E9-F302DF43C341";
paths = (
{
closed = 1;
nodes = (
"818 -28 OFFCURVE",
"962 140 OFFCURVE",
"962 346 CURVE",
"724 346 LINE",
"724 248 OFFCURVE",
"672 186 OFFCURVE",
"552 186 CURVE SMOOTH",
"430 186 OFFCURVE",
"332 286 OFFCURVE",
"332 486 CURVE SMOOTH",
"332 696 OFFCURVE",
"438 786 OFFCURVE",
"552 786 CURVE SMOOTH",
"644 786 OFFCURVE",
"702 722 OFFCURVE",
"724 638 CURVE",
"962 644 LINE",
"942 816 OFFCURVE",
"806 998 OFFCURVE",
"554 998 CURVE SMOOTH",
"310 998 OFFCURVE",
"94 816 OFFCURVE",
"94 486 CURVE SMOOTH",
"94 174 OFFCURVE",
"310 -28 OFFCURVE",
"554 -28 CURVE SMOOTH"
);
}
);
width = 1059;
},
{
layerId = "1A474BE3-B501-44F4-8DAE-2FAB2708ADF8";
paths = (
{
closed = 1;
nodes = (
"772 -24 OFFCURVE",
"922 122 OFFCURVE",
"922 322 CURVE",
"762 322 LINE",
"762 192 OFFCURVE",
"684 116 OFFCURVE",
"536 116 CURVE SMOOTH",
"378 116 OFFCURVE",
"262 258 OFFCURVE",
"262 480 CURVE SMOOTH",
"262 720 OFFCURVE",
"394 842 OFFCURVE",
"536 842 CURVE SMOOTH",
"648 842 OFFCURVE",
"728 772 OFFCURVE",
"762 662 CURVE",
"922 676 LINE",
"882 836 OFFCURVE",
"754 980 OFFCURVE",
"538 980 CURVE SMOOTH",
"308 980 OFFCURVE",
"102 796 OFFCURVE",
"102 480 CURVE SMOOTH",
"102 172 OFFCURVE",
"308 -24 OFFCURVE",
"538 -24 CURVE SMOOTH"
);
}
);
width = 1032;
}
);
unicode = 0063;
},
{
glyphname = d;
lastChange = "2019-05-13 18:40:04 +0000";
layers = (
{
layerId = "B502AB2C-259B-4691-A7E9-F302DF43C341";
paths = (
{
closed = 1;
nodes = (
"726 -28 OFFCURVE",
"878 124 OFFCURVE",
"878 430 CURVE",
"804 430 LINE",
"804 284 OFFCURVE",
"692 186 OFFCURVE",
"580 186 CURVE SMOOTH",
"442 186 OFFCURVE",
"340 306 OFFCURVE",
"340 490 CURVE SMOOTH",
"340 668 OFFCURVE",
"440 786 OFFCURVE",
"582 786 CURVE SMOOTH",
"700 786 OFFCURVE",
"804 698 OFFCURVE",
"804 546 CURVE",
"878 546 LINE",
"878 840 OFFCURVE",
"744 998 OFFCURVE",
"528 998 CURVE SMOOTH",
"292 998 OFFCURVE",
"102 798 OFFCURVE",
"102 490 CURVE SMOOTH",
"102 178 OFFCURVE",
"300 -28 OFFCURVE",
"544 -28 CURVE SMOOTH"
);
},
{
closed = 1;
nodes = (
"1042 0 LINE",
"1042 1372 LINE",
"804 1372 LINE",
"804 240 LINE",
"848 0 LINE"
);
}
);
width = 1228;
},
{
layerId = "1A474BE3-B501-44F4-8DAE-2FAB2708ADF8";
paths = (
{
closed = 1;
nodes = (
"736 -24 OFFCURVE",
"886 130 OFFCURVE",
"886 408 CURVE",
"826 408 LINE",
"826 222 OFFCURVE",
"692 116 OFFCURVE",
"562 116 CURVE SMOOTH",
"406 116 OFFCURVE",
"278 254 OFFCURVE",
"278 482 CURVE SMOOTH",
"278 706 OFFCURVE",
"406 842 OFFCURVE",
"562 842 CURVE SMOOTH",
"700 842 OFFCURVE",
"826 740 OFFCURVE",
"826 550 CURVE",
"886 550 LINE",
"886 822 OFFCURVE",
"744 980 OFFCURVE",
"534 980 CURVE SMOOTH",
"308 980 OFFCURVE",
"118 788 OFFCURVE",
"118 482 CURVE SMOOTH",
"118 174 OFFCURVE",
"312 -24 OFFCURVE",
"544 -24 CURVE SMOOTH"
);
},
{
closed = 1;
nodes = (
"982 0 LINE",
"982 1364 LINE",
"826 1364 LINE",
"826 224 LINE",
"852 0 LINE"
);
}
);
width = 1185;
}
);
unicode = 0064;
},
{
glyphname = e;
lastChange = "2019-05-13 18:40:04 +0000";
layers = (
{
anchors = (
{
name = above;
position = "{532, 1052}";
}
);
layerId = "B502AB2C-259B-4691-A7E9-F302DF43C341";
paths = (
{
closed = 1;
nodes = (
"772 -28 OFFCURVE",
"932 102 OFFCURVE",
"962 290 CURVE",
"724 290 LINE",
"706 204 OFFCURVE",
"640 162 OFFCURVE",
"548 162 CURVE SMOOTH",
"400 162 OFFCURVE",
"328 278 OFFCURVE",
"328 442 CURVE SMOOTH",
"328 536 LINE SMOOTH",
"328 692 OFFCURVE",
"408 810 OFFCURVE",
"552 810 CURVE SMOOTH",
"698 810 OFFCURVE",
"744 686 OFFCURVE",
"744 568 CURVE",
"282 568 LINE",
"282 440 LINE",
"956 440 LINE",
"1000 724 OFFCURVE",
"858 998 OFFCURVE",
"548 998 CURVE SMOOTH",
"298 998 OFFCURVE",
"94 806 OFFCURVE",
"94 486 CURVE SMOOTH",
"94 176 OFFCURVE",
"300 -28 OFFCURVE",
"548 -28 CURVE SMOOTH"
);
}
);
width = 1060;
},
{
anchors = (
{
name = above;
position = "{520, 1012}";
}
);
layerId = "1A474BE3-B501-44F4-8DAE-2FAB2708ADF8";
paths = (
{
closed = 1;
nodes = (
"740 -24 OFFCURVE",
"892 92 OFFCURVE",
"922 282 CURVE",
"760 282 LINE",
"742 164 OFFCURVE",
"658 104 OFFCURVE",
"534 104 CURVE SMOOTH",
"348 104 OFFCURVE",
"258 254 OFFCURVE",
"258 454 CURVE SMOOTH",
"258 518 LINE SMOOTH",
"258 696 OFFCURVE",
"352 854 OFFCURVE",
"536 854 CURVE SMOOTH",
"718 854 OFFCURVE",
"772 696 OFFCURVE",
"772 548 CURVE",
"228 548 LINE",
"228 452 LINE",
"920 452 LINE",
"942 722 OFFCURVE",
"824 980 OFFCURVE",
"534 980 CURVE SMOOTH",
"284 980 OFFCURVE",
"102 790 OFFCURVE",
"102 476 CURVE SMOOTH",
"102 182 OFFCURVE",
"286 -24 OFFCURVE",
"534 -24 CURVE SMOOTH"
);
}
);
width = 1027;
}
);
unicode = 0065;
},
{
glyphname = f;
lastChange = "2019-05-13 18:40:04 +0000";
layers = (
{
layerId = "B502AB2C-259B-4691-A7E9-F302DF43C341";
paths = (
{
closed = 1;
nodes = (
"480 0 LINE",
"480 1084 LINE SMOOTH",
"480 1174 OFFCURVE",
"534 1202 OFFCURVE",
"590 1202 CURVE SMOOTH",
"624 1202 OFFCURVE",
"660 1194 OFFCURVE",
"694 1182 CURVE",
"740 1364 LINE",
"674 1378 OFFCURVE",
"602 1388 OFFCURVE",
"538 1388 CURVE SMOOTH",
"380 1388 OFFCURVE",
"242 1298 OFFCURVE",
"242 1088 CURVE SMOOTH",
"242 0 LINE"
);
},
{
closed = 1;
nodes = (
"658 814 LINE",
"658 970 LINE",
"98 970 LINE",
"98 814 LINE"
);
}
);
width = 735;
},
{
layerId = "1A474BE3-B501-44F4-8DAE-2FAB2708ADF8";
paths = (
{
closed = 1;
nodes = (
"410 0 LINE",
"410 1102 LINE SMOOTH",
"410 1226 OFFCURVE",
"484 1254 OFFCURVE",
"548 1254 CURVE SMOOTH",
"584 1254 OFFCURVE",
"624 1246 OFFCURVE",
"664 1230 CURVE",
"694 1354 LINE",
"638 1370 OFFCURVE",
"580 1378 OFFCURVE",
"526 1378 CURVE SMOOTH",
"374 1378 OFFCURVE",
"254 1294 OFFCURVE",
"254 1104 CURVE SMOOTH",
"254 0 LINE"
);
},
{
closed = 1;
nodes = (
"608 848 LINE",
"608 956 LINE",
"98 956 LINE",
"98 848 LINE"
);
}
);
width = 685;
}
);
unicode = 0066;
},
{
glyphname = g;
lastChange = "2019-05-13 18:40:04 +0000";
layers = (
{
layerId = "B502AB2C-259B-4691-A7E9-F302DF43C341";
paths = (
{
closed = 1;
nodes = (
"906 -502 OFFCURVE",
"1124 -298 OFFCURVE",
"1124 -88 CURVE SMOOTH",
"1124 70 OFFCURVE",
"998 144 OFFCURVE",
"792 144 CURVE SMOOTH",
"466 144 LINE SMOOTH",
"354 144 OFFCURVE",
"314 180 OFFCURVE",
"314 234 CURVE SMOOTH",
"314 300 OFFCURVE",
"372 334 OFFCURVE",
"430 334 CURVE",
"370 412 LINE",
"224 412 OFFCURVE",
"112 336 OFFCURVE",
"112 214 CURVE SMOOTH",
"112 82 OFFCURVE",
"270 -22 OFFCURVE",
"466 -22 CURVE SMOOTH",
"792 -22 LINE SMOOTH",
"858 -22 OFFCURVE",
"890 -56 OFFCURVE",
"890 -104 CURVE SMOOTH",
"890 -212 OFFCURVE",
"762 -314 OFFCURVE",
"560 -314 CURVE SMOOTH",
"374 -314 OFFCURVE",
"262 -254 OFFCURVE",
"262 -162 CURVE SMOOTH",
"262 -74 OFFCURVE",
"336 -22 OFFCURVE",
"466 -22 CURVE",
"294 42 LINE",
"142 42 OFFCURVE",
"30 -36 OFFCURVE",
"30 -174 CURVE SMOOTH",
"30 -348 OFFCURVE",
"226 -502 OFFCURVE",
"560 -502 CURVE SMOOTH"
);
},
{
closed = 1;
nodes = (
"796 300 OFFCURVE",
"990 438 OFFCURVE",
"990 648 CURVE SMOOTH",
"990 862 OFFCURVE",
"796 998 OFFCURVE",
"572 998 CURVE SMOOTH",
"342 998 OFFCURVE",
"152 862 OFFCURVE",
"152 648 CURVE SMOOTH",
"152 438 OFFCURVE",
"342 300 OFFCURVE",
"572 300 CURVE SMOOTH"
);
},
{
closed = 1;
nodes = (
"452 464 OFFCURVE",
"386 544 OFFCURVE",
"386 648 CURVE SMOOTH",
"386 760 OFFCURVE",
"452 834 OFFCURVE",
"572 834 CURVE SMOOTH",
"696 834 OFFCURVE",
"758 760 OFFCURVE",
"758 648 CURVE SMOOTH",
"758 544 OFFCURVE",
"696 464 OFFCURVE",
"574 464 CURVE SMOOTH"
);
},
{
closed = 1;
nodes = (
"916 928 OFFCURVE",
"978 968 OFFCURVE",
"1094 968 CURVE",
"1106 1194 LINE",
"942 1194 OFFCURVE",
"808 1078 OFFCURVE",
"808 904 CURVE",
"916 842 LINE"
);
}
);
width = 1164;
},
{
layerId = "1A474BE3-B501-44F4-8DAE-2FAB2708ADF8";
paths = (
{
closed = 1;
nodes = (
"888 -492 OFFCURVE",
"1098 -302 OFFCURVE",
"1098 -114 CURVE SMOOTH",
"1098 22 OFFCURVE",
"988 102 OFFCURVE",
"808 102 CURVE SMOOTH",
"436 102 LINE SMOOTH",
"302 102 OFFCURVE",
"260 148 OFFCURVE",
"260 210 CURVE SMOOTH",
"260 290 OFFCURVE",
"332 330 OFFCURVE",
"392 330 CURVE",
"362 388 LINE",
"236 388 OFFCURVE",
"122 320 OFFCURVE",
"122 200 CURVE SMOOTH",
"122 86 OFFCURVE",
"242 -12 OFFCURVE",
"436 -12 CURVE SMOOTH",
"808 -12 LINE SMOOTH",
"898 -12 OFFCURVE",
"942 -62 OFFCURVE",
"942 -122 CURVE SMOOTH",
"942 -250 OFFCURVE",
"780 -366 OFFCURVE",
"540 -366 CURVE SMOOTH",
"324 -366 OFFCURVE",
"210 -284 OFFCURVE",
"210 -180 CURVE SMOOTH",
"210 -76 OFFCURVE",
"292 -12 OFFCURVE",
"436 -12 CURVE",
"350 42 LINE",
"178 42 OFFCURVE",
"58 -38 OFFCURVE",
"58 -186 CURVE SMOOTH",
"58 -354 OFFCURVE",
"246 -492 OFFCURVE",
"540 -492 CURVE SMOOTH"
);
},
{
closed = 1;
nodes = (
"782 280 OFFCURVE",
"954 422 OFFCURVE",
"954 630 CURVE SMOOTH",
"954 840 OFFCURVE",
"782 980 OFFCURVE",
"568 980 CURVE SMOOTH",
"348 980 OFFCURVE",
"178 840 OFFCURVE",
"178 630 CURVE SMOOTH",
"178 422 OFFCURVE",
"348 280 OFFCURVE",
"568 280 CURVE SMOOTH"
);
},
{
closed = 1;
nodes = (
"422 392 OFFCURVE",
"334 494 OFFCURVE",
"334 630 CURVE SMOOTH",
"334 770 OFFCURVE",
"422 866 OFFCURVE",
"568 866 CURVE SMOOTH",
"714 866 OFFCURVE",
"800 770 OFFCURVE",
"800 630 CURVE SMOOTH",
"800 494 OFFCURVE",
"714 392 OFFCURVE",
"568 392 CURVE SMOOTH"
);
},
{
closed = 1;
nodes = (
"882 936 OFFCURVE",
"948 986 OFFCURVE",
"1068 986 CURVE",
"1080 1140 LINE",
"912 1140 OFFCURVE",
"808 1026 OFFCURVE",
"808 858 CURVE",
"882 828 LINE"
);
}
);
width = 1129;
}
);
unicode = 0067;
},
{
glyphname = h;
lastChange = "2019-05-13 18:40:04 +0000";
layers = (
{
layerId = "B502AB2C-259B-4691-A7E9-F302DF43C341";
paths = (
{
closed = 1;
nodes = (
"1088 0 LINE",
"1088 568 LINE SMOOTH",
"1088 826 OFFCURVE",
"966 998 OFFCURVE",
"726 998 CURVE SMOOTH",
"494 998 OFFCURVE",
"344 812 OFFCURVE",
"344 434 CURVE",
"422 434 LINE",
"422 668 OFFCURVE",
"522 786 OFFCURVE",
"664 786 CURVE SMOOTH",
"776 786 OFFCURVE",
"852 712 OFFCURVE",
"852 568 CURVE SMOOTH",
"852 0 LINE"
);
},
{
closed = 1;
nodes = (
"422 0 LINE",
"422 1372 LINE",
"186 1372 LINE",
"186 0 LINE"
);
}
);
width = 1246;
},
{
layerId = "1A474BE3-B501-44F4-8DAE-2FAB2708ADF8";
paths = (
{
closed = 1;
nodes = (
"1036 0 LINE",
"1036 562 LINE SMOOTH",
"1036 820 OFFCURVE",
"902 980 OFFCURVE",
"676 980 CURVE SMOOTH",
"434 980 OFFCURVE",
"298 786 OFFCURVE",
"298 452 CURVE",
"358 452 LINE",
"358 694 OFFCURVE",
"466 842 OFFCURVE",
"638 842 CURVE SMOOTH",
"788 842 OFFCURVE",
"882 744 OFFCURVE",
"882 562 CURVE SMOOTH",
"882 0 LINE"
);
},
{
closed = 1;
nodes = (
"358 0 LINE",
"358 1364 LINE",
"202 1364 LINE",
"202 0 LINE"
);
}
);
width = 1207;
}
);
unicode = 0068;
},
{
glyphname = i;
lastChange = "2019-05-13 18:40:04 +0000";
layers = (
{
layerId = "B502AB2C-259B-4691-A7E9-F302DF43C341";
paths = (
{
closed = 1;
nodes = (
"442 0 LINE",
"442 974 LINE",
"206 974 LINE",
"206 0 LINE"
);
},
{
closed = 1;
nodes = (
"414 1148 OFFCURVE",
"470 1200 OFFCURVE",
"470 1286 CURVE SMOOTH",
"470 1370 OFFCURVE",
"414 1424 OFFCURVE",
"324 1424 CURVE SMOOTH",
"232 1424 OFFCURVE",
"178 1370 OFFCURVE",
"178 1286 CURVE SMOOTH",
"178 1200 OFFCURVE",
"232 1148 OFFCURVE",
"324 1148 CURVE SMOOTH"
);
}
);
width = 656;
},
{
layerId = "1A474BE3-B501-44F4-8DAE-2FAB2708ADF8";
paths = (
{
closed = 1;
nodes = (
"368 0 LINE",
"368 958 LINE",
"212 958 LINE",
"212 0 LINE"
);
},
{
closed = 1;
nodes = (
"354 1182 OFFCURVE",
"394 1222 OFFCURVE",
"394 1282 CURVE SMOOTH",
"394 1340 OFFCURVE",
"354 1378 OFFCURVE",
"290 1378 CURVE SMOOTH",
"226 1378 OFFCURVE",
"186 1340 OFFCURVE",
"186 1282 CURVE SMOOTH",
"186 1222 OFFCURVE",
"226 1182 OFFCURVE",
"290 1182 CURVE SMOOTH"
);
}
);
width = 596;
}
);
unicode = 0069;
},
{
glyphname = j;
lastChange = "2019-05-13 18:40:04 +0000";
layers = (
{
layerId = "B502AB2C-259B-4691-A7E9-F302DF43C341";
paths = (
{
closed = 1;
nodes = (
"334 -502 OFFCURVE",
"456 -394 OFFCURVE",
"456 -116 CURVE SMOOTH",
"456 974 LINE",
"220 974 LINE",
"220 -112 LINE",
"220 -246 OFFCURVE",
"168 -296 OFFCURVE",
"70 -296 CURVE SMOOTH",
"-2 -296 OFFCURVE",
"-80 -270 OFFCURVE",
"-148 -236 CURVE",
"-152 -440 LINE",
"-60 -478 OFFCURVE",
"24 -502 OFFCURVE",
"128 -502 CURVE SMOOTH"
);
},
{
closed = 1;
nodes = (
"426 1148 OFFCURVE",
"482 1200 OFFCURVE",
"482 1286 CURVE SMOOTH",
"482 1370 OFFCURVE",
"426 1424 OFFCURVE",
"336 1424 CURVE SMOOTH",
"246 1424 OFFCURVE",
"190 1370 OFFCURVE",
"190 1286 CURVE SMOOTH",
"190 1200 OFFCURVE",
"246 1148 OFFCURVE",
"336 1148 CURVE SMOOTH"
);
}
);
width = 670;
},
{
layerId = "1A474BE3-B501-44F4-8DAE-2FAB2708ADF8";
paths = (
{
closed = 1;
nodes = (
"276 -492 OFFCURVE",
"398 -390 OFFCURVE",
"398 -136 CURVE SMOOTH",
"398 960 LINE",
"244 960 LINE",
"244 -134 LINE",
"244 -286 OFFCURVE",
"180 -356 OFFCURVE",
"68 -356 CURVE SMOOTH",
"-12 -356 OFFCURVE",
"-86 -326 OFFCURVE",
"-164 -282 CURVE",
"-172 -418 LINE",
"-80 -468 OFFCURVE",
"4 -492 OFFCURVE",
"96 -492 CURVE SMOOTH"
);
},
{
closed = 1;
nodes = (
"384 1182 OFFCURVE",
"424 1222 OFFCURVE",
"424 1282 CURVE SMOOTH",
"424 1340 OFFCURVE",
"384 1378 OFFCURVE",
"320 1378 CURVE SMOOTH",
"256 1378 OFFCURVE",
"218 1340 OFFCURVE",
"218 1282 CURVE SMOOTH",
"218 1222 OFFCURVE",
"256 1182 OFFCURVE",
"320 1182 CURVE SMOOTH"
);
}
);
width = 627;
}
);
unicode = 006A;
},
{
glyphname = k;
lastChange = "2019-05-13 18:40:04 +0000";
layers = (
{
layerId = "B502AB2C-259B-4691-A7E9-F302DF43C341";
paths = (
{
closed = 1;
nodes = (
"422 0 LINE",
"422 1372 LINE",
"186 1372 LINE",
"186 0 LINE"
);
},
{
closed = 1;
nodes = (
"390 358 LINE",
"1126 970 LINE",
"806 970 LINE",
"390 602 LINE"
);
},
{
closed = 1;
nodes = (
"1150 0 LINE",
"652 672 LINE",
"428 618 LINE",
"862 0 LINE"
);
}
);
width = 1183;
},
{
layerId = "1A474BE3-B501-44F4-8DAE-2FAB2708ADF8";
paths = (
{
closed = 1;
nodes = (
"358 0 LINE",
"358 1364 LINE",
"202 1364 LINE",
"202 0 LINE"
);
},
{
closed = 1;
nodes = (
"334 382 LINE",
"1040 956 LINE",
"822 956 LINE",
"334 548 LINE"
);
},
{
closed = 1;
nodes = (
"1062 0 LINE",
"574 632 LINE",
"416 604 LINE",
"870 0 LINE"
);
}
);
width = 1127;
}
);
unicode = 006B;
},
{
glyphname = l;
lastChange = "2019-05-13 18:40:04 +0000";
layers = (
{
layerId = "B502AB2C-259B-4691-A7E9-F302DF43C341";
paths = (
{
closed = 1;
nodes = (
"422 0 LINE",
"422 1372 LINE",
"186 1372 LINE",
"186 0 LINE"
);
}
);
width = 609;
},
{
layerId = "1A474BE3-B501-44F4-8DAE-2FAB2708ADF8";
paths = (
{
closed = 1;
nodes = (
"358 0 LINE",
"358 1364 LINE",
"202 1364 LINE",
"202 0 LINE"
);
}
);
width = 560;
}
);
unicode = 006C;
},
{
glyphname = m;
lastChange = "2019-05-13 18:40:04 +0000";
layers = (
{
layerId = "B502AB2C-259B-4691-A7E9-F302DF43C341";
paths = (
{
closed = 1;
nodes = (
"1742 0 LINE",
"1742 568 LINE SMOOTH",
"1742 826 OFFCURVE",
"1618 998 OFFCURVE",
"1380 998 CURVE SMOOTH",
"1152 998 OFFCURVE",
"990 846 OFFCURVE",
"990 440 CURVE",
"1088 440 LINE",
"1088 672 OFFCURVE",
"1174 786 OFFCURVE",
"1316 786 CURVE SMOOTH",
"1428 786 OFFCURVE",
"1504 712 OFFCURVE",
"1504 568 CURVE SMOOTH",
"1504 0 LINE"
);
},
{
closed = 1;
nodes = (
"422 0 LINE",
"422 434 LINE SMOOTH",
"422 668 OFFCURVE",
"522 786 OFFCURVE",
"664 786 CURVE SMOOTH",
"776 786 OFFCURVE",
"852 712 OFFCURVE",
"852 568 CURVE SMOOTH",
"852 0 LINE",
"1088 0 LINE",
"1088 568 LINE SMOOTH",
"1088 826 OFFCURVE",
"966 998 OFFCURVE",
"726 998 CURVE SMOOTH",
"590 998 OFFCURVE",
"482 932 OFFCURVE",
"418 804 CURVE",
"392 970 LINE",
"186 970 LINE",
"186 0 LINE"
);
}
);
width = 1898;
},
{
layerId = "1A474BE3-B501-44F4-8DAE-2FAB2708ADF8";
paths = (
{
closed = 1;
nodes = (
"1702 0 LINE",
"1702 562 LINE SMOOTH",
"1702 820 OFFCURVE",
"1568 980 OFFCURVE",
"1342 980 CURVE SMOOTH",
"1104 980 OFFCURVE",
"964 808 OFFCURVE",
"964 464 CURVE",
"1036 464 LINE",
"1036 700 OFFCURVE",
"1130 842 OFFCURVE",
"1304 842 CURVE SMOOTH",
"1452 842 OFFCURVE",
"1546 744 OFFCURVE",
"1546 562 CURVE SMOOTH",
"1546 0 LINE"
);
},
{
closed = 1;
nodes = (
"358 0 LINE",
"358 452 LINE SMOOTH",
"358 694 OFFCURVE",
"466 842 OFFCURVE",
"638 842 CURVE SMOOTH",
"788 842 OFFCURVE",
"882 744 OFFCURVE",
"882 562 CURVE SMOOTH",
"882 0 LINE",
"1036 0 LINE",
"1036 562 LINE SMOOTH",
"1036 820 OFFCURVE",
"902 980 OFFCURVE",
"676 980 CURVE SMOOTH",
"524 980 OFFCURVE",
"414 902 OFFCURVE",
"354 764 CURVE",
"336 956 LINE",
"202 956 LINE",
"202 0 LINE"
);
}
);
width = 1871;
}
);
unicode = 006D;
},
{
glyphname = n;
lastChange = "2019-05-13 18:40:04 +0000";
layers = (
{
anchors = (
{
name = above;
position = "{628, 1052}";
}
);
layerId = "B502AB2C-259B-4691-A7E9-F302DF43C341";
paths = (
{
closed = 1;
nodes = (
"1088 0 LINE",
"1088 568 LINE SMOOTH",
"1088 826 OFFCURVE",
"966 998 OFFCURVE",
"726 998 CURVE SMOOTH",
"494 998 OFFCURVE",
"344 812 OFFCURVE",
"344 434 CURVE",
"422 434 LINE",
"422 668 OFFCURVE",
"522 786 OFFCURVE",
"664 786 CURVE SMOOTH",
"776 786 OFFCURVE",
"852 712 OFFCURVE",
"852 568 CURVE SMOOTH",
"852 0 LINE"
);
},
{
closed = 1;
nodes = (
"422 0 LINE",
"422 778 LINE",
"392 970 LINE",
"186 970 LINE",
"186 0 LINE"
);
}
);
width = 1246;
},
{
anchors = (
{
name = above;
position = "{610, 1012}";
}
);
layerId = "1A474BE3-B501-44F4-8DAE-2FAB2708ADF8";
paths = (
{
closed = 1;
nodes = (
"1036 0 LINE",
"1036 562 LINE SMOOTH",
"1036 820 OFFCURVE",
"902 980 OFFCURVE",
"676 980 CURVE SMOOTH",
"434 980 OFFCURVE",
"298 786 OFFCURVE",
"298 452 CURVE",
"358 452 LINE",
"358 694 OFFCURVE",
"466 842 OFFCURVE",
"638 842 CURVE SMOOTH",
"788 842 OFFCURVE",
"882 744 OFFCURVE",
"882 562 CURVE SMOOTH",
"882 0 LINE"
);
},
{
closed = 1;
nodes = (
"358 0 LINE",
"358 736 LINE",
"336 956 LINE",
"202 956 LINE",
"202 0 LINE"
);
}
);
width = 1207;
}
);
unicode = 006E;
},
{
glyphname = o;
lastChange = "2019-05-13 18:40:04 +0000";
layers = (
{
anchors = (
{
name = above;
position = "{568, 1052}";
}
);
layerId = "B502AB2C-259B-4691-A7E9-F302DF43C341";
paths = (
{
closed = 1;
nodes = (
"830 -28 OFFCURVE",
"1038 142 OFFCURVE",
"1038 484 CURVE SMOOTH",
"1038 832 OFFCURVE",
"830 998 OFFCURVE",
"568 998 CURVE SMOOTH",
"302 998 OFFCURVE",
"94 832 OFFCURVE",
"94 484 CURVE SMOOTH",
"94 142 OFFCURVE",
"302 -28 OFFCURVE",
"568 -28 CURVE SMOOTH"
);
},
{
closed = 1;
nodes = (
"420 178 OFFCURVE",
"332 282 OFFCURVE",
"332 484 CURVE SMOOTH",
"332 690 OFFCURVE",
"434 794 OFFCURVE",
"576 794 CURVE SMOOTH",
"716 794 OFFCURVE",
"802 690 OFFCURVE",
"802 484 CURVE SMOOTH",
"802 282 OFFCURVE",
"700 178 OFFCURVE",
"560 178 CURVE SMOOTH"
);
}
);
width = 1132;
},
{
anchors = (
{
name = above;
position = "{548, 1012}";
}
);
layerId = "1A474BE3-B501-44F4-8DAE-2FAB2708ADF8";
paths = (
{
closed = 1;
nodes = (
"804 -24 OFFCURVE",
"992 150 OFFCURVE",
"992 478 CURVE SMOOTH",
"992 808 OFFCURVE",
"804 980 OFFCURVE",
"548 980 CURVE SMOOTH",
"290 980 OFFCURVE",
"102 808 OFFCURVE",
"102 478 CURVE SMOOTH",
"102 150 OFFCURVE",
"290 -24 OFFCURVE",
"548 -24 CURVE SMOOTH"
);
},
{
closed = 1;
nodes = (
"358 112 OFFCURVE",
"262 252 OFFCURVE",
"262 478 CURVE SMOOTH",
"262 706 OFFCURVE",
"364 846 OFFCURVE",
"552 846 CURVE SMOOTH",
"738 846 OFFCURVE",
"834 706 OFFCURVE",
"834 478 CURVE SMOOTH",
"834 252 OFFCURVE",
"730 112 OFFCURVE",
"544 112 CURVE SMOOTH"
);
}
);
width = 1093;
}
);
unicode = 006F;
},
{
glyphname = p;
lastChange = "2019-05-13 18:40:04 +0000";
layers = (
{
layerId = "B502AB2C-259B-4691-A7E9-F302DF43C341";
paths = (
{
closed = 1;
nodes = (
"910 -28 OFFCURVE",
"1126 162 OFFCURVE",
"1126 486 CURVE SMOOTH",
"1126 808 OFFCURVE",
"912 998 OFFCURVE",
"682 998 CURVE SMOOTH",
"494 998 OFFCURVE",
"336 862 OFFCURVE",
"336 556 CURVE",
"422 556 LINE",
"422 702 OFFCURVE",
"522 786 OFFCURVE",
"642 786 CURVE SMOOTH",
"784 786 OFFCURVE",
"888 672 OFFCURVE",
"888 486 CURVE SMOOTH",
"888 282 OFFCURVE",
"756 186 OFFCURVE",
"638 186 CURVE SMOOTH",
"524 186 OFFCURVE",
"422 262 OFFCURVE",
"422 392 CURVE",
"336 392 LINE",
"336 110 OFFCURVE",
"458 -28 OFFCURVE",
"672 -28 CURVE SMOOTH"
);
},
{
closed = 1;
nodes = (
"422 -474 LINE",
"422 730 LINE",
"380 970 LINE",
"186 970 LINE",
"186 -474 LINE"
);
}
);
width = 1220;
},
{
layerId = "1A474BE3-B501-44F4-8DAE-2FAB2708ADF8";
paths = (
{
closed = 1;
nodes = (
"862 -24 OFFCURVE",
"1066 164 OFFCURVE",
"1066 480 CURVE SMOOTH",
"1066 792 OFFCURVE",
"864 980 OFFCURVE",
"640 980 CURVE SMOOTH",
"444 980 OFFCURVE",
"292 834 OFFCURVE",
"292 556 CURVE",
"358 556 LINE",
"358 742 OFFCURVE",
"484 842 OFFCURVE",
"620 842 CURVE SMOOTH",
"778 842 OFFCURVE",
"906 708 OFFCURVE",
"906 480 CURVE SMOOTH",
"906 242 OFFCURVE",
"762 116 OFFCURVE",
"618 116 CURVE SMOOTH",
"484 116 OFFCURVE",
"358 212 OFFCURVE",
"358 390 CURVE",
"292 390 LINE",
"292 124 OFFCURVE",
"426 -24 OFFCURVE",
"636 -24 CURVE SMOOTH"
);
},
{
closed = 1;
nodes = (
"358 -470 LINE",
"358 732 LINE",
"332 956 LINE",
"202 956 LINE",
"202 -470 LINE"
);
}
);
width = 1169;
}
);
unicode = 0070;
},
{
glyphname = q;
lastChange = "2019-05-13 18:40:04 +0000";
layers = (
{
layerId = "B502AB2C-259B-4691-A7E9-F302DF43C341";
paths = (
{
closed = 1;
nodes = (
"762 -28 OFFCURVE",
"842 144 OFFCURVE",
"842 392 CURVE",
"796 392 LINE",
"796 262 OFFCURVE",
"692 186 OFFCURVE",
"582 186 CURVE SMOOTH",
"462 186 OFFCURVE",
"332 282 OFFCURVE",
"332 486 CURVE SMOOTH",
"332 672 OFFCURVE",
"436 786 OFFCURVE",
"578 786 CURVE SMOOTH",
"698 786 OFFCURVE",
"796 702 OFFCURVE",
"796 556 CURVE",
"884 556 LINE",
"884 862 OFFCURVE",
"724 998 OFFCURVE",
"536 998 CURVE SMOOTH",
"308 998 OFFCURVE",
"94 808 OFFCURVE",
"94 486 CURVE SMOOTH",
"94 162 OFFCURVE",
"310 -28 OFFCURVE",
"548 -28 CURVE SMOOTH"
);
},
{
closed = 1;
nodes = (
"1166 -330 LINE",
"1064 -298 OFFCURVE",
"1032 -268 OFFCURVE",
"1032 -150 CURVE SMOOTH",
"1032 970 LINE",
"880 970 LINE",
"796 730 LINE",
"796 -132 LINE SMOOTH",
"796 -338 OFFCURVE",
"880 -448 OFFCURVE",
"1098 -502 CURVE"
);
}
);
width = 1220;
},
{
layerId = "1A474BE3-B501-44F4-8DAE-2FAB2708ADF8";
paths = (
{
closed = 1;
nodes = (
"742 -24 OFFCURVE",
"856 142 OFFCURVE",
"856 390 CURVE",
"810 390 LINE",
"810 210 OFFCURVE",
"682 116 OFFCURVE",
"550 116 CURVE SMOOTH",
"404 116 OFFCURVE",
"262 242 OFFCURVE",
"262 480 CURVE SMOOTH",
"262 708 OFFCURVE",
"392 842 OFFCURVE",
"548 842 CURVE SMOOTH",
"684 842 OFFCURVE",
"810 742 OFFCURVE",
"810 556 CURVE",
"878 556 LINE",
"878 834 OFFCURVE",
"724 980 OFFCURVE",
"528 980 CURVE SMOOTH",
"306 980 OFFCURVE",
"102 792 OFFCURVE",
"102 480 CURVE SMOOTH",
"102 164 OFFCURVE",
"306 -24 OFFCURVE",
"534 -24 CURVE SMOOTH"
);
},
{
closed = 1;
nodes = (
"1110 -372 LINE",
"998 -334 OFFCURVE",
"964 -298 OFFCURVE",
"964 -162 CURVE SMOOTH",
"964 956 LINE",
"858 956 LINE",
"810 732 LINE",
"810 -152 LINE SMOOTH",
"810 -344 OFFCURVE",
"876 -442 OFFCURVE",
"1058 -492 CURVE"
);
}
);
width = 1169;
}
);
unicode = 0071;
},
{
glyphname = r;
lastChange = "2019-05-13 18:40:04 +0000";
layers = (
{
layerId = "B502AB2C-259B-4691-A7E9-F302DF43C341";
paths = (
{
closed = 1;
nodes = (
"422 0 LINE",
"422 974 LINE",
"186 974 LINE",
"186 0 LINE"
);
},
{
closed = 1;
nodes = (
"422 426 LINE",
"422 640 OFFCURVE",
"502 754 OFFCURVE",
"658 754 CURVE SMOOTH",
"690 754 OFFCURVE",
"732 748 OFFCURVE",
"768 740 CURVE",
"772 976 LINE",
"744 984 OFFCURVE",
"716 988 OFFCURVE",
"684 988 CURVE SMOOTH",
"506 988 OFFCURVE",
"364 808 OFFCURVE",
"364 426 CURVE"
);
}
);
width = 785;
},
{
layerId = "1A474BE3-B501-44F4-8DAE-2FAB2708ADF8";
paths = (
{
closed = 1;
nodes = (
"358 0 LINE",
"358 958 LINE",
"202 958 LINE",
"202 0 LINE"
);
},
{
closed = 1;
nodes = (
"358 432 LINE",
"358 670 OFFCURVE",
"424 824 OFFCURVE",
"594 824 CURVE SMOOTH",
"628 824 OFFCURVE",
"676 814 OFFCURVE",
"714 802 CURVE",
"724 956 LINE",
"688 968 OFFCURVE",
"654 974 OFFCURVE",
"612 974 CURVE SMOOTH",
"418 974 OFFCURVE",
"310 796 OFFCURVE",
"310 432 CURVE"
);
}
);
width = 723;
}
);
unicode = 0072;
},
{
glyphname = s;
lastChange = "2019-05-13 18:40:04 +0000";
layers = (
{
layerId = "B502AB2C-259B-4691-A7E9-F302DF43C341";
paths = (
{
closed = 1;
nodes = (
"790 -28 OFFCURVE",
"956 118 OFFCURVE",
"956 272 CURVE SMOOTH",
"956 394 OFFCURVE",
"870 470 OFFCURVE",
"720 522 CURVE SMOOTH",
"490 608 LINE SMOOTH",
"408 632 OFFCURVE",
"372 664 OFFCURVE",
"372 712 CURVE SMOOTH",
"372 766 OFFCURVE",
"432 814 OFFCURVE",
"532 814 CURVE SMOOTH",
"642 814 OFFCURVE",
"696 774 OFFCURVE",
"702 710 CURVE",
"924 710 LINE",
"920 876 OFFCURVE",
"780 998 OFFCURVE",
"532 998 CURVE SMOOTH",
"282 998 OFFCURVE",
"122 888 OFFCURVE",
"122 724 CURVE SMOOTH",
"122 600 OFFCURVE",
"206 510 OFFCURVE",
"358 456 CURVE SMOOTH",
"570 380 LINE SMOOTH",
"656 354 OFFCURVE",
"694 326 OFFCURVE",
"694 272 CURVE SMOOTH",
"694 208 OFFCURVE",
"622 158 OFFCURVE",
"520 158 CURVE SMOOTH",
"396 158 OFFCURVE",
"320 200 OFFCURVE",
"316 296 CURVE",
"98 296 LINE",
"100 92 OFFCURVE",
"268 -28 OFFCURVE",
"548 -28 CURVE SMOOTH"
);
}
);
width = 1055;
},
{
layerId = "1A474BE3-B501-44F4-8DAE-2FAB2708ADF8";
paths = (
{
closed = 1;
nodes = (
"782 -24 OFFCURVE",
"930 112 OFFCURVE",
"930 256 CURVE SMOOTH",
"930 380 OFFCURVE",
"840 456 OFFCURVE",
"676 506 CURVE SMOOTH",
"486 570 LINE SMOOTH",
"370 602 OFFCURVE",
"316 648 OFFCURVE",
"316 716 CURVE SMOOTH",
"316 786 OFFCURVE",
"392 856 OFFCURVE",
"522 856 CURVE SMOOTH",
"656 856 OFFCURVE",
"730 812 OFFCURVE",
"742 728 CURVE",
"896 728 LINE",
"890 872 OFFCURVE",
"756 980 OFFCURVE",
"522 980 CURVE SMOOTH",
"300 980 OFFCURVE",
"152 878 OFFCURVE",
"152 724 CURVE SMOOTH",
"152 600 OFFCURVE",
"240 510 OFFCURVE",
"402 460 CURVE SMOOTH",
"588 400 LINE SMOOTH",
"708 368 OFFCURVE",
"760 330 OFFCURVE",
"760 256 CURVE SMOOTH",
"760 168 OFFCURVE",
"656 102 OFFCURVE",
"532 102 CURVE SMOOTH",
"374 102 OFFCURVE",
"278 162 OFFCURVE",
"272 284 CURVE",
"122 284 LINE",
"128 104 OFFCURVE",
"268 -24 OFFCURVE",
"546 -24 CURVE SMOOTH"
);
}
);
width = 1051;
}
);
unicode = 0073;
},
{
glyphname = t;
lastChange = "2019-05-13 18:40:04 +0000";
layers = (
{
layerId = "B502AB2C-259B-4691-A7E9-F302DF43C341";
paths = (
{
closed = 1;
nodes = (
"592 -28 OFFCURVE",
"660 -6 OFFCURVE",
"734 24 CURVE",
"700 190 LINE",
"640 168 OFFCURVE",
"596 158 OFFCURVE",
"550 158 CURVE SMOOTH",
"476 158 OFFCURVE",
"436 198 OFFCURVE",
"436 278 CURVE SMOOTH",
"436 1228 LINE",
"200 1228 LINE",
"200 270 LINE SMOOTH",
"200 66 OFFCURVE",
"342 -28 OFFCURVE",
"514 -28 CURVE SMOOTH"
);
},
{
closed = 1;
nodes = (
"700 814 LINE",
"700 970 LINE",
"64 970 LINE",
"64 814 LINE"
);
}
);
width = 789;
},
{
layerId = "1A474BE3-B501-44F4-8DAE-2FAB2708ADF8";
paths = (
{
closed = 1;
nodes = (
"568 -24 OFFCURVE",
"634 -4 OFFCURVE",
"702 26 CURVE",
"680 138 LINE",
"616 114 OFFCURVE",
"568 102 OFFCURVE",
"514 102 CURVE SMOOTH",
"424 102 OFFCURVE",
"376 150 OFFCURVE",
"376 250 CURVE SMOOTH",
"376 1222 LINE",
"222 1222 LINE",
"222 246 LINE SMOOTH",
"222 66 OFFCURVE",
"340 -24 OFFCURVE",
"496 -24 CURVE SMOOTH"
);
},
{
closed = 1;
nodes = (
"678 848 LINE",
"678 956 LINE",
"68 956 LINE",
"68 848 LINE"
);
}
);
width = 752;
}
);
unicode = 0074;
},
{
glyphname = u;
lastChange = "2019-05-13 18:40:04 +0000";
layers = (
{
anchors = (
{
name = above;
position = "{626, 1052}";
}
);
layerId = "B502AB2C-259B-4691-A7E9-F302DF43C341";
paths = (
{
closed = 1;
nodes = (
"832 0 LINE",
"1068 0 LINE",
"1068 974 LINE",
"832 974 LINE"
);
},
{
closed = 1;
nodes = (
"166 354 LINE SMOOTH",
"166 86 OFFCURVE",
"328 -18 OFFCURVE",
"536 -18 CURVE SMOOTH",
"748 -18 OFFCURVE",
"896 154 OFFCURVE",
"896 510 CURVE",
"832 510 LINE",
"832 298 OFFCURVE",
"718 188 OFFCURVE",
"578 188 CURVE SMOOTH",
"468 188 OFFCURVE",
"402 252 OFFCURVE",
"402 378 CURVE SMOOTH",
"402 974 LINE",
"166 974 LINE"
);
}
);
width = 1254;
},
{
anchors = (
{
name = above;
position = "{602, 1012}";
}
);
layerId = "1A474BE3-B501-44F4-8DAE-2FAB2708ADF8";
paths = (
{
closed = 1;
nodes = (
"852 0 LINE",
"1008 0 LINE",
"1008 958 LINE",
"852 958 LINE"
);
},
{
closed = 1;
nodes = (
"174 350 LINE SMOOTH",
"174 100 OFFCURVE",
"318 -18 OFFCURVE",
"534 -18 CURVE SMOOTH",
"762 -18 OFFCURVE",
"910 170 OFFCURVE",
"910 492 CURVE",
"852 492 LINE",
"852 274 OFFCURVE",
"736 118 OFFCURVE",
"556 118 CURVE SMOOTH",
"410 118 OFFCURVE",
"330 202 OFFCURVE",
"330 362 CURVE SMOOTH",
"330 958 LINE",
"174 958 LINE"
);
}
);
width = 1211;
}
);
unicode = 0075;
},
{
glyphname = v;
lastChange = "2019-05-13 18:40:04 +0000";
layers = (
{
layerId = "B502AB2C-259B-4691-A7E9-F302DF43C341";
paths = (
{
closed = 1;
nodes = (
"386 0 LINE",
"652 0 LINE",
"1014 970 LINE",
"742 970 LINE",
"510 202 LINE",
"528 202 LINE",
"296 970 LINE",
"24 970 LINE"
);
}
);
width = 1038;
},
{
layerId = "1A474BE3-B501-44F4-8DAE-2FAB2708ADF8";
paths = (
{
closed = 1;
nodes = (
"418 0 LINE",
"588 0 LINE",
"970 956 LINE",
"792 956 LINE",
"492 134 LINE",
"514 134 LINE",
"214 956 LINE",
"36 956 LINE"
);
}
);
width = 1005;
}
);
unicode = 0076;
},
{
glyphname = w;
lastChange = "2019-05-13 18:40:04 +0000";
layers = (
{
layerId = "B502AB2C-259B-4691-A7E9-F302DF43C341";
paths = (
{
closed = 1;
nodes = (
"346 0 LINE",
"580 0 LINE",
"774 644 LINE",
"738 644 LINE",
"936 0 LINE",
"1168 0 LINE",
"1488 970 LINE",
"1252 970 LINE",
"1042 232 LINE",
"1066 232 LINE",
"868 918 LINE",
"654 918 LINE",
"456 234 LINE",
"480 234 LINE",
"270 970 LINE",
"24 970 LINE"
);
}
);
width = 1516;
},
{
layerId = "1A474BE3-B501-44F4-8DAE-2FAB2708ADF8";
paths = (
{
closed = 1;
nodes = (
"352 0 LINE",
"504 0 LINE",
"734 706 LINE",
"710 706 LINE",
"942 0 LINE",
"1094 0 LINE",
"1408 956 LINE",
"1252 956 LINE",
"1008 156 LINE",
"1026 156 LINE",
"790 910 LINE",
"660 910 LINE",
"422 158 LINE",
"442 158 LINE",
"198 956 LINE",
"36 956 LINE"
);
}
);
width = 1449;
}
);
unicode = 0077;
},
{
glyphname = x;
lastChange = "2019-05-13 18:40:04 +0000";
layers = (
{
layerId = "B502AB2C-259B-4691-A7E9-F302DF43C341";
paths = (
{
closed = 1;
nodes = (
"322 0 LINE",
"544 312 LINE",
"786 0 LINE",
"1074 0 LINE",
"698 484 LINE",
"1074 974 LINE",
"786 974 LINE",
"560 662 LINE",
"322 974 LINE",
"32 974 LINE",
"410 484 LINE",
"32 0 LINE"
);
}
);
width = 1107;
},
{
layerId = "1A474BE3-B501-44F4-8DAE-2FAB2708ADF8";
paths = (
{
closed = 1;
nodes = (
"242 0 LINE",
"504 364 LINE",
"778 0 LINE",
"968 0 LINE",
"606 478 LINE",
"970 958 LINE",
"780 958 LINE",
"516 596 LINE",
"242 958 LINE",
"52 958 LINE",
"414 478 LINE",
"52 0 LINE"
);
}
);
width = 1023;
}
);
unicode = 0078;
},
{
glyphname = y;
lastChange = "2019-05-13 18:40:04 +0000";
layers = (
{
layerId = "B502AB2C-259B-4691-A7E9-F302DF43C341";
paths = (
{
closed = 1;
nodes = (
"428 0 LINE",
"398 -94 LINE SMOOTH",
"362 -214 OFFCURVE",
"304 -296 OFFCURVE",
"210 -296 CURVE SMOOTH",
"140 -296 OFFCURVE",
"72 -276 OFFCURVE",
"0 -230 CURVE",
"0 -438 LINE",
"90 -482 OFFCURVE",
"176 -502 OFFCURVE",
"268 -502 CURVE SMOOTH",
"428 -502 OFFCURVE",
"536 -406 OFFCURVE",
"612 -176 CURVE SMOOTH",
"984 970 LINE",
"744 970 LINE",
"522 206 LINE",
"564 206 LINE",
"306 970 LINE",
"38 970 LINE"
);
}
);
width = 1007;
},
{
layerId = "1A474BE3-B501-44F4-8DAE-2FAB2708ADF8";
paths = (
{
closed = 1;
nodes = (
"436 0 LINE",
"408 -96 LINE SMOOTH",
"370 -226 OFFCURVE",
"314 -356 OFFCURVE",
"194 -356 CURVE SMOOTH",
"122 -356 OFFCURVE",
"58 -334 OFFCURVE",
"-12 -278 CURVE",
"-12 -422 LINE",
"68 -468 OFFCURVE",
"140 -492 OFFCURVE",
"224 -492 CURVE SMOOTH",
"380 -492 OFFCURVE",
"476 -384 OFFCURVE",
"536 -192 CURVE SMOOTH",
"896 956 LINE",
"736 956 LINE",
"494 136 LINE",
"530 136 LINE",
"218 956 LINE",
"44 956 LINE"
);
}
);
width = 931;
}
);
unicode = 0079;
},
{
glyphname = z;
lastChange = "2019-05-13 18:40:04 +0000";
layers = (
{
layerId = "B502AB2C-259B-4691-A7E9-F302DF43C341";
paths = (
{
closed = 1;
nodes = (
"878 0 LINE",
"878 192 LINE",
"390 192 LINE",
"878 780 LINE",
"878 970 LINE",
"114 970 LINE",
"114 780 LINE",
"618 780 LINE",
"114 192 LINE",
"114 0 LINE"
);
}
);
width = 990;
},
{
layerId = "1A474BE3-B501-44F4-8DAE-2FAB2708ADF8";
paths = (
{
closed = 1;
nodes = (
"846 0 LINE",
"846 126 LINE",
"290 126 LINE",
"846 830 LINE",
"846 956 LINE",
"106 956 LINE",
"106 830 LINE",
"670 830 LINE",
"106 126 LINE",
"106 0 LINE"
);
}
);
width = 949;
}
);
unicode = 007A;
},
{
glyphname = A;
lastChange = "2019-05-13 18:40:04 +0000";
layers = (
{
anchors = (
{
name = above;
position = "{632, 1324}";
}
);
layerId = "B502AB2C-259B-4691-A7E9-F302DF43C341";
paths = (
{
closed = 1;
nodes = (
"294 0 LINE",
"386 280 LINE",
"868 280 LINE",
"958 0 LINE",
"1206 0 LINE",
"782 1298 LINE",
"486 1298 LINE",
"44 0 LINE"
);
},
{
closed = 1;
nodes = (
"630 1016 LINE",
"812 458 LINE",
"446 458 LINE"
);
}
);
width = 1251;
},
{
anchors = (
{
name = above;
position = "{578, 1270}";
}
);
layerId = "1A474BE3-B501-44F4-8DAE-2FAB2708ADF8";
paths = (
{
closed = 1;
nodes = (
"216 0 LINE",
"326 322 LINE",
"826 322 LINE",
"932 0 LINE",
"1096 0 LINE",
"674 1256 LINE",
"484 1256 LINE",
"52 0 LINE"
);
},
{
closed = 1;
nodes = (
"576 1066 LINE",
"786 444 LINE",
"366 444 LINE"
);
}
);
width = 1149;
}
);
unicode = 0041;
},
{
glyphname = B;
lastChange = "2019-05-13 18:40:04 +0000";
layers = (
{
layerId = "B502AB2C-259B-4691-A7E9-F302DF43C341";
paths = (
{
closed = 1;
nodes = (
"712 0 LINE SMOOTH",
"1078 0 OFFCURVE",
"1178 196 OFFCURVE",
"1178 360 CURVE SMOOTH",
"1178 518 OFFCURVE",
"1068 626 OFFCURVE",
"922 656 CURVE",
"1070 698 OFFCURVE",
"1156 808 OFFCURVE",
"1156 954 CURVE SMOOTH",
"1156 1144 OFFCURVE",
"1010 1298 OFFCURVE",
"710 1298 CURVE SMOOTH",
"186 1298 LINE",
"186 0 LINE"
);
},
{
closed = 1;
nodes = (
"422 544 LINE",
"706 544 LINE SMOOTH",
"852 544 OFFCURVE",
"924 476 OFFCURVE",
"924 374 CURVE SMOOTH",
"924 272 OFFCURVE",
"856 206 OFFCURVE",
"706 206 CURVE SMOOTH",
"422 206 LINE"
);
},
{
closed = 1;
nodes = (
"702 1094 LINE SMOOTH",
"842 1094 OFFCURVE",
"914 1026 OFFCURVE",
"914 924 CURVE SMOOTH",
"914 816 OFFCURVE",
"840 750 OFFCURVE",
"700 750 CURVE SMOOTH",
"422 750 LINE",
"422 1094 LINE"
);
}
);
width = 1296;
},
{
layerId = "1A474BE3-B501-44F4-8DAE-2FAB2708ADF8";
paths = (
{
closed = 1;
nodes = (
"672 0 LINE SMOOTH",
"1000 0 OFFCURVE",
"1104 172 OFFCURVE",
"1104 342 CURVE SMOOTH",
"1104 482 OFFCURVE",
"998 608 OFFCURVE",
"844 632 CURVE",
"1002 670 OFFCURVE",
"1082 784 OFFCURVE",
"1082 928 CURVE SMOOTH",
"1082 1104 OFFCURVE",
"948 1256 OFFCURVE",
"672 1256 CURVE SMOOTH",
"202 1256 LINE",
"202 0 LINE"
);
},
{
closed = 1;
nodes = (
"358 560 LINE",
"670 560 LINE SMOOTH",
"846 560 OFFCURVE",
"938 476 OFFCURVE",
"938 350 CURVE SMOOTH",
"938 224 OFFCURVE",
"860 136 OFFCURVE",
"670 136 CURVE SMOOTH",
"358 136 LINE"
);
},
{
closed = 1;
nodes = (
"668 1122 LINE SMOOTH",
"826 1122 OFFCURVE",
"922 1044 OFFCURVE",
"922 914 CURVE SMOOTH",
"922 774 OFFCURVE",
"822 694 OFFCURVE",
"666 694 CURVE SMOOTH",
"358 694 LINE",
"358 1122 LINE"
);
}
);
width = 1243;
}
);
unicode = 0042;
},
{
glyphname = C;
lastChange = "2019-05-13 18:40:04 +0000";
layers = (
{
layerId = "B502AB2C-259B-4691-A7E9-F302DF43C341";
paths = (
{
closed = 1;
nodes = (
"980 -28 OFFCURVE",
"1176 138 OFFCURVE",
"1176 428 CURVE",
"924 428 LINE",
"924 288 OFFCURVE",
"826 188 OFFCURVE",
"658 188 CURVE SMOOTH",
"460 188 OFFCURVE",
"348 364 OFFCURVE",
"348 652 CURVE SMOOTH",
"348 958 OFFCURVE",
"484 1110 OFFCURVE",
"658 1110 CURVE SMOOTH",
"790 1110 OFFCURVE",
"882 1018 OFFCURVE",
"924 882 CURVE",
"1176 928 LINE",
"1128 1162 OFFCURVE",
"960 1324 OFFCURVE",
"658 1324 CURVE SMOOTH",
"330 1324 OFFCURVE",
"94 1092 OFFCURVE",
"94 652 CURVE SMOOTH",
"94 226 OFFCURVE",
"316 -28 OFFCURVE",
"658 -28 CURVE SMOOTH"
);
}
);
width = 1267;
},
{
layerId = "1A474BE3-B501-44F4-8DAE-2FAB2708ADF8";
paths = (
{
closed = 1;
nodes = (
"932 -24 OFFCURVE",
"1132 138 OFFCURVE",
"1132 408 CURVE",
"962 408 LINE",
"962 234 OFFCURVE",
"836 118 OFFCURVE",
"638 118 CURVE SMOOTH",
"390 118 OFFCURVE",
"270 336 OFFCURVE",
"270 636 CURVE SMOOTH",
"270 966 OFFCURVE",
"440 1138 OFFCURVE",
"638 1138 CURVE SMOOTH",
"790 1138 OFFCURVE",
"910 1038 OFFCURVE",
"962 882 CURVE",
"1130 916 LINE",
"1068 1130 OFFCURVE",
"906 1278 OFFCURVE",
"638 1278 CURVE SMOOTH",
"334 1278 OFFCURVE",
"102 1054 OFFCURVE",
"102 636 CURVE SMOOTH",
"102 244 OFFCURVE",
"306 -24 OFFCURVE",
"638 -24 CURVE SMOOTH"
);
}
);
width = 1226;
}
);
unicode = 0043;
},
{
glyphname = D;
lastChange = "2019-05-13 18:40:04 +0000";
layers = (
{
layerId = "B502AB2C-259B-4691-A7E9-F302DF43C341";
paths = (
{
closed = 1;
nodes = (
"186 0 LINE",
"606 0 LINE SMOOTH",
"1002 0 OFFCURVE",
"1268 254 OFFCURVE",
"1268 648 CURVE SMOOTH",
"1268 1046 OFFCURVE",
"1002 1298 OFFCURVE",
"606 1298 CURVE SMOOTH",
"186 1298 LINE"
);
},
{
closed = 1;
nodes = (
"606 1084 LINE SMOOTH",
"858 1084 OFFCURVE",
"1014 902 OFFCURVE",
"1014 648 CURVE SMOOTH",
"1014 398 OFFCURVE",
"858 212 OFFCURVE",
"606 212 CURVE SMOOTH",
"422 212 LINE",
"422 1084 LINE"
);
}
);
width = 1373;
},
{
layerId = "1A474BE3-B501-44F4-8DAE-2FAB2708ADF8";
paths = (
{
closed = 1;
nodes = (
"202 0 LINE",
"570 0 LINE SMOOTH",
"950 0 OFFCURVE",
"1194 250 OFFCURVE",
"1194 628 CURVE SMOOTH",
"1194 1010 OFFCURVE",
"950 1256 OFFCURVE",
"570 1256 CURVE SMOOTH",
"202 1256 LINE"
);
},
{
closed = 1;
nodes = (
"570 1118 LINE SMOOTH",
"854 1118 OFFCURVE",
"1028 912 OFFCURVE",
"1028 628 CURVE SMOOTH",
"1028 346 OFFCURVE",
"854 136 OFFCURVE",
"570 136 CURVE SMOOTH",
"358 136 LINE",
"358 1118 LINE"
);
}
);
width = 1320;
}
);
unicode = 0044;
},
{
glyphname = E;
lastChange = "2019-05-13 18:40:04 +0000";
layers = (
{
anchors = (
{
name = above;
position = "{600, 1324}";
}
);
layerId = "B502AB2C-259B-4691-A7E9-F302DF43C341";
paths = (
{
closed = 1;
nodes = (
"1018 0 LINE",
"1018 206 LINE",
"420 206 LINE",
"420 548 LINE",
"982 548 LINE",
"982 752 LINE",
"420 752 LINE",
"420 1094 LINE",
"1018 1094 LINE",
"1018 1298 LINE",
"184 1298 LINE",
"184 0 LINE"
);
}
);
width = 1173;
},
{
anchors = (
{
name = above;
position = "{588, 1270}";
}
);
layerId = "1A474BE3-B501-44F4-8DAE-2FAB2708ADF8";
paths = (
{
closed = 1;
nodes = (
"974 0 LINE",
"974 136 LINE",
"356 136 LINE",
"356 566 LINE",
"938 566 LINE",
"938 700 LINE",
"356 700 LINE",
"356 1122 LINE",
"974 1122 LINE",
"974 1256 LINE",
"200 1256 LINE",
"200 0 LINE"
);
}
);
width = 1124;
}
);
unicode = 0045;
},
{
glyphname = F;
lastChange = "2019-05-13 18:40:04 +0000";
layers = (
{
layerId = "B502AB2C-259B-4691-A7E9-F302DF43C341";
paths = (
{
closed = 1;
nodes = (
"422 0 LINE",
"422 550 LINE",
"954 550 LINE",
"954 752 LINE",
"422 752 LINE",
"422 1094 LINE",
"1004 1094 LINE",
"1004 1298 LINE",
"186 1298 LINE",
"186 0 LINE"
);
}
);
width = 1093;
},
{
layerId = "1A474BE3-B501-44F4-8DAE-2FAB2708ADF8";
paths = (
{
closed = 1;
nodes = (
"358 0 LINE",
"358 570 LINE",
"924 570 LINE",
"924 704 LINE",
"358 704 LINE",
"358 1122 LINE",
"966 1122 LINE",
"966 1256 LINE",
"202 1256 LINE",
"202 0 LINE"
);
}
);
width = 1048;
}
);
unicode = 0046;
},
{
glyphname = G;
lastChange = "2019-05-13 18:40:04 +0000";
layers = (
{
layerId = "B502AB2C-259B-4691-A7E9-F302DF43C341";
paths = (
{
closed = 1;
nodes = (
"914 -28 OFFCURVE",
"1026 178 OFFCURVE",
"1026 502 CURVE",
"974 502 LINE",
"974 304 OFFCURVE",
"848 188 OFFCURVE",
"680 188 CURVE SMOOTH",
"482 188 OFFCURVE",
"348 370 OFFCURVE",
"348 642 CURVE SMOOTH",
"348 932 OFFCURVE",
"504 1110 OFFCURVE",
"696 1110 CURVE SMOOTH",
"808 1110 OFFCURVE",
"896 1050 OFFCURVE",
"964 940 CURVE",
"1206 996 LINE",
"1114 1222 OFFCURVE",
"950 1324 OFFCURVE",
"708 1324 CURVE SMOOTH",
"358 1324 OFFCURVE",
"94 1066 OFFCURVE",
"94 642 CURVE SMOOTH",
"94 240 OFFCURVE",
"342 -28 OFFCURVE",
"660 -28 CURVE SMOOTH"
);
},
{
closed = 1;
nodes = (
"1200 0 LINE",
"1200 666 LINE",
"682 666 LINE",
"682 516 LINE",
"974 510 LINE",
"974 286 LINE",
"1008 0 LINE"
);
}
);
width = 1354;
},
{
layerId = "1A474BE3-B501-44F4-8DAE-2FAB2708ADF8";
paths = (
{
closed = 1;
nodes = (
"914 -24 OFFCURVE",
"1022 182 OFFCURVE",
"1022 502 CURVE",
"974 502 LINE",
"974 244 OFFCURVE",
"836 120 OFFCURVE",
"654 120 CURVE SMOOTH",
"416 120 OFFCURVE",
"268 326 OFFCURVE",
"268 614 CURVE SMOOTH",
"268 938 OFFCURVE",
"460 1136 OFFCURVE",
"686 1136 CURVE SMOOTH",
"800 1136 OFFCURVE",
"902 1084 OFFCURVE",
"992 974 CURVE",
"1140 1026 LINE",
"1034 1200 OFFCURVE",
"888 1278 OFFCURVE",
"692 1278 CURVE SMOOTH",
"374 1278 OFFCURVE",
"102 1048 OFFCURVE",
"102 614 CURVE SMOOTH",
"102 222 OFFCURVE",
"344 -24 OFFCURVE",
"644 -24 CURVE SMOOTH"
);
},
{
closed = 1;
nodes = (
"1126 0 LINE",
"1126 622 LINE",
"658 622 LINE",
"658 516 LINE",
"974 506 LINE",
"974 296 LINE",
"1002 0 LINE"
);
}
);
width = 1288;
}
);
unicode = 0047;
},
{
glyphname = H;
lastChange = "2019-05-13 18:40:04 +0000";
layers = (
{
layerId = "B502AB2C-259B-4691-A7E9-F302DF43C341";
paths = (
{
closed = 1;
nodes = (
"186 0 LINE",
"422 0 LINE",
"422 550 LINE",
"988 550 LINE",
"988 0 LINE",
"1224 0 LINE",
"1224 1298 LINE",
"988 1298 LINE",
"988 756 LINE",
"422 756 LINE",
"422 1298 LINE",
"186 1298 LINE"
);
}
);
width = 1411;
},
{
layerId = "1A474BE3-B501-44F4-8DAE-2FAB2708ADF8";
paths = (
{
closed = 1;
nodes = (
"202 0 LINE",
"358 0 LINE",
"358 568 LINE",
"980 568 LINE",
"980 0 LINE",
"1134 0 LINE",
"1134 1256 LINE",
"980 1256 LINE",
"980 702 LINE",
"358 702 LINE",
"358 1256 LINE",
"202 1256 LINE"
);
}
);
width = 1337;
}
);
unicode = 0048;
},
{
glyphname = I;
lastChange = "2019-05-13 18:40:04 +0000";
layers = (
{
anchors = (
{
name = above;
position = "{304, 1324}";
}
);
layerId = "B502AB2C-259B-4691-A7E9-F302DF43C341";
paths = (
{
closed = 1;
nodes = (
"422 0 LINE",
"422 1298 LINE",
"186 1298 LINE",
"186 0 LINE"
);
}
);
width = 609;
},
{
anchors = (
{
name = above;
position = "{280, 1270}";
}
);
layerId = "1A474BE3-B501-44F4-8DAE-2FAB2708ADF8";
paths = (
{
closed = 1;
nodes = (
"358 0 LINE",
"358 1256 LINE",
"202 1256 LINE",
"202 0 LINE"
);
}
);
width = 560;
}
);
unicode = 0049;
},
{
glyphname = J;
lastChange = "2019-05-13 18:40:04 +0000";
layers = (
{
layerId = "B502AB2C-259B-4691-A7E9-F302DF43C341";
paths = (
{
closed = 1;
nodes = (
"126 6 OFFCURVE",
"232 -28 OFFCURVE",
"350 -28 CURVE SMOOTH",
"574 -28 OFFCURVE",
"732 90 OFFCURVE",
"732 404 CURVE SMOOTH",
"732 1298 LINE",
"494 1298 LINE",
"494 404 LINE SMOOTH",
"494 268 OFFCURVE",
"444 202 OFFCURVE",
"330 202 CURVE SMOOTH",
"242 202 OFFCURVE",
"138 228 OFFCURVE",
"32 290 CURVE",
"32 54 LINE"
);
}
);
width = 887;
},
{
layerId = "1A474BE3-B501-44F4-8DAE-2FAB2708ADF8";
paths = (
{
closed = 1;
nodes = (
"104 12 OFFCURVE",
"198 -24 OFFCURVE",
"306 -24 CURVE SMOOTH",
"514 -24 OFFCURVE",
"646 90 OFFCURVE",
"646 364 CURVE SMOOTH",
"646 1256 LINE",
"490 1256 LINE",
"490 364 LINE SMOOTH",
"490 214 OFFCURVE",
"436 128 OFFCURVE",
"296 128 CURVE SMOOTH",
"206 128 OFFCURVE",
"110 162 OFFCURVE",
"16 224 CURVE",
"16 62 LINE"
);
}
);
width = 807;
}
);
unicode = 004A;
},
{
glyphname = K;
lastChange = "2019-05-13 18:40:04 +0000";
layers = (
{
layerId = "B502AB2C-259B-4691-A7E9-F302DF43C341";
paths = (
{
closed = 1;
nodes = (
"404 744 LINE",
"404 422 LINE",
"1260 1298 LINE",
"936 1298 LINE"
);
},
{
closed = 1;
nodes = (
"484 608 LINE",
"992 0 LINE",
"1296 0 LINE",
"648 762 LINE"
);
},
{
closed = 1;
nodes = (
"186 0 LINE",
"424 0 LINE",
"424 1298 LINE",
"186 1298 LINE"
);
}
);
width = 1308;
},
{
layerId = "1A474BE3-B501-44F4-8DAE-2FAB2708ADF8";
paths = (
{
closed = 1;
nodes = (
"338 650 LINE",
"338 430 LINE",
"1140 1256 LINE",
"924 1256 LINE"
);
},
{
closed = 1;
nodes = (
"452 624 LINE",
"970 0 LINE",
"1174 0 LINE",
"564 726 LINE"
);
},
{
closed = 1;
nodes = (
"202 0 LINE",
"360 0 LINE",
"360 1256 LINE",
"202 1256 LINE"
);
}
);
width = 1215;
}
);
unicode = 004B;
},
{
glyphname = L;
lastChange = "2019-05-13 18:40:04 +0000";
layers = (
{
layerId = "B502AB2C-259B-4691-A7E9-F302DF43C341";
paths = (
{
closed = 1;
nodes = (
"186 1298 LINE",
"186 0 LINE",
"956 0 LINE",
"956 206 LINE",
"422 206 LINE",
"422 1298 LINE"
);
}
);
width = 988;
},
{
layerId = "1A474BE3-B501-44F4-8DAE-2FAB2708ADF8";
paths = (
{
closed = 1;
nodes = (
"202 1256 LINE",
"202 0 LINE",
"918 0 LINE",
"918 136 LINE",
"358 136 LINE",
"358 1256 LINE"
);
}
);
width = 935;
}
);
unicode = 004C;
},
{
glyphname = M;
lastChange = "2019-05-13 18:40:04 +0000";
layers = (
{
layerId = "B502AB2C-259B-4691-A7E9-F302DF43C341";
paths = (
{
closed = 1;
nodes = (
"186 0 LINE",
"422 0 LINE",
"422 1022 LINE",
"400 1022 LINE",
"802 142 LINE",
"956 142 LINE",
"1360 1026 LINE",
"1324 1026 LINE",
"1324 0 LINE",
"1562 0 LINE",
"1562 1298 LINE",
"1236 1298 LINE",
"870 504 LINE",
"890 504 LINE",
"524 1298 LINE",
"186 1298 LINE"
);
}
);
width = 1749;
},
{
layerId = "1A474BE3-B501-44F4-8DAE-2FAB2708ADF8";
paths = (
{
closed = 1;
nodes = (
"202 0 LINE",
"358 0 LINE",
"358 1088 LINE",
"340 1088 LINE",
"798 158 LINE",
"902 158 LINE",
"1362 1094 LINE",
"1334 1094 LINE",
"1334 0 LINE",
"1492 0 LINE",
"1492 1256 LINE",
"1274 1256 LINE",
"842 388 LINE",
"858 388 LINE",
"426 1256 LINE",
"202 1256 LINE"
);
}
);
width = 1694;
}
);
unicode = 004D;
},
{
glyphname = N;
lastChange = "2019-05-13 18:40:04 +0000";
layers = (
{
anchors = (
{
name = above;
position = "{714, 1324}";
}
);
layerId = "B502AB2C-259B-4691-A7E9-F302DF43C341";
paths = (
{
closed = 1;
nodes = (
"182 0 LINE",
"418 0 LINE",
"418 982 LINE",
"380 982 LINE",
"1008 0 LINE",
"1248 0 LINE",
"1248 1298 LINE",
"1012 1298 LINE",
"1012 372 LINE",
"1030 372 LINE",
"440 1298 LINE",
"182 1298 LINE"
);
}
);
width = 1434;
},
{
anchors = (
{
name = above;
position = "{682, 1270}";
}
);
layerId = "1A474BE3-B501-44F4-8DAE-2FAB2708ADF8";
paths = (
{
closed = 1;
nodes = (
"200 0 LINE",
"356 0 LINE",
"356 1068 LINE",
"332 1068 LINE",
"992 0 LINE",
"1166 0 LINE",
"1166 1256 LINE",
"1010 1256 LINE",
"1010 222 LINE",
"1024 222 LINE",
"386 1256 LINE",
"200 1256 LINE"
);
}
);
width = 1368;
}
);
unicode = 004E;
},
{
glyphname = O;
lastChange = "2019-05-13 18:40:04 +0000";
layers = (
{
anchors = (
{
name = above;
position = "{682, 1324}";
}
);
layerId = "B502AB2C-259B-4691-A7E9-F302DF43C341";
paths = (
{
closed = 1;
nodes = (
"1030 -28 OFFCURVE",
"1272 196 OFFCURVE",
"1272 650 CURVE SMOOTH",
"1272 1096 OFFCURVE",
"1030 1324 OFFCURVE",
"682 1324 CURVE SMOOTH",
"336 1324 OFFCURVE",
"94 1106 OFFCURVE",
"94 650 CURVE SMOOTH",
"94 202 OFFCURVE",
"336 -28 OFFCURVE",
"682 -28 CURVE SMOOTH"
);
},
{
closed = 1;
nodes = (
"474 186 OFFCURVE",
"338 350 OFFCURVE",
"338 650 CURVE SMOOTH",
"338 942 OFFCURVE",
"474 1112 OFFCURVE",
"682 1112 CURVE SMOOTH",
"894 1112 OFFCURVE",
"1028 942 OFFCURVE",
"1028 652 CURVE SMOOTH",
"1028 350 OFFCURVE",
"894 186 OFFCURVE",
"682 186 CURVE SMOOTH"
);
}
);
width = 1365;
},
{
anchors = (
{
name = above;
position = "{646, 1270}";
}
);
layerId = "1A474BE3-B501-44F4-8DAE-2FAB2708ADF8";
paths = (
{
closed = 1;
nodes = (
"958 -24 OFFCURVE",
"1190 188 OFFCURVE",
"1190 626 CURVE SMOOTH",
"1190 1062 OFFCURVE",
"958 1278 OFFCURVE",
"646 1278 CURVE SMOOTH",
"334 1278 OFFCURVE",
"102 1066 OFFCURVE",
"102 626 CURVE SMOOTH",
"102 192 OFFCURVE",
"334 -24 OFFCURVE",
"646 -24 CURVE SMOOTH"
);
},
{
closed = 1;
nodes = (
"412 120 OFFCURVE",
"264 294 OFFCURVE",
"264 626 CURVE SMOOTH",
"264 954 OFFCURVE",
"412 1138 OFFCURVE",
"646 1138 CURVE SMOOTH",
"882 1138 OFFCURVE",
"1028 954 OFFCURVE",
"1028 628 CURVE SMOOTH",
"1028 294 OFFCURVE",
"882 120 OFFCURVE",
"646 120 CURVE SMOOTH"
);
}
);
width = 1291;
}
);
unicode = 004F;
},
{
glyphname = P;
lastChange = "2019-05-13 18:40:04 +0000";
layers = (
{
layerId = "B502AB2C-259B-4691-A7E9-F302DF43C341";
paths = (
{
closed = 1;
nodes = (
"418 0 LINE",
"418 472 LINE",
"638 472 LINE SMOOTH",
"930 472 OFFCURVE",
"1102 622 OFFCURVE",
"1102 884 CURVE SMOOTH",
"1102 1148 OFFCURVE",
"930 1298 OFFCURVE",
"638 1298 CURVE SMOOTH",
"180 1298 LINE",
"180 0 LINE"
);
},
{
closed = 1;
nodes = (
"418 1094 LINE",
"638 1094 LINE SMOOTH",
"784 1094 OFFCURVE",
"860 1006 OFFCURVE",
"860 884 CURVE SMOOTH",
"860 764 OFFCURVE",
"784 678 OFFCURVE",
"638 678 CURVE SMOOTH",
"418 678 LINE"
);
}
);
width = 1161;
},
{
layerId = "1A474BE3-B501-44F4-8DAE-2FAB2708ADF8";
paths = (
{
closed = 1;
nodes = (
"356 0 LINE",
"356 484 LINE",
"602 484 LINE SMOOTH",
"878 484 OFFCURVE",
"1028 632 OFFCURVE",
"1028 868 CURVE SMOOTH",
"1028 1106 OFFCURVE",
"878 1256 OFFCURVE",
"602 1256 CURVE SMOOTH",
"198 1256 LINE",
"198 0 LINE"
);
},
{
closed = 1;
nodes = (
"356 1122 LINE",
"602 1122 LINE SMOOTH",
"776 1122 OFFCURVE",
"868 1022 OFFCURVE",
"868 868 CURVE SMOOTH",
"868 716 OFFCURVE",
"776 620 OFFCURVE",
"602 620 CURVE SMOOTH",
"356 620 LINE"
);
}
);
width = 1107;
}
);
unicode = 0050;
},
{
glyphname = Q;
lastChange = "2019-05-13 18:40:04 +0000";
layers = (
{
layerId = "B502AB2C-259B-4691-A7E9-F302DF43C341";
paths = (
{
closed = 1;
nodes = (
"1030 -28 OFFCURVE",
"1272 196 OFFCURVE",
"1272 650 CURVE SMOOTH",
"1272 1096 OFFCURVE",
"1030 1324 OFFCURVE",
"682 1324 CURVE SMOOTH",
"336 1324 OFFCURVE",
"94 1106 OFFCURVE",
"94 650 CURVE SMOOTH",
"94 202 OFFCURVE",
"336 -28 OFFCURVE",
"682 -28 CURVE SMOOTH"
);
},
{
closed = 1;
nodes = (
"1138 -360 OFFCURVE",
"1194 -350 OFFCURVE",
"1256 -324 CURVE",
"1256 -80 LINE",
"1188 -108 OFFCURVE",
"1128 -126 OFFCURVE",
"1062 -126 CURVE SMOOTH",
"1010 -124 OFFCURVE",
"958 -104 OFFCURVE",
"920 -48 CURVE SMOOTH",
"804 132 LINE",
"616 44 LINE",
"750 -158 LINE SMOOTH",
"834 -286 OFFCURVE",
"948 -360 OFFCURVE",
"1080 -360 CURVE SMOOTH"
);
},
{
closed = 1;
nodes = (
"474 186 OFFCURVE",
"338 350 OFFCURVE",
"338 650 CURVE SMOOTH",
"338 942 OFFCURVE",
"474 1112 OFFCURVE",
"682 1112 CURVE SMOOTH",
"894 1112 OFFCURVE",
"1028 942 OFFCURVE",
"1028 652 CURVE SMOOTH",
"1028 350 OFFCURVE",
"894 186 OFFCURVE",
"682 186 CURVE SMOOTH"
);
}
);
width = 1372;
},
{
layerId = "1A474BE3-B501-44F4-8DAE-2FAB2708ADF8";
paths = (
{
closed = 1;
nodes = (
"958 -24 OFFCURVE",
"1190 188 OFFCURVE",
"1190 626 CURVE SMOOTH",
"1190 1062 OFFCURVE",
"958 1278 OFFCURVE",
"646 1278 CURVE SMOOTH",
"334 1278 OFFCURVE",
"102 1066 OFFCURVE",
"102 626 CURVE SMOOTH",
"102 192 OFFCURVE",
"334 -24 OFFCURVE",
"646 -24 CURVE SMOOTH"
);
},
{
closed = 1;
nodes = (
"1076 -334 OFFCURVE",
"1130 -322 OFFCURVE",
"1190 -296 CURVE",
"1190 -124 LINE",
"1122 -156 OFFCURVE",
"1066 -176 OFFCURVE",
"996 -176 CURVE SMOOTH",
"950 -174 OFFCURVE",
"902 -152 OFFCURVE",
"858 -92 CURVE SMOOTH",
"742 74 LINE",
"602 30 LINE",
"732 -156 LINE SMOOTH",
"812 -272 OFFCURVE",
"904 -334 OFFCURVE",
"1022 -334 CURVE SMOOTH"
);
},
{
closed = 1;
nodes = (
"412 120 OFFCURVE",
"264 294 OFFCURVE",
"264 626 CURVE SMOOTH",
"264 954 OFFCURVE",
"412 1138 OFFCURVE",
"646 1138 CURVE SMOOTH",
"882 1138 OFFCURVE",
"1028 954 OFFCURVE",
"1028 628 CURVE SMOOTH",
"1028 294 OFFCURVE",
"882 120 OFFCURVE",
"646 120 CURVE SMOOTH"
);
}
);
width = 1303;
}
);
unicode = 0051;
},
{
glyphname = R;
lastChange = "2019-05-13 18:40:04 +0000";
layers = (
{
layerId = "B502AB2C-259B-4691-A7E9-F302DF43C341";
paths = (
{
closed = 1;
nodes = (
"422 0 LINE",
"422 506 LINE",
"666 506 LINE SMOOTH",
"976 506 OFFCURVE",
"1148 664 OFFCURVE",
"1148 900 CURVE SMOOTH",
"1148 1140 OFFCURVE",
"976 1298 OFFCURVE",
"666 1298 CURVE SMOOTH",
"186 1298 LINE",
"186 0 LINE"
);
},
{
closed = 1;
nodes = (
"1196 0 LINE",
"796 608 LINE",
"544 608 LINE",
"888 0 LINE"
);
},
{
closed = 1;
nodes = (
"422 1094 LINE",
"666 1094 LINE SMOOTH",
"824 1094 OFFCURVE",
"906 1008 OFFCURVE",
"906 878 CURVE SMOOTH",
"906 752 OFFCURVE",
"816 664 OFFCURVE",
"642 664 CURVE SMOOTH",
"422 664 LINE"
);
}
);
width = 1287;
},
{
layerId = "1A474BE3-B501-44F4-8DAE-2FAB2708ADF8";
paths = (
{
closed = 1;
nodes = (
"358 0 LINE",
"358 514 LINE",
"640 514 LINE SMOOTH",
"926 514 OFFCURVE",
"1076 664 OFFCURVE",
"1076 884 CURVE SMOOTH",
"1076 1106 OFFCURVE",
"926 1256 OFFCURVE",
"640 1256 CURVE SMOOTH",
"202 1256 LINE",
"202 0 LINE"
);
},
{
closed = 1;
nodes = (
"1108 0 LINE",
"716 570 LINE",
"546 570 LINE",
"906 0 LINE"
);
},
{
closed = 1;
nodes = (
"358 1122 LINE",
"640 1122 LINE SMOOTH",
"820 1122 OFFCURVE",
"916 1026 OFFCURVE",
"916 874 CURVE SMOOTH",
"916 726 OFFCURVE",
"816 624 OFFCURVE",
"628 624 CURVE SMOOTH",
"358 624 LINE"
);
}
);
width = 1225;
}
);
unicode = 0052;
},
{
glyphname = S;
lastChange = "2019-05-13 18:40:04 +0000";
layers = (
{
layerId = "B502AB2C-259B-4691-A7E9-F302DF43C341";
paths = (
{
closed = 1;
nodes = (
"962 -28 OFFCURVE",
"1144 120 OFFCURVE",
"1144 354 CURVE SMOOTH",
"1144 524 OFFCURVE",
"1038 634 OFFCURVE",
"846 708 CURVE SMOOTH",
"562 818 LINE SMOOTH",
"460 856 OFFCURVE",
"412 892 OFFCURVE",
"412 964 CURVE SMOOTH",
"412 1048 OFFCURVE",
"494 1110 OFFCURVE",
"628 1110 CURVE SMOOTH",
"778 1110 OFFCURVE",
"850 1042 OFFCURVE",
"868 940 CURVE",
"1100 940 LINE",
"1078 1180 OFFCURVE",
"918 1324 OFFCURVE",
"628 1324 CURVE SMOOTH",
"330 1324 OFFCURVE",
"154 1180 OFFCURVE",
"154 970 CURVE SMOOTH",
"154 786 OFFCURVE",
"264 696 OFFCURVE",
"464 618 CURVE SMOOTH",
"720 516 LINE SMOOTH",
"836 474 OFFCURVE",
"886 432 OFFCURVE",
"886 346 CURVE SMOOTH",
"886 248 OFFCURVE",
"780 188 OFFCURVE",
"636 188 CURVE SMOOTH",
"486 188 OFFCURVE",
"362 256 OFFCURVE",
"362 406 CURVE",
"130 406 LINE",
"140 110 OFFCURVE",
"368 -28 OFFCURVE",
"638 -28 CURVE SMOOTH"
);
}
);
width = 1275;
},
{
layerId = "1A474BE3-B501-44F4-8DAE-2FAB2708ADF8";
paths = (
{
closed = 1;
nodes = (
"906 -24 OFFCURVE",
"1070 134 OFFCURVE",
"1070 334 CURVE SMOOTH",
"1070 506 OFFCURVE",
"958 610 OFFCURVE",
"778 670 CURVE SMOOTH",
"518 760 LINE SMOOTH",
"394 802 OFFCURVE",
"338 850 OFFCURVE",
"338 942 CURVE SMOOTH",
"338 1054 OFFCURVE",
"434 1136 OFFCURVE",
"600 1136 CURVE SMOOTH",
"762 1136 OFFCURVE",
"850 1068 OFFCURVE",
"870 952 CURVE",
"1024 952 LINE",
"1002 1150 OFFCURVE",
"856 1278 OFFCURVE",
"600 1278 CURVE SMOOTH",
"324 1278 OFFCURVE",
"168 1142 OFFCURVE",
"168 948 CURVE SMOOTH",
"168 774 OFFCURVE",
"276 692 OFFCURVE",
"484 618 CURVE SMOOTH",
"706 540 LINE SMOOTH",
"834 498 OFFCURVE",
"900 436 OFFCURVE",
"900 330 CURVE SMOOTH",
"900 216 OFFCURVE",
"784 120 OFFCURVE",
"602 120 CURVE SMOOTH",
"434 120 OFFCURVE",
"290 200 OFFCURVE",
"290 376 CURVE",
"138 376 LINE",
"142 114 OFFCURVE",
"352 -24 OFFCURVE",
"604 -24 CURVE SMOOTH"
);
}
);
width = 1209;
}
);
unicode = 0053;
},
{
glyphname = T;
lastChange = "2019-05-13 18:40:04 +0000";
layers = (
{
layerId = "B502AB2C-259B-4691-A7E9-F302DF43C341";
paths = (
{
closed = 1;
nodes = (
"414 1094 LINE",
"414 0 LINE",
"650 0 LINE",
"650 1094 LINE",
"1052 1094 LINE",
"1052 1298 LINE",
"12 1298 LINE",
"12 1094 LINE"
);
}
);
width = 1063;
},
{
layerId = "1A474BE3-B501-44F4-8DAE-2FAB2708ADF8";
paths = (
{
closed = 1;
nodes = (
"422 1122 LINE",
"422 0 LINE",
"578 0 LINE",
"578 1122 LINE",
"990 1122 LINE",
"990 1256 LINE",
"12 1256 LINE",
"12 1122 LINE"
);
}
);
width = 1001;
}
);
unicode = 0054;
},
{
glyphname = U;
lastChange = "2019-05-13 18:40:04 +0000";
layers = (
{
anchors = (
{
name = above;
position = "{692, 1324}";
}
);
layerId = "B502AB2C-259B-4691-A7E9-F302DF43C341";
paths = (
{
closed = 1;
nodes = (
"166 490 LINE SMOOTH",
"166 162 OFFCURVE",
"362 -28 OFFCURVE",
"692 -28 CURVE SMOOTH",
"1022 -28 OFFCURVE",
"1218 162 OFFCURVE",
"1218 490 CURVE SMOOTH",
"1218 1298 LINE",
"982 1298 LINE",
"982 490 LINE SMOOTH",
"982 276 OFFCURVE",
"862 188 OFFCURVE",
"692 188 CURVE SMOOTH",
"522 188 OFFCURVE",
"402 276 OFFCURVE",
"402 490 CURVE SMOOTH",
"402 1298 LINE",
"166 1298 LINE"
);
}
);
width = 1380;
},
{
anchors = (
{
name = above;
position = "{652, 1270}";
}
);
layerId = "1A474BE3-B501-44F4-8DAE-2FAB2708ADF8";
paths = (
{
closed = 1;
nodes = (
"174 454 LINE SMOOTH",
"174 138 OFFCURVE",
"362 -24 OFFCURVE",
"652 -24 CURVE SMOOTH",
"942 -24 OFFCURVE",
"1128 138 OFFCURVE",
"1128 454 CURVE SMOOTH",
"1128 1256 LINE",
"972 1256 LINE",
"972 454 LINE SMOOTH",
"972 218 OFFCURVE",
"842 120 OFFCURVE",
"652 120 CURVE SMOOTH",
"460 120 OFFCURVE",
"330 218 OFFCURVE",
"330 454 CURVE SMOOTH",
"330 1256 LINE",
"174 1256 LINE"
);
}
);
width = 1306;
}
);
unicode = 0055;
},
{
glyphname = V;
lastChange = "2019-05-13 18:40:04 +0000";
layers = (
{
layerId = "B502AB2C-259B-4691-A7E9-F302DF43C341";
paths = (
{
closed = 1;
nodes = (
"614 258 LINE",
"286 1298 LINE",
"36 1298 LINE",
"476 0 LINE",
"724 0 LINE",
"1170 1298 LINE",
"922 1298 LINE",
"590 258 LINE"
);
}
);
width = 1205;
},
{
layerId = "1A474BE3-B501-44F4-8DAE-2FAB2708ADF8";
paths = (
{
closed = 1;
nodes = (
"572 166 LINE",
"202 1256 LINE",
"36 1256 LINE",
"480 0 LINE",
"642 0 LINE",
"1090 1256 LINE",
"924 1256 LINE",
"552 166 LINE"
);
}
);
width = 1125;
}
);
unicode = 0056;
},
{
glyphname = W;
lastChange = "2019-05-13 18:40:04 +0000";
layers = (
{
layerId = "B502AB2C-259B-4691-A7E9-F302DF43C341";
paths = (
{
closed = 1;
nodes = (
"444 0 LINE",
"692 0 LINE",
"946 766 LINE",
"924 766 LINE",
"1178 0 LINE",
"1426 0 LINE",
"1872 1298 LINE",
"1606 1298 LINE",
"1276 224 LINE",
"1330 224 LINE",
"1008 1212 LINE",
"848 1212 LINE",
"538 208 LINE",
"598 208 LINE",
"284 1298 LINE",
"20 1298 LINE"
);
}
);
width = 1893;
},
{
layerId = "1A474BE3-B501-44F4-8DAE-2FAB2708ADF8";
paths = (
{
closed = 1;
nodes = (
"426 0 LINE",
"590 0 LINE",
"890 852 LINE",
"860 852 LINE",
"1150 0 LINE",
"1314 0 LINE",
"1758 1256 LINE",
"1584 1256 LINE",
"1210 146 LINE",
"1254 146 LINE",
"924 1126 LINE",
"818 1126 LINE",
"484 138 LINE",
"530 138 LINE",
"204 1256 LINE",
"28 1256 LINE"
);
}
);
width = 1788;
}
);
unicode = 0057;
},
{
glyphname = X;
lastChange = "2019-05-13 18:40:04 +0000";
layers = (
{
layerId = "B502AB2C-259B-4691-A7E9-F302DF43C341";
paths = (
{
closed = 1;
nodes = (
"354 0 LINE",
"660 462 LINE",
"1002 0 LINE",
"1298 0 LINE",
"816 650 LINE",
"1254 1298 LINE",
"968 1298 LINE",
"684 830 LINE",
"356 1298 LINE",
"66 1298 LINE",
"526 646 LINE",
"68 0 LINE"
);
}
);
width = 1367;
},
{
layerId = "1A474BE3-B501-44F4-8DAE-2FAB2708ADF8";
paths = (
{
closed = 1;
nodes = (
"286 0 LINE",
"626 502 LINE",
"990 0 LINE",
"1182 0 LINE",
"730 626 LINE",
"1166 1256 LINE",
"976 1256 LINE",
"644 744 LINE",
"282 1256 LINE",
"94 1256 LINE",
"540 624 LINE",
"98 0 LINE"
);
}
);
width = 1283;
}
);
unicode = 0058;
},
{
glyphname = Y;
lastChange = "2019-05-13 18:40:04 +0000";
layers = (
{
layerId = "B502AB2C-259B-4691-A7E9-F302DF43C341";
paths = (
{
closed = 1;
nodes = (
"460 536 LINE",
"460 0 LINE",
"696 0 LINE",
"696 536 LINE",
"1158 1298 LINE",
"880 1298 LINE",
"558 740 LINE",
"604 740 LINE",
"294 1298 LINE",
"14 1298 LINE"
);
}
);
width = 1173;
},
{
layerId = "1A474BE3-B501-44F4-8DAE-2FAB2708ADF8";
paths = (
{
closed = 1;
nodes = (
"466 516 LINE",
"466 0 LINE",
"624 0 LINE",
"624 516 LINE",
"1078 1256 LINE",
"892 1256 LINE",
"526 646 LINE",
"566 646 LINE",
"206 1256 LINE",
"18 1256 LINE"
);
}
);
width = 1097;
}
);
unicode = 0059;
},
{
glyphname = Z;
lastChange = "2019-05-13 18:40:04 +0000";
layers = (
{
layerId = "B502AB2C-259B-4691-A7E9-F302DF43C341";
paths = (
{
closed = 1;
nodes = (
"1128 0 LINE",
"1128 216 LINE",
"414 218 LINE",
"420 188 LINE",
"1128 1096 LINE",
"1128 1298 LINE",
"146 1298 LINE",
"146 1082 LINE",
"900 1080 LINE",
"900 1166 LINE",
"146 204 LINE",
"146 0 LINE"
);
}
);
width = 1257;
},
{
layerId = "1A474BE3-B501-44F4-8DAE-2FAB2708ADF8";
paths = (
{
closed = 1;
nodes = (
"1068 0 LINE",
"1068 142 LINE",
"310 148 LINE",
"322 122 LINE",
"1068 1116 LINE",
"1068 1256 LINE",
"146 1256 LINE",
"146 1114 LINE",
"916 1108 LINE",
"916 1166 LINE",
"146 140 LINE",
"146 0 LINE"
);
}
);
width = 1183;
}
);
unicode = 005A;
},
{
glyphname = quotesingle;
lastChange = "2019-05-13 18:40:04 +0000";
layers = (
{
layerId = "B502AB2C-259B-4691-A7E9-F302DF43C341";
paths = (
{
closed = 1;
nodes = (
"92 878 LINE",
"266 878 LINE",
"298 1354 LINE",
"62 1354 LINE"
);
}
);
width = 359;
},
{
layerId = "1A474BE3-B501-44F4-8DAE-2FAB2708ADF8";
paths = (
{
closed = 1;
nodes = (
"76 914 LINE",
"194 914 LINE",
"216 1354 LINE",
"56 1354 LINE"
);
}
);
width = 271;
}
);
unicode = 0027;
},
{
glyphname = quoteleft;
lastChange = "2019-05-13 18:40:04 +0000";
layers = (
{
layerId = "B502AB2C-259B-4691-A7E9-F302DF43C341";
paths = (
{
closed = 1;
nodes = (
"356 758 OFFCURVE",
"424 822 OFFCURVE",
"424 904 CURVE SMOOTH",
"424 978 OFFCURVE",
"364 1026 OFFCURVE",
"288 1038 CURVE",
"314 1114 OFFCURVE",
"386 1170 OFFCURVE",
"474 1212 CURVE",
"310 1304 LINE",
"168 1232 OFFCURVE",
"72 1100 OFFCURVE",
"72 974 CURVE SMOOTH",
"72 854 OFFCURVE",
"146 758 OFFCURVE",
"262 758 CURVE SMOOTH"
);
}
);
width = 542;
},
{
layerId = "1A474BE3-B501-44F4-8DAE-2FAB2708ADF8";
paths = (
{
closed = 1;
nodes = (
"276 838 OFFCURVE",
"322 886 OFFCURVE",
"322 944 CURVE SMOOTH",
"322 1000 OFFCURVE",
"278 1034 OFFCURVE",
"216 1040 CURVE",
"234 1106 OFFCURVE",
"290 1154 OFFCURVE",
"366 1192 CURVE",
"254 1252 LINE",
"138 1192 OFFCURVE",
"72 1090 OFFCURVE",
"72 996 CURVE SMOOTH",
"72 906 OFFCURVE",
"128 838 OFFCURVE",
"210 838 CURVE SMOOTH"
);
}
);
width = 425;
}
);
unicode = 2018;
},
{
glyphname = quoteright;
lastChange = "2019-05-13 18:40:04 +0000";
layers = (
{
layerId = "B502AB2C-259B-4691-A7E9-F302DF43C341";
paths = (
{
closed = 1;
nodes = (
"362 832 OFFCURVE",
"458 960 OFFCURVE",
"458 1088 CURVE SMOOTH",
"458 1208 OFFCURVE",
"386 1304 OFFCURVE",
"272 1304 CURVE SMOOTH",
"176 1304 OFFCURVE",
"108 1242 OFFCURVE",
"108 1160 CURVE SMOOTH",
"108 1084 OFFCURVE",
"166 1036 OFFCURVE",
"244 1024 CURVE",
"220 950 OFFCURVE",
"146 892 OFFCURVE",
"58 850 CURVE",
"222 758 LINE"
);
}
);
width = 542;
},
{
layerId = "1A474BE3-B501-44F4-8DAE-2FAB2708ADF8";
paths = (
{
closed = 1;
nodes = (
"256 900 OFFCURVE",
"322 1000 OFFCURVE",
"322 1094 CURVE SMOOTH",
"322 1184 OFFCURVE",
"268 1252 OFFCURVE",
"188 1252 CURVE SMOOTH",
"118 1252 OFFCURVE",
"72 1206 OFFCURVE",
"72 1148 CURVE SMOOTH",
"72 1090 OFFCURVE",
"118 1054 OFFCURVE",
"178 1048 CURVE",
"162 984 OFFCURVE",
"106 936 OFFCURVE",
"30 898 CURVE",
"142 838 LINE"
);
}
);
width = 425;
}
);
unicode = 2019;
},
{
glyphname = parenleft;
lastChange = "2019-05-13 18:40:04 +0000";
layers = (
{
layerId = "B502AB2C-259B-4691-A7E9-F302DF43C341";
paths = (
{
closed = 1;
nodes = (
"278 1256 OFFCURVE",
"146 962 OFFCURVE",
"146 636 CURVE SMOOTH",
"146 312 OFFCURVE",
"278 18 OFFCURVE",
"564 -236 CURVE",
"734 -108 LINE",
"504 130 OFFCURVE",
"390 364 OFFCURVE",
"390 636 CURVE SMOOTH",
"390 910 OFFCURVE",
"504 1144 OFFCURVE",
"734 1384 CURVE",
"564 1508 LINE"
);
}
);
width = 799;
},
{
layerId = "1A474BE3-B501-44F4-8DAE-2FAB2708ADF8";
paths = (
{
closed = 1;
nodes = (
"282 1218 OFFCURVE",
"146 922 OFFCURVE",
"146 614 CURVE SMOOTH",
"146 308 OFFCURVE",
"282 10 OFFCURVE",
"542 -228 CURVE",
"654 -146 LINE",
"426 84 OFFCURVE",
"310 344 OFFCURVE",
"310 614 CURVE SMOOTH",
"310 884 OFFCURVE",
"426 1144 OFFCURVE",
"654 1376 CURVE",
"542 1454 LINE"
);
}
);
width = 711;
}
);
unicode = 0028;
},
{
glyphname = parenright;
lastChange = "2019-05-13 18:40:05 +0000";
layers = (
{
layerId = "B502AB2C-259B-4691-A7E9-F302DF43C341";
paths = (
{
closed = 1;
nodes = (
"520 18 OFFCURVE",
"654 312 OFFCURVE",
"654 636 CURVE SMOOTH",
"654 962 OFFCURVE",
"520 1256 OFFCURVE",
"236 1508 CURVE",
"64 1384 LINE",
"294 1144 OFFCURVE",
"410 910 OFFCURVE",
"410 636 CURVE SMOOTH",
"410 364 OFFCURVE",
"294 130 OFFCURVE",
"64 -108 CURVE",
"236 -236 LINE"
);
}
);
width = 799;
},
{
layerId = "1A474BE3-B501-44F4-8DAE-2FAB2708ADF8";
paths = (
{
closed = 1;
nodes = (
"428 10 OFFCURVE",
"566 308 OFFCURVE",
"566 614 CURVE SMOOTH",
"566 922 OFFCURVE",
"428 1218 OFFCURVE",
"170 1454 CURVE",
"56 1376 LINE",
"284 1144 OFFCURVE",
"402 884 OFFCURVE",
"402 614 CURVE SMOOTH",
"402 344 OFFCURVE",
"284 84 OFFCURVE",
"56 -146 CURVE",
"170 -228 LINE"
);
}
);
width = 711;
}
);
unicode = 0029;
},
{
glyphname = plus;
lastChange = "2019-05-13 18:40:05 +0000";
layers = (
{
layerId = "B502AB2C-259B-4691-A7E9-F302DF43C341";
paths = (
{
closed = 1;
nodes = (
"426 594 LINE",
"36 594 LINE",
"36 388 LINE",
"426 388 LINE",
"426 0 LINE",
"662 0 LINE",
"662 388 LINE",
"1052 388 LINE",
"1052 594 LINE",
"662 594 LINE",
"662 982 LINE",
"426 982 LINE"
);
}
);
width = 1087;
},
{
layerId = "1A474BE3-B501-44F4-8DAE-2FAB2708ADF8";
paths = (
{
closed = 1;
nodes = (
"450 558 LINE",
"36 558 LINE",
"36 424 LINE",
"450 424 LINE",
"450 0 LINE",
"604 0 LINE",
"604 424 LINE",
"1018 424 LINE",
"1018 558 LINE",
"604 558 LINE",
"604 982 LINE",
"450 982 LINE"
);
}
);
width = 1054;
}
);
unicode = 002B;
},
{
glyphname = minus;
lastChange = "2019-05-13 18:40:05 +0000";
layers = (
{
layerId = "B502AB2C-259B-4691-A7E9-F302DF43C341";
paths = (
{
closed = 1;
nodes = (
"36 390 LINE",
"1052 390 LINE",
"1052 596 LINE",
"36 596 LINE"
);
}
);
width = 1087;
},
{
layerId = "1A474BE3-B501-44F4-8DAE-2FAB2708ADF8";
paths = (
{
closed = 1;
nodes = (
"36 428 LINE",
"1018 428 LINE",
"1018 562 LINE",
"36 562 LINE"
);
}
);
width = 1054;
}
);
unicode = 2212;
},
{
glyphname = equal;
lastChange = "2019-05-13 18:40:05 +0000";
layers = (
{
layerId = "B502AB2C-259B-4691-A7E9-F302DF43C341";
paths = (
{
closed = 1;
nodes = (
"158 192 LINE",
"854 192 LINE",
"854 396 LINE",
"158 396 LINE"
);
},
{
closed = 1;
nodes = (
"158 612 LINE",
"854 612 LINE",
"854 816 LINE",
"158 816 LINE"
);
}
);
width = 1012;
},
{
layerId = "1A474BE3-B501-44F4-8DAE-2FAB2708ADF8";
paths = (
{
closed = 1;
nodes = (
"158 234 LINE",
"816 234 LINE",
"816 368 LINE",
"158 368 LINE"
);
},
{
closed = 1;
nodes = (
"158 616 LINE",
"816 616 LINE",
"816 752 LINE",
"158 752 LINE"
);
}
);
width = 975;
}
);
unicode = 003D;
},
{
glyphname = zero;
lastChange = "2019-05-13 18:40:05 +0000";
layers = (
{
layerId = "B502AB2C-259B-4691-A7E9-F302DF43C341";
paths = (
{
closed = 1;
nodes = (
"950 -28 OFFCURVE",
"1172 192 OFFCURVE",
"1172 648 CURVE SMOOTH",
"1172 1106 OFFCURVE",
"950 1324 OFFCURVE",
"634 1324 CURVE SMOOTH",
"314 1324 OFFCURVE",
"94 1106 OFFCURVE",
"94 648 CURVE SMOOTH",
"94 192 OFFCURVE",
"314 -28 OFFCURVE",
"634 -28 CURVE SMOOTH"
);
},
{
closed = 1;
nodes = (
"446 188 OFFCURVE",
"338 350 OFFCURVE",
"338 648 CURVE SMOOTH",
"338 946 OFFCURVE",
"446 1110 OFFCURVE",
"634 1110 CURVE SMOOTH",
"820 1110 OFFCURVE",
"928 946 OFFCURVE",
"928 648 CURVE SMOOTH",
"928 350 OFFCURVE",
"820 188 OFFCURVE",
"634 188 CURVE SMOOTH"
);
}
);
width = 1265;
},
{
layerId = "1A474BE3-B501-44F4-8DAE-2FAB2708ADF8";
paths = (
{
closed = 1;
nodes = (
"888 -24 OFFCURVE",
"1086 192 OFFCURVE",
"1086 628 CURVE SMOOTH",
"1086 1064 OFFCURVE",
"888 1278 OFFCURVE",
"594 1278 CURVE SMOOTH",
"298 1278 OFFCURVE",
"102 1064 OFFCURVE",
"102 628 CURVE SMOOTH",
"102 192 OFFCURVE",
"298 -24 OFFCURVE",
"594 -24 CURVE SMOOTH"
);
},
{
closed = 1;
nodes = (
"380 120 OFFCURVE",
"264 304 OFFCURVE",
"264 628 CURVE SMOOTH",
"264 952 OFFCURVE",
"380 1136 OFFCURVE",
"594 1136 CURVE SMOOTH",
"810 1136 OFFCURVE",
"924 952 OFFCURVE",
"924 628 CURVE SMOOTH",
"924 304 OFFCURVE",
"810 120 OFFCURVE",
"594 120 CURVE SMOOTH"
);
}
);
width = 1187;
}
);
unicode = 0030;
},
{
glyphname = one;
lastChange = "2019-05-13 18:40:05 +0000";
layers = (
{
layerId = "B502AB2C-259B-4691-A7E9-F302DF43C341";
paths = (
{
closed = 1;
nodes = (
"258 1240 OFFCURVE",
"174 1210 OFFCURVE",
"84 1200 CURVE",
"84 974 LINE",
"152 974 OFFCURVE",
"220 992 OFFCURVE",
"290 1024 CURVE",
"290 0 LINE",
"526 0 LINE",
"526 1306 LINE",
"348 1306 LINE"
);
}
);
width = 713;
},
{
layerId = "1A474BE3-B501-44F4-8DAE-2FAB2708ADF8";
paths = (
{
closed = 1;
nodes = (
"260 1200 OFFCURVE",
"180 1170 OFFCURVE",
"96 1158 CURVE",
"96 1006 LINE",
"166 1008 OFFCURVE",
"238 1032 OFFCURVE",
"302 1076 CURVE",
"302 0 LINE",
"458 0 LINE",
"458 1260 LINE",
"332 1260 LINE"
);
}
);
width = 661;
}
);
unicode = 0031;
},
{
glyphname = two;
lastChange = "2019-05-13 18:40:05 +0000";
layers = (
{
layerId = "B502AB2C-259B-4691-A7E9-F302DF43C341";
paths = (
{
closed = 1;
nodes = (
"1098 0 LINE",
"1098 216 LINE",
"356 216 LINE",
"356 254 LINE SMOOTH",
"356 332 OFFCURVE",
"400 376 OFFCURVE",
"504 416 CURVE SMOOTH",
"772 520 LINE SMOOTH",
"998 608 OFFCURVE",
"1106 730 OFFCURVE",
"1106 930 CURVE SMOOTH",
"1106 1166 OFFCURVE",
"900 1324 OFFCURVE",
"638 1324 CURVE SMOOTH",
"360 1324 OFFCURVE",
"148 1194 OFFCURVE",
"142 928 CURVE",
"404 928 LINE",
"416 1052 OFFCURVE",
"512 1118 OFFCURVE",
"642 1118 CURVE SMOOTH",
"776 1118 OFFCURVE",
"852 1040 OFFCURVE",
"852 940 CURVE SMOOTH",
"852 840 OFFCURVE",
"798 774 OFFCURVE",
"682 728 CURVE SMOOTH",
"416 626 LINE SMOOTH",
"218 550 OFFCURVE",
"120 440 OFFCURVE",
"120 222 CURVE SMOOTH",
"120 0 LINE"
);
}
);
width = 1210;
},
{
layerId = "1A474BE3-B501-44F4-8DAE-2FAB2708ADF8";
paths = (
{
closed = 1;
nodes = (
"1014 0 LINE",
"1014 144 LINE",
"284 144 LINE",
"284 204 LINE SMOOTH",
"284 314 OFFCURVE",
"348 378 OFFCURVE",
"476 428 CURVE SMOOTH",
"730 530 LINE SMOOTH",
"912 604 OFFCURVE",
"1026 718 OFFCURVE",
"1026 912 CURVE SMOOTH",
"1026 1126 OFFCURVE",
"844 1278 OFFCURVE",
"602 1278 CURVE SMOOTH",
"338 1278 OFFCURVE",
"164 1156 OFFCURVE",
"150 938 CURVE",
"324 938 LINE",
"338 1072 OFFCURVE",
"446 1140 OFFCURVE",
"604 1140 CURVE SMOOTH",
"762 1140 OFFCURVE",
"856 1050 OFFCURVE",
"856 922 CURVE SMOOTH",
"856 800 OFFCURVE",
"792 722 OFFCURVE",
"664 670 CURVE SMOOTH",
"416 572 LINE SMOOTH",
"240 502 OFFCURVE",
"128 404 OFFCURVE",
"128 186 CURVE SMOOTH",
"128 0 LINE"
);
}
);
width = 1159;
}
);
unicode = 0032;
},
{
glyphname = three;
lastChange = "2019-05-13 18:40:05 +0000";
layers = (
{
layerId = "B502AB2C-259B-4691-A7E9-F302DF43C341";
paths = (
{
closed = 1;
nodes = (
"936 -28 OFFCURVE",
"1142 134 OFFCURVE",
"1142 364 CURVE SMOOTH",
"1142 520 OFFCURVE",
"1038 626 OFFCURVE",
"882 680 CURVE",
"1022 728 OFFCURVE",
"1096 830 OFFCURVE",
"1096 962 CURVE SMOOTH",
"1096 1176 OFFCURVE",
"890 1324 OFFCURVE",
"608 1324 CURVE SMOOTH",
"342 1324 OFFCURVE",
"144 1210 OFFCURVE",
"116 944 CURVE",
"364 944 LINE",
"390 1066 OFFCURVE",
"496 1110 OFFCURVE",
"618 1110 CURVE SMOOTH",
"768 1110 OFFCURVE",
"842 1034 OFFCURVE",
"842 934 CURVE SMOOTH",
"842 822 OFFCURVE",
"750 752 OFFCURVE",
"598 752 CURVE SMOOTH",
"452 752 LINE",
"452 566 LINE",
"624 566 LINE SMOOTH",
"804 566 OFFCURVE",
"886 498 OFFCURVE",
"886 386 CURVE SMOOTH",
"886 272 OFFCURVE",
"788 188 OFFCURVE",
"626 188 CURVE SMOOTH",
"460 188 OFFCURVE",
"346 272 OFFCURVE",
"338 408 CURVE",
"90 408 LINE",
"90 122 OFFCURVE",
"352 -28 OFFCURVE",
"626 -28 CURVE SMOOTH"
);
}
);
width = 1244;
},
{
layerId = "1A474BE3-B501-44F4-8DAE-2FAB2708ADF8";
paths = (
{
closed = 1;
nodes = (
"880 -24 OFFCURVE",
"1058 130 OFFCURVE",
"1058 346 CURVE SMOOTH",
"1058 508 OFFCURVE",
"946 612 OFFCURVE",
"788 658 CURVE",
"930 708 OFFCURVE",
"1008 804 OFFCURVE",
"1008 936 CURVE SMOOTH",
"1008 1136 OFFCURVE",
"824 1278 OFFCURVE",
"574 1278 CURVE SMOOTH",
"350 1278 OFFCURVE",
"174 1186 OFFCURVE",
"142 952 CURVE",
"302 952 LINE",
"338 1092 OFFCURVE",
"448 1136 OFFCURVE",
"578 1136 CURVE SMOOTH",
"746 1136 OFFCURVE",
"840 1042 OFFCURVE",
"840 922 CURVE SMOOTH",
"840 786 OFFCURVE",
"720 704 OFFCURVE",
"526 704 CURVE SMOOTH",
"430 704 LINE",
"430 580 LINE",
"572 580 LINE SMOOTH",
"798 580 OFFCURVE",
"888 488 OFFCURVE",
"888 358 CURVE SMOOTH",
"888 222 OFFCURVE",
"780 120 OFFCURVE",
"594 120 CURVE SMOOTH",
"412 120 OFFCURVE",
"270 212 OFFCURVE",
"266 384 CURVE",
"106 384 LINE",
"106 118 OFFCURVE",
"342 -24 OFFCURVE",
"594 -24 CURVE SMOOTH"
);
}
);
width = 1181;
}
);
unicode = 0033;
},
{
glyphname = four;
lastChange = "2019-05-13 18:40:05 +0000";
layers = (
{
layerId = "B502AB2C-259B-4691-A7E9-F302DF43C341";
paths = (
{
closed = 1;
nodes = (
"44 466 LINE",
"44 288 LINE",
"702 288 LINE",
"702 0 LINE",
"936 0 LINE",
"936 288 LINE",
"1162 288 LINE",
"1162 490 LINE",
"936 490 LINE",
"936 1312 LINE",
"708 1312 LINE"
);
},
{
closed = 1;
nodes = (
"714 466 LINE",
"324 466 LINE",
"714 962 LINE"
);
}
);
width = 1190;
},
{
layerId = "1A474BE3-B501-44F4-8DAE-2FAB2708ADF8";
paths = (
{
closed = 1;
nodes = (
"52 426 LINE",
"52 306 LINE",
"702 306 LINE",
"702 0 LINE",
"856 0 LINE",
"856 306 LINE",
"1074 306 LINE",
"1074 438 LINE",
"856 438 LINE",
"856 1274 LINE",
"710 1274 LINE"
);
},
{
closed = 1;
nodes = (
"708 426 LINE",
"238 426 LINE",
"708 1028 LINE"
);
}
);
width = 1117;
}
);
unicode = 0034;
},
{
glyphname = five;
lastChange = "2019-05-13 18:40:05 +0000";
layers = (
{
layerId = "B502AB2C-259B-4691-A7E9-F302DF43C341";
paths = (
{
closed = 1;
nodes = (
"890 -28 OFFCURVE",
"1084 174 OFFCURVE",
"1084 432 CURVE SMOOTH",
"1084 674 OFFCURVE",
"912 808 OFFCURVE",
"644 808 CURVE SMOOTH",
"580 808 OFFCURVE",
"480 800 OFFCURVE",
"416 786 CURVE",
"436 764 LINE",
"474 1150 LINE",
"428 1082 LINE",
"1016 1082 LINE",
"1016 1298 LINE",
"238 1298 LINE",
"178 632 LINE",
"574 632 LINE SMOOTH",
"752 632 OFFCURVE",
"842 562 OFFCURVE",
"842 432 CURVE SMOOTH",
"842 294 OFFCURVE",
"740 188 OFFCURVE",
"594 188 CURVE SMOOTH",
"458 188 OFFCURVE",
"354 254 OFFCURVE",
"354 388 CURVE",
"114 388 LINE",
"120 122 OFFCURVE",
"314 -28 OFFCURVE",
"594 -28 CURVE SMOOTH"
);
}
);
width = 1164;
},
{
layerId = "1A474BE3-B501-44F4-8DAE-2FAB2708ADF8";
paths = (
{
closed = 1;
nodes = (
"842 -24 OFFCURVE",
"1016 162 OFFCURVE",
"1016 406 CURVE SMOOTH",
"1016 646 OFFCURVE",
"846 768 OFFCURVE",
"574 768 CURVE SMOOTH",
"510 768 OFFCURVE",
"420 762 OFFCURVE",
"356 748 CURVE",
"376 730 LINE",
"418 1168 LINE",
"386 1114 LINE",
"956 1114 LINE",
"956 1256 LINE",
"260 1256 LINE",
"206 648 LINE",
"542 648 LINE SMOOTH",
"748 648 OFFCURVE",
"854 564 OFFCURVE",
"854 406 CURVE SMOOTH",
"854 244 OFFCURVE",
"744 120 OFFCURVE",
"564 120 CURVE SMOOTH",
"408 120 OFFCURVE",
"286 198 OFFCURVE",
"286 350 CURVE",
"130 350 LINE",
"132 108 OFFCURVE",
"326 -24 OFFCURVE",
"564 -24 CURVE SMOOTH"
);
}
);
width = 1129;
}
);
unicode = 0035;
},
{
glyphname = six;
lastChange = "2019-05-13 18:40:05 +0000";
layers = (
{
layerId = "B502AB2C-259B-4691-A7E9-F302DF43C341";
paths = (
{
closed = 1;
nodes = (
"924 -28 OFFCURVE",
"1116 138 OFFCURVE",
"1116 384 CURVE SMOOTH",
"1116 624 OFFCURVE",
"946 796 OFFCURVE",
"702 796 CURVE SMOOTH",
"532 796 OFFCURVE",
"370 720 OFFCURVE",
"338 474 CURVE",
"332 516 OFFCURVE",
"330 566 OFFCURVE",
"330 606 CURVE SMOOTH",
"330 916 OFFCURVE",
"458 1110 OFFCURVE",
"664 1110 CURVE SMOOTH",
"776 1110 OFFCURVE",
"836 1046 OFFCURVE",
"850 942 CURVE",
"1102 942 LINE",
"1092 1172 OFFCURVE",
"914 1324 OFFCURVE",
"656 1324 CURVE SMOOTH",
"318 1324 OFFCURVE",
"94 1072 OFFCURVE",
"94 626 CURVE SMOOTH",
"94 248 OFFCURVE",
"318 -28 OFFCURVE",
"644 -28 CURVE SMOOTH"
);
},
{
closed = 1;
nodes = (
"520 188 OFFCURVE",
"420 270 OFFCURVE",
"420 394 CURVE SMOOTH",
"420 518 OFFCURVE",
"520 602 OFFCURVE",
"644 602 CURVE SMOOTH",
"770 602 OFFCURVE",
"872 524 OFFCURVE",
"872 394 CURVE SMOOTH",
"872 270 OFFCURVE",
"770 188 OFFCURVE",
"644 188 CURVE SMOOTH"
);
}
);
width = 1214;
},
{
layerId = "1A474BE3-B501-44F4-8DAE-2FAB2708ADF8";
paths = (
{
closed = 1;
nodes = (
"856 -24 OFFCURVE",
"1030 132 OFFCURVE",
"1030 364 CURVE SMOOTH",
"1030 594 OFFCURVE",
"858 756 OFFCURVE",
"630 756 CURVE SMOOTH",
"454 756 OFFCURVE",
"288 672 OFFCURVE",
"270 406 CURVE",
"262 462 OFFCURVE",
"260 532 OFFCURVE",
"260 582 CURVE SMOOTH",
"260 924 OFFCURVE",
"398 1136 OFFCURVE",
"628 1136 CURVE SMOOTH",
"762 1136 OFFCURVE",
"830 1060 OFFCURVE",
"850 940 CURVE",
"1020 940 LINE",
"1000 1142 OFFCURVE",
"848 1278 OFFCURVE",
"624 1278 CURVE SMOOTH",
"300 1278 OFFCURVE",
"102 1028 OFFCURVE",
"102 606 CURVE SMOOTH",
"102 248 OFFCURVE",
"300 -24 OFFCURVE",
"602 -24 CURVE SMOOTH"
);
},
{
closed = 1;
nodes = (
"452 120 OFFCURVE",
"340 216 OFFCURVE",
"340 368 CURVE SMOOTH",
"340 512 OFFCURVE",
"452 618 OFFCURVE",
"602 618 CURVE SMOOTH",
"754 618 OFFCURVE",
"866 524 OFFCURVE",
"866 368 CURVE SMOOTH",
"866 216 OFFCURVE",
"754 120 OFFCURVE",
"602 120 CURVE SMOOTH"
);
}
);
width = 1145;
}
);
unicode = 0036;
},
{
glyphname = seven;
lastChange = "2019-05-13 18:40:05 +0000";
layers = (
{
layerId = "B502AB2C-259B-4691-A7E9-F302DF43C341";
paths = (
{
closed = 1;
nodes = (
"406 0 LINE",
"960 1072 LINE",
"960 1298 LINE",
"48 1298 LINE",
"48 1070 LINE",
"682 1070 LINE",
"88 0 LINE"
);
}
);
width = 995;
},
{
layerId = "1A474BE3-B501-44F4-8DAE-2FAB2708ADF8";
paths = (
{
closed = 1;
nodes = (
"326 0 LINE",
"904 1112 LINE",
"904 1256 LINE",
"48 1256 LINE",
"48 1108 LINE",
"720 1108 LINE",
"118 0 LINE"
);
}
);
width = 939;
}
);
unicode = 0037;
},
{
glyphname = eight;
lastChange = "2019-05-13 18:40:05 +0000";
layers = (
{
layerId = "B502AB2C-259B-4691-A7E9-F302DF43C341";
paths = (
{
closed = 1;
nodes = (
"996 -28 OFFCURVE",
"1196 128 OFFCURVE",
"1196 344 CURVE SMOOTH",
"1196 516 OFFCURVE",
"1090 600 OFFCURVE",
"900 674 CURVE SMOOTH",
"518 822 LINE SMOOTH",
"432 856 OFFCURVE",
"386 894 OFFCURVE",
"386 960 CURVE SMOOTH",
"386 1046 OFFCURVE",
"500 1110 OFFCURVE",
"646 1110 CURVE SMOOTH",
"800 1110 OFFCURVE",
"906 1042 OFFCURVE",
"906 936 CURVE SMOOTH",
"906 832 OFFCURVE",
"790 764 OFFCURVE",
"658 764 CURVE",
"658 696 LINE",
"714 678 OFFCURVE",
"752 670 OFFCURVE",
"802 670 CURVE SMOOTH",
"1022 670 OFFCURVE",
"1150 802 OFFCURVE",
"1150 952 CURVE SMOOTH",
"1150 1168 OFFCURVE",
"930 1324 OFFCURVE",
"646 1324 CURVE SMOOTH",
"326 1324 OFFCURVE",
"142 1186 OFFCURVE",
"142 970 CURVE SMOOTH",
"142 782 OFFCURVE",
"310 672 OFFCURVE",
"444 620 CURVE SMOOTH",
"814 478 LINE SMOOTH",
"900 444 OFFCURVE",
"952 398 OFFCURVE",
"952 332 CURVE SMOOTH",
"952 248 OFFCURVE",
"854 188 OFFCURVE",
"646 188 CURVE SMOOTH",
"478 188 OFFCURVE",
"342 258 OFFCURVE",
"342 374 CURVE SMOOTH",
"342 474 OFFCURVE",
"464 558 OFFCURVE",
"634 558 CURVE",
"634 616 LINE",
"570 632 OFFCURVE",
"528 642 OFFCURVE",
"472 642 CURVE SMOOTH",
"260 642 OFFCURVE",
"98 534 OFFCURVE",
"98 350 CURVE SMOOTH",
"98 134 OFFCURVE",
"312 -28 OFFCURVE",
"646 -28 CURVE SMOOTH"
);
}
);
width = 1293;
},
{
layerId = "1A474BE3-B501-44F4-8DAE-2FAB2708ADF8";
paths = (
{
closed = 1;
nodes = (
"934 -24 OFFCURVE",
"1120 116 OFFCURVE",
"1120 314 CURVE SMOOTH",
"1120 476 OFFCURVE",
"1018 560 OFFCURVE",
"834 630 CURVE SMOOTH",
"488 762 LINE SMOOTH",
"380 802 OFFCURVE",
"316 850 OFFCURVE",
"316 940 CURVE SMOOTH",
"316 1048 OFFCURVE",
"444 1136 OFFCURVE",
"614 1136 CURVE SMOOTH",
"790 1136 OFFCURVE",
"910 1046 OFFCURVE",
"910 922 CURVE SMOOTH",
"910 792 OFFCURVE",
"784 704 OFFCURVE",
"622 704 CURVE",
"622 654 LINE",
"662 642 OFFCURVE",
"692 638 OFFCURVE",
"728 638 CURVE SMOOTH",
"952 638 OFFCURVE",
"1072 774 OFFCURVE",
"1072 930 CURVE SMOOTH",
"1072 1130 OFFCURVE",
"880 1278 OFFCURVE",
"614 1278 CURVE SMOOTH",
"324 1278 OFFCURVE",
"152 1140 OFFCURVE",
"152 946 CURVE SMOOTH",
"152 774 OFFCURVE",
"306 674 OFFCURVE",
"432 626 CURVE SMOOTH",
"778 494 LINE SMOOTH",
"888 454 OFFCURVE",
"956 398 OFFCURVE",
"956 308 CURVE SMOOTH",
"956 196 OFFCURVE",
"830 120 OFFCURVE",
"614 120 CURVE SMOOTH",
"420 120 OFFCURVE",
"272 202 OFFCURVE",
"272 350 CURVE SMOOTH",
"272 472 OFFCURVE",
"406 582 OFFCURVE",
"606 582 CURVE",
"606 628 LINE",
"564 638 OFFCURVE",
"530 642 OFFCURVE",
"492 642 CURVE SMOOTH",
"272 642 OFFCURVE",
"110 528 OFFCURVE",
"110 338 CURVE SMOOTH",
"110 130 OFFCURVE",
"318 -24 OFFCURVE",
"614 -24 CURVE SMOOTH"
);
}
);
width = 1229;
}
);
unicode = 0038;
},
{
glyphname = nine;
lastChange = "2019-05-13 18:40:05 +0000";
layers = (
{
layerId = "B502AB2C-259B-4691-A7E9-F302DF43C341";
paths = (
{
closed = 1;
nodes = (
"950 -28 OFFCURVE",
"1126 244 OFFCURVE",
"1126 670 CURVE SMOOTH",
"1126 1062 OFFCURVE",
"884 1324 OFFCURVE",
"574 1324 CURVE SMOOTH",
"298 1324 OFFCURVE",
"106 1160 OFFCURVE",
"106 912 CURVE SMOOTH",
"106 672 OFFCURVE",
"276 502 OFFCURVE",
"518 502 CURVE SMOOTH",
"694 502 OFFCURVE",
"844 588 OFFCURVE",
"882 808 CURVE",
"888 766 OFFCURVE",
"890 730 OFFCURVE",
"890 690 CURVE SMOOTH",
"890 388 OFFCURVE",
"804 188 OFFCURVE",
"586 188 CURVE SMOOTH",
"462 188 OFFCURVE",
"372 264 OFFCURVE",
"366 384 CURVE",
"120 384 LINE",
"120 140 OFFCURVE",
"326 -28 OFFCURVE",
"594 -28 CURVE SMOOTH"
);
},
{
closed = 1;
nodes = (
"450 696 OFFCURVE",
"350 772 OFFCURVE",
"350 900 CURVE SMOOTH",
"350 1028 OFFCURVE",
"450 1108 OFFCURVE",
"574 1108 CURVE SMOOTH",
"698 1108 OFFCURVE",
"802 1028 OFFCURVE",
"802 900 CURVE SMOOTH",
"802 780 OFFCURVE",
"698 696 OFFCURVE",
"576 696 CURVE SMOOTH"
);
}
);
width = 1220;
},
{
layerId = "1A474BE3-B501-44F4-8DAE-2FAB2708ADF8";
paths = (
{
closed = 1;
nodes = (
"904 -24 OFFCURVE",
"1058 238 OFFCURVE",
"1058 652 CURVE SMOOTH",
"1058 1032 OFFCURVE",
"846 1278 OFFCURVE",
"558 1278 CURVE SMOOTH",
"304 1278 OFFCURVE",
"132 1126 OFFCURVE",
"132 892 CURVE SMOOTH",
"132 664 OFFCURVE",
"304 500 OFFCURVE",
"528 500 CURVE SMOOTH",
"720 500 OFFCURVE",
"862 606 OFFCURVE",
"888 822 CURVE",
"896 766 OFFCURVE",
"898 726 OFFCURVE",
"898 674 CURVE SMOOTH",
"898 336 OFFCURVE",
"800 120 OFFCURVE",
"564 120 CURVE SMOOTH",
"404 120 OFFCURVE",
"306 218 OFFCURVE",
"302 372 CURVE",
"140 372 LINE",
"140 142 OFFCURVE",
"320 -24 OFFCURVE",
"568 -24 CURVE SMOOTH"
);
},
{
closed = 1;
nodes = (
"406 638 OFFCURVE",
"294 732 OFFCURVE",
"294 886 CURVE SMOOTH",
"294 1040 OFFCURVE",
"406 1136 OFFCURVE",
"558 1136 CURVE SMOOTH",
"706 1136 OFFCURVE",
"822 1040 OFFCURVE",
"822 886 CURVE SMOOTH",
"822 746 OFFCURVE",
"706 638 OFFCURVE",
"558 638 CURVE SMOOTH"
);
}
);
width = 1160;
}
);
unicode = 0039;
},
{
glyphname = zero.prop;
lastChange = "2019-05-13 18:40:05 +0000";
layers = (
{
layerId = "B502AB2C-259B-4691-A7E9-F302DF43C341";
paths = (
{
closed = 1;
nodes = (
"292 1166 OFFCURVE",
"94 954 OFFCURVE",
"94 570 CURVE SMOOTH",
"94 184 OFFCURVE",
"292 -28 OFFCURVE",
"570 -28 CURVE SMOOTH",
"848 -28 OFFCURVE",
"1044 184 OFFCURVE",
"1044 570 CURVE SMOOTH",
"1044 954 OFFCURVE",
"848 1166 OFFCURVE",
"570 1166 CURVE SMOOTH"
);
},
{
closed = 1;
nodes = (
"730 954 OFFCURVE",
"810 830 OFFCURVE",
"810 570 CURVE SMOOTH",
"810 310 OFFCURVE",
"730 186 OFFCURVE",
"570 186 CURVE SMOOTH",
"412 186 OFFCURVE",
"332 310 OFFCURVE",
"332 570 CURVE SMOOTH",
"332 830 OFFCURVE",
"412 954 OFFCURVE",
"570 954 CURVE SMOOTH"
);
}
);
width = 1139;
},
{
layerId = "1A474BE3-B501-44F4-8DAE-2FAB2708ADF8";
paths = (
{
closed = 1;
nodes = (
"278 1100 OFFCURVE",
"102 914 OFFCURVE",
"102 540 CURVE SMOOTH",
"102 164 OFFCURVE",
"278 -24 OFFCURVE",
"530 -24 CURVE SMOOTH",
"782 -24 OFFCURVE",
"960 164 OFFCURVE",
"960 540 CURVE SMOOTH",
"960 914 OFFCURVE",
"782 1100 OFFCURVE",
"530 1100 CURVE SMOOTH"
);
},
{
closed = 1;
nodes = (
"716 962 OFFCURVE",
"802 816 OFFCURVE",
"802 540 CURVE SMOOTH",
"802 264 OFFCURVE",
"716 116 OFFCURVE",
"530 116 CURVE SMOOTH",
"348 116 OFFCURVE",
"262 264 OFFCURVE",
"262 540 CURVE SMOOTH",
"262 816 OFFCURVE",
"348 962 OFFCURVE",
"530 962 CURVE SMOOTH"
);
}
);
width = 1061;
}
);
},
{
glyphname = one.prop;
lastChange = "2019-05-13 18:40:05 +0000";
layers = (
{
layerId = "B502AB2C-259B-4691-A7E9-F302DF43C341";
paths = (
{
closed = 1;
nodes = (
"258 1074 OFFCURVE",
"174 1046 OFFCURVE",
"84 1036 CURVE",
"84 810 LINE",
"152 812 OFFCURVE",
"220 826 OFFCURVE",
"290 860 CURVE",
"290 0 LINE",
"526 0 LINE",
"526 1142 LINE",
"348 1142 LINE"
);
}
);
width = 713;
},
{
layerId = "1A474BE3-B501-44F4-8DAE-2FAB2708ADF8";
paths = (
{
closed = 1;
nodes = (
"260 1018 OFFCURVE",
"180 988 OFFCURVE",
"96 976 CURVE",
"96 824 LINE",
"166 828 OFFCURVE",
"238 850 OFFCURVE",
"302 894 CURVE",
"302 0 LINE",
"458 0 LINE",
"458 1080 LINE",
"332 1080 LINE"
);
}
);
width = 661;
}
);
},
{
glyphname = two.prop;
lastChange = "2019-05-13 18:40:05 +0000";
layers = (
{
layerId = "B502AB2C-259B-4691-A7E9-F302DF43C341";
paths = (
{
closed = 1;
nodes = (
"1066 0 LINE",
"1066 216 LINE",
"356 216 LINE",
"356 264 LINE SMOOTH",
"356 332 OFFCURVE",
"402 380 OFFCURVE",
"514 408 CURVE SMOOTH",
"724 460 LINE SMOOTH",
"958 518 OFFCURVE",
"1058 620 OFFCURVE",
"1058 808 CURVE SMOOTH",
"1058 1010 OFFCURVE",
"882 1166 OFFCURVE",
"614 1166 CURVE SMOOTH",
"340 1166 OFFCURVE",
"148 1046 OFFCURVE",
"142 800 CURVE",
"404 800 LINE",
"416 910 OFFCURVE",
"502 960 OFFCURVE",
"626 960 CURVE SMOOTH",
"748 960 OFFCURVE",
"822 892 OFFCURVE",
"822 810 CURVE SMOOTH",
"822 716 OFFCURVE",
"768 658 OFFCURVE",
"622 622 CURVE SMOOTH",
"432 576 LINE SMOOTH",
"220 524 OFFCURVE",
"120 422 OFFCURVE",
"120 196 CURVE SMOOTH",
"120 0 LINE"
);
}
);
width = 1190;
},
{
layerId = "1A474BE3-B501-44F4-8DAE-2FAB2708ADF8";
paths = (
{
closed = 1;
nodes = (
"998 0 LINE",
"998 144 LINE",
"284 144 LINE",
"284 210 LINE SMOOTH",
"284 302 OFFCURVE",
"338 376 OFFCURVE",
"478 408 CURVE SMOOTH",
"700 460 LINE SMOOTH",
"902 510 OFFCURVE",
"1000 600 OFFCURVE",
"1000 772 CURVE SMOOTH",
"1000 948 OFFCURVE",
"836 1100 OFFCURVE",
"590 1100 CURVE SMOOTH",
"328 1100 OFFCURVE",
"164 982 OFFCURVE",
"150 776 CURVE",
"324 776 LINE",
"338 902 OFFCURVE",
"442 962 OFFCURVE",
"596 962 CURVE SMOOTH",
"750 962 OFFCURVE",
"842 878 OFFCURVE",
"842 780 CURVE SMOOTH",
"842 670 OFFCURVE",
"774 608 OFFCURVE",
"634 576 CURVE SMOOTH",
"428 528 LINE SMOOTH",
"226 482 OFFCURVE",
"128 382 OFFCURVE",
"128 168 CURVE SMOOTH",
"128 0 LINE"
);
}
);
width = 1149;
}
);
},
{
glyphname = three.prop;
lastChange = "2019-05-13 18:40:05 +0000";
layers = (
{
layerId = "B502AB2C-259B-4691-A7E9-F302DF43C341";
paths = (
{
closed = 1;
nodes = (
"846 -238 OFFCURVE",
"1046 -64 OFFCURVE",
"1046 168 CURVE SMOOTH",
"1046 334 OFFCURVE",
"954 470 OFFCURVE",
"792 532 CURVE",
"924 586 OFFCURVE",
"1002 676 OFFCURVE",
"1002 812 CURVE SMOOTH",
"1002 1014 OFFCURVE",
"826 1166 OFFCURVE",
"544 1166 CURVE SMOOTH",
"280 1166 OFFCURVE",
"96 1064 OFFCURVE",
"66 796 CURVE",
"318 796 LINE",
"334 904 OFFCURVE",
"426 968 OFFCURVE",
"548 968 CURVE SMOOTH",
"682 968 OFFCURVE",
"766 892 OFFCURVE",
"766 788 CURVE SMOOTH",
"766 670 OFFCURVE",
"672 600 OFFCURVE",
"520 600 CURVE SMOOTH",
"398 600 LINE",
"398 414 LINE",
"532 414 LINE SMOOTH",
"710 414 OFFCURVE",
"808 316 OFFCURVE",
"808 188 CURVE SMOOTH",
"808 56 OFFCURVE",
"700 -38 OFFCURVE",
"546 -38 CURVE SMOOTH",
"400 -38 OFFCURVE",
"290 30 OFFCURVE",
"280 190 CURVE",
"40 190 LINE",
"40 -104 OFFCURVE",
"280 -238 OFFCURVE",
"546 -238 CURVE SMOOTH"
);
}
);
width = 1177;
},
{
layerId = "1A474BE3-B501-44F4-8DAE-2FAB2708ADF8";
paths = (
{
closed = 1;
nodes = (
"796 -228 OFFCURVE",
"984 -70 OFFCURVE",
"984 148 CURVE SMOOTH",
"984 314 OFFCURVE",
"880 452 OFFCURVE",
"718 502 CURVE",
"854 554 OFFCURVE",
"936 634 OFFCURVE",
"936 768 CURVE SMOOTH",
"936 960 OFFCURVE",
"768 1100 OFFCURVE",
"516 1100 CURVE SMOOTH",
"296 1100 OFFCURVE",
"126 1014 OFFCURVE",
"92 778 CURVE",
"256 778 LINE",
"286 910 OFFCURVE",
"388 966 OFFCURVE",
"518 966 CURVE SMOOTH",
"680 966 OFFCURVE",
"776 878 OFFCURVE",
"776 756 CURVE SMOOTH",
"776 618 OFFCURVE",
"658 546 OFFCURVE",
"464 546 CURVE SMOOTH",
"380 546 LINE",
"380 422 LINE",
"500 422 LINE SMOOTH",
"726 422 OFFCURVE",
"824 298 OFFCURVE",
"824 158 CURVE SMOOTH",
"824 14 OFFCURVE",
"696 -92 OFFCURVE",
"516 -92 CURVE SMOOTH",
"342 -92 OFFCURVE",
"218 -8 OFFCURVE",
"214 176 CURVE",
"56 176 LINE",
"56 -96 OFFCURVE",
"266 -228 OFFCURVE",
"516 -228 CURVE SMOOTH"
);
}
);
width = 1122;
}
);
},
{
glyphname = four.prop;
lastChange = "2019-05-13 18:40:05 +0000";
layers = (
{
layerId = "B502AB2C-259B-4691-A7E9-F302DF43C341";
paths = (
{
closed = 1;
nodes = (
"932 -216 LINE",
"932 98 LINE",
"1156 98 LINE",
"1156 302 LINE",
"932 302 LINE",
"932 1148 LINE",
"700 1148 LINE",
"36 276 LINE",
"36 98 LINE",
"694 98 LINE",
"694 -216 LINE"
);
},
{
closed = 1;
nodes = (
"706 802 LINE",
"706 276 LINE",
"294 276 LINE"
);
}
);
width = 1192;
},
{
layerId = "1A474BE3-B501-44F4-8DAE-2FAB2708ADF8";
paths = (
{
closed = 1;
nodes = (
"852 -210 LINE",
"852 108 LINE",
"1070 108 LINE",
"1070 242 LINE",
"852 242 LINE",
"852 1090 LINE",
"706 1090 LINE",
"48 228 LINE",
"48 108 LINE",
"696 108 LINE",
"696 -210 LINE"
);
},
{
closed = 1;
nodes = (
"704 846 LINE",
"704 228 LINE",
"222 228 LINE"
);
}
);
width = 1118;
}
);
},
{
glyphname = five.prop;
lastChange = "2019-05-13 18:40:05 +0000";
layers = (
{
layerId = "B502AB2C-259B-4691-A7E9-F302DF43C341";
paths = (
{
closed = 1;
nodes = (
"856 -238 OFFCURVE",
"1074 -42 OFFCURVE",
"1074 230 CURVE SMOOTH",
"1074 488 OFFCURVE",
"896 656 OFFCURVE",
"618 656 CURVE SMOOTH",
"544 656 OFFCURVE",
"480 648 OFFCURVE",
"412 628 CURVE",
"428 608 LINE",
"466 1002 LINE",
"422 946 LINE",
"1006 946 LINE",
"1006 1160 LINE",
"244 1160 LINE",
"182 468 LINE",
"550 468 LINE SMOOTH",
"744 468 OFFCURVE",
"838 378 OFFCURVE",
"838 230 CURVE SMOOTH",
"838 80 OFFCURVE",
"724 -22 OFFCURVE",
"574 -22 CURVE SMOOTH",
"438 -22 OFFCURVE",
"348 48 OFFCURVE",
"348 184 CURVE",
"114 184 LINE",
"114 -90 OFFCURVE",
"330 -238 OFFCURVE",
"568 -238 CURVE SMOOTH"
);
}
);
width = 1178;
},
{
layerId = "1A474BE3-B501-44F4-8DAE-2FAB2708ADF8";
paths = (
{
closed = 1;
nodes = (
"812 -228 OFFCURVE",
"1012 -42 OFFCURVE",
"1012 210 CURVE SMOOTH",
"1012 458 OFFCURVE",
"838 612 OFFCURVE",
"562 612 CURVE SMOOTH",
"492 612 OFFCURVE",
"420 604 OFFCURVE",
"354 588 CURVE",
"372 570 LINE",
"414 994 LINE",
"382 946 LINE",
"952 946 LINE",
"952 1088 LINE",
"264 1088 LINE",
"208 484 LINE",
"530 484 LINE SMOOTH",
"744 484 OFFCURVE",
"852 378 OFFCURVE",
"852 210 CURVE SMOOTH",
"852 42 OFFCURVE",
"722 -84 OFFCURVE",
"540 -84 CURVE SMOOTH",
"384 -84 OFFCURVE",
"284 -4 OFFCURVE",
"284 148 CURVE",
"130 148 LINE",
"130 -96 OFFCURVE",
"322 -228 OFFCURVE",
"538 -228 CURVE SMOOTH"
);
}
);
width = 1137;
}
);
},
{
glyphname = seven.prop;
lastChange = "2019-05-13 18:40:05 +0000";
layers = (
{
layerId = "B502AB2C-259B-4691-A7E9-F302DF43C341";
paths = (
{
closed = 1;
nodes = (
"48 960 LINE",
"718 960 LINE",
"72 -208 LINE",
"360 -208 LINE",
"960 962 LINE",
"960 1166 LINE",
"48 1166 LINE"
);
}
);
width = 995;
},
{
layerId = "1A474BE3-B501-44F4-8DAE-2FAB2708ADF8";
paths = (
{
closed = 1;
nodes = (
"48 962 LINE",
"738 962 LINE",
"110 -196 LINE",
"302 -196 LINE",
"904 966 LINE",
"904 1100 LINE",
"48 1100 LINE"
);
}
);
width = 939;
}
);
},
{
glyphname = eight.prop;
lastChange = "2019-05-13 18:40:05 +0000";
layers = (
{
layerId = "B502AB2C-259B-4691-A7E9-F302DF43C341";
paths = (
{
closed = 1;
nodes = (
"996 -28 OFFCURVE",
"1196 128 OFFCURVE",
"1196 344 CURVE SMOOTH",
"1196 516 OFFCURVE",
"1090 600 OFFCURVE",
"900 674 CURVE SMOOTH",
"518 822 LINE SMOOTH",
"432 856 OFFCURVE",
"386 894 OFFCURVE",
"386 960 CURVE SMOOTH",
"386 1046 OFFCURVE",
"500 1110 OFFCURVE",
"646 1110 CURVE SMOOTH",
"800 1110 OFFCURVE",
"906 1042 OFFCURVE",
"906 936 CURVE SMOOTH",
"906 832 OFFCURVE",
"790 764 OFFCURVE",
"658 764 CURVE",
"658 696 LINE",
"714 678 OFFCURVE",
"752 670 OFFCURVE",
"802 670 CURVE SMOOTH",
"1022 670 OFFCURVE",
"1150 802 OFFCURVE",
"1150 952 CURVE SMOOTH",
"1150 1168 OFFCURVE",
"930 1324 OFFCURVE",
"646 1324 CURVE SMOOTH",
"326 1324 OFFCURVE",
"142 1186 OFFCURVE",
"142 970 CURVE SMOOTH",
"142 782 OFFCURVE",
"310 672 OFFCURVE",
"444 620 CURVE SMOOTH",
"814 478 LINE SMOOTH",
"900 444 OFFCURVE",
"952 398 OFFCURVE",
"952 332 CURVE SMOOTH",
"952 248 OFFCURVE",
"854 188 OFFCURVE",
"646 188 CURVE SMOOTH",
"478 188 OFFCURVE",
"342 258 OFFCURVE",
"342 374 CURVE SMOOTH",
"342 474 OFFCURVE",
"464 558 OFFCURVE",
"634 558 CURVE",
"634 616 LINE",
"570 632 OFFCURVE",
"528 642 OFFCURVE",
"472 642 CURVE SMOOTH",
"260 642 OFFCURVE",
"98 534 OFFCURVE",
"98 350 CURVE SMOOTH",
"98 134 OFFCURVE",
"312 -28 OFFCURVE",
"646 -28 CURVE SMOOTH"
);
}
);
width = 1293;
},
{
layerId = "1A474BE3-B501-44F4-8DAE-2FAB2708ADF8";
paths = (
{
closed = 1;
nodes = (
"934 -24 OFFCURVE",
"1120 116 OFFCURVE",
"1120 314 CURVE SMOOTH",
"1120 476 OFFCURVE",
"1018 560 OFFCURVE",
"834 630 CURVE SMOOTH",
"488 762 LINE SMOOTH",
"380 802 OFFCURVE",
"316 850 OFFCURVE",
"316 940 CURVE SMOOTH",
"316 1048 OFFCURVE",
"444 1136 OFFCURVE",
"614 1136 CURVE SMOOTH",
"790 1136 OFFCURVE",
"910 1046 OFFCURVE",
"910 922 CURVE SMOOTH",
"910 792 OFFCURVE",
"784 704 OFFCURVE",
"622 704 CURVE",
"622 654 LINE",
"662 642 OFFCURVE",
"692 638 OFFCURVE",
"728 638 CURVE SMOOTH",
"952 638 OFFCURVE",
"1072 774 OFFCURVE",
"1072 930 CURVE SMOOTH",
"1072 1130 OFFCURVE",
"880 1278 OFFCURVE",
"614 1278 CURVE SMOOTH",
"324 1278 OFFCURVE",
"152 1140 OFFCURVE",
"152 946 CURVE SMOOTH",
"152 774 OFFCURVE",
"306 674 OFFCURVE",
"432 626 CURVE SMOOTH",
"778 494 LINE SMOOTH",
"888 454 OFFCURVE",
"956 398 OFFCURVE",
"956 308 CURVE SMOOTH",
"956 196 OFFCURVE",
"830 120 OFFCURVE",
"614 120 CURVE SMOOTH",
"420 120 OFFCURVE",
"272 202 OFFCURVE",
"272 350 CURVE SMOOTH",
"272 472 OFFCURVE",
"406 582 OFFCURVE",
"606 582 CURVE",
"606 628 LINE",
"564 638 OFFCURVE",
"530 642 OFFCURVE",
"492 642 CURVE SMOOTH",
"272 642 OFFCURVE",
"110 528 OFFCURVE",
"110 338 CURVE SMOOTH",
"110 130 OFFCURVE",
"318 -24 OFFCURVE",
"614 -24 CURVE SMOOTH"
);
}
);
width = 1229;
}
);
},
{
glyphname = nine.prop;
lastChange = "2019-05-13 18:40:05 +0000";
layers = (
{
layerId = "B502AB2C-259B-4691-A7E9-F302DF43C341";
paths = (
{
closed = 1;
nodes = (
"910 -238 OFFCURVE",
"1126 26 OFFCURVE",
"1126 474 CURVE SMOOTH",
"1126 824 OFFCURVE",
"940 1166 OFFCURVE",
"574 1166 CURVE SMOOTH",
"298 1166 OFFCURVE",
"106 986 OFFCURVE",
"106 742 CURVE SMOOTH",
"106 500 OFFCURVE",
"298 326 OFFCURVE",
"540 326 CURVE SMOOTH",
"716 326 OFFCURVE",
"856 434 OFFCURVE",
"882 634 CURVE",
"888 590 OFFCURVE",
"890 542 OFFCURVE",
"890 492 CURVE SMOOTH",
"890 176 OFFCURVE",
"796 -22 OFFCURVE",
"584 -22 CURVE SMOOTH",
"452 -22 OFFCURVE",
"378 50 OFFCURVE",
"372 172 CURVE",
"124 172 LINE",
"124 -72 OFFCURVE",
"322 -238 OFFCURVE",
"584 -238 CURVE SMOOTH"
);
},
{
closed = 1;
nodes = (
"436 520 OFFCURVE",
"350 612 OFFCURVE",
"350 742 CURVE SMOOTH",
"350 866 OFFCURVE",
"434 960 OFFCURVE",
"574 960 CURVE SMOOTH",
"714 960 OFFCURVE",
"802 866 OFFCURVE",
"802 742 CURVE SMOOTH",
"802 618 OFFCURVE",
"716 520 OFFCURVE",
"576 520 CURVE SMOOTH"
);
}
);
width = 1218;
},
{
layerId = "1A474BE3-B501-44F4-8DAE-2FAB2708ADF8";
paths = (
{
closed = 1;
nodes = (
"884 -228 OFFCURVE",
"1058 28 OFFCURVE",
"1058 454 CURVE SMOOTH",
"1058 814 OFFCURVE",
"874 1100 OFFCURVE",
"558 1100 CURVE SMOOTH",
"304 1100 OFFCURVE",
"132 940 OFFCURVE",
"132 708 CURVE SMOOTH",
"132 478 OFFCURVE",
"314 312 OFFCURVE",
"540 312 CURVE SMOOTH",
"730 312 OFFCURVE",
"868 432 OFFCURVE",
"888 636 CURVE",
"896 580 OFFCURVE",
"898 532 OFFCURVE",
"898 474 CURVE SMOOTH",
"898 130 OFFCURVE",
"796 -84 OFFCURVE",
"562 -84 CURVE SMOOTH",
"400 -84 OFFCURVE",
"308 12 OFFCURVE",
"306 166 CURVE",
"142 166 LINE",
"142 -64 OFFCURVE",
"318 -228 OFFCURVE",
"562 -228 CURVE SMOOTH"
);
},
{
closed = 1;
nodes = (
"400 450 OFFCURVE",
"294 552 OFFCURVE",
"294 708 CURVE SMOOTH",
"294 862 OFFCURVE",
"398 962 OFFCURVE",
"558 962 CURVE SMOOTH",
"714 962 OFFCURVE",
"822 862 OFFCURVE",
"822 708 CURVE SMOOTH",
"822 566 OFFCURVE",
"716 450 OFFCURVE",
"558 450 CURVE SMOOTH"
);
}
);
width = 1159;
}
);
},
{
glyphname = dollar;
lastChange = "2019-05-13 18:40:05 +0000";
layers = (
{
layerId = "B502AB2C-259B-4691-A7E9-F302DF43C341";
paths = (
{
closed = 1;
nodes = (
"1080 -28 OFFCURVE",
"1248 158 OFFCURVE",
"1248 346 CURVE SMOOTH",
"1248 516 OFFCURVE",
"1150 616 OFFCURVE",
"950 686 CURVE SMOOTH",
"694 776 LINE",
"694 572 LINE",
"836 518 LINE SMOOTH",
"930 484 OFFCURVE",
"982 428 OFFCURVE",
"982 352 CURVE SMOOTH",
"982 262 OFFCURVE",
"902 188 OFFCURVE",
"720 188 CURVE SMOOTH",
"492 188 OFFCURVE",
"362 250 OFFCURVE",
"362 406 CURVE",
"130 406 LINE",
"130 106 OFFCURVE",
"400 -28 OFFCURVE",
"708 -28 CURVE SMOOTH"
);
},
{
closed = 1;
nodes = (
"774 -202 LINE",
"774 1474 LINE",
"606 1474 LINE",
"606 -202 LINE"
);
},
{
closed = 1;
nodes = (
"652 776 LINE",
"546 820 LINE SMOOTH",
"454 852 OFFCURVE",
"412 892 OFFCURVE",
"412 962 CURVE SMOOTH",
"412 1056 OFFCURVE",
"502 1122 OFFCURVE",
"678 1122 CURVE SMOOTH",
"848 1122 OFFCURVE",
"946 1042 OFFCURVE",
"966 940 CURVE",
"1200 940 LINE",
"1160 1176 OFFCURVE",
"1000 1324 OFFCURVE",
"682 1324 CURVE SMOOTH",
"340 1324 OFFCURVE",
"156 1180 OFFCURVE",
"156 970 CURVE SMOOTH",
"156 786 OFFCURVE",
"282 694 OFFCURVE",
"506 618 CURVE SMOOTH",
"652 568 LINE"
);
}
);
width = 1378;
},
{
layerId = "1A474BE3-B501-44F4-8DAE-2FAB2708ADF8";
paths = (
{
closed = 1;
nodes = (
"966 -24 OFFCURVE",
"1124 154 OFFCURVE",
"1124 330 CURVE SMOOTH",
"1124 502 OFFCURVE",
"1014 600 OFFCURVE",
"832 660 CURVE SMOOTH",
"636 724 LINE",
"636 584 LINE",
"764 540 LINE SMOOTH",
"882 502 OFFCURVE",
"948 434 OFFCURVE",
"948 334 CURVE SMOOTH",
"948 222 OFFCURVE",
"846 120 OFFCURVE",
"644 120 CURVE SMOOTH",
"436 120 OFFCURVE",
"290 198 OFFCURVE",
"290 376 CURVE",
"138 376 LINE",
"138 112 OFFCURVE",
"368 -24 OFFCURVE",
"638 -24 CURVE SMOOTH"
);
},
{
closed = 1;
nodes = (
"692 -182 LINE",
"692 1424 LINE",
"570 1424 LINE",
"570 -182 LINE"
);
},
{
closed = 1;
nodes = (
"608 726 LINE",
"510 762 LINE SMOOTH",
"390 800 OFFCURVE",
"338 850 OFFCURVE",
"338 942 CURVE SMOOTH",
"338 1058 OFFCURVE",
"438 1142 OFFCURVE",
"626 1142 CURVE SMOOTH",
"798 1142 OFFCURVE",
"900 1068 OFFCURVE",
"920 952 CURVE",
"1076 952 LINE",
"1044 1148 OFFCURVE",
"898 1278 OFFCURVE",
"628 1278 CURVE SMOOTH",
"330 1278 OFFCURVE",
"170 1142 OFFCURVE",
"170 948 CURVE SMOOTH",
"170 774 OFFCURVE",
"286 690 OFFCURVE",
"506 618 CURVE SMOOTH",
"608 584 LINE"
);
}
);
width = 1261;
}
);
unicode = 0024;
},
{
glyphname = question;
lastChange = "2019-05-13 18:40:05 +0000";
layers = (
{
layerId = "B502AB2C-259B-4691-A7E9-F302DF43C341";
paths = (
{
closed = 1;
nodes = (
"586 388 LINE",
"586 446 LINE SMOOTH",
"586 550 OFFCURVE",
"624 592 OFFCURVE",
"754 658 CURVE SMOOTH",
"902 732 OFFCURVE",
"970 822 OFFCURVE",
"970 962 CURVE SMOOTH",
"970 1166 OFFCURVE",
"794 1324 OFFCURVE",
"510 1324 CURVE SMOOTH",
"222 1324 OFFCURVE",
"62 1172 OFFCURVE",
"48 940 CURVE",
"294 940 LINE",
"304 1042 OFFCURVE",
"380 1110 OFFCURVE",
"520 1110 CURVE SMOOTH",
"638 1110 OFFCURVE",
"710 1048 OFFCURVE",
"710 964 CURVE SMOOTH",
"710 886 OFFCURVE",
"676 844 OFFCURVE",
"550 780 CURVE SMOOTH",
"406 708 OFFCURVE",
"350 642 OFFCURVE",
"350 468 CURVE SMOOTH",
"350 388 LINE"
);
},
{
closed = 1;
nodes = (
"570 -28 OFFCURVE",
"642 40 OFFCURVE",
"642 128 CURVE SMOOTH",
"642 218 OFFCURVE",
"570 286 OFFCURVE",
"474 286 CURVE SMOOTH",
"376 286 OFFCURVE",
"310 218 OFFCURVE",
"310 128 CURVE SMOOTH",
"310 40 OFFCURVE",
"376 -28 OFFCURVE",
"474 -28 CURVE SMOOTH"
);
}
);
width = 1034;
},
{
layerId = "1A474BE3-B501-44F4-8DAE-2FAB2708ADF8";
paths = (
{
closed = 1;
nodes = (
"508 320 LINE",
"508 400 LINE SMOOTH",
"508 530 OFFCURVE",
"550 572 OFFCURVE",
"684 646 CURVE SMOOTH",
"838 728 OFFCURVE",
"904 812 OFFCURVE",
"904 950 CURVE SMOOTH",
"904 1130 OFFCURVE",
"748 1278 OFFCURVE",
"492 1278 CURVE SMOOTH",
"224 1278 OFFCURVE",
"78 1146 OFFCURVE",
"60 952 CURVE",
"226 952 LINE",
"248 1068 OFFCURVE",
"332 1136 OFFCURVE",
"496 1136 CURVE SMOOTH",
"644 1136 OFFCURVE",
"734 1058 OFFCURVE",
"734 954 CURVE SMOOTH",
"734 850 OFFCURVE",
"686 804 OFFCURVE",
"552 732 CURVE SMOOTH",
"402 650 OFFCURVE",
"354 584 OFFCURVE",
"354 410 CURVE SMOOTH",
"354 320 LINE"
);
},
{
closed = 1;
nodes = (
"500 -24 OFFCURVE",
"554 26 OFFCURVE",
"554 88 CURVE SMOOTH",
"554 150 OFFCURVE",
"500 202 OFFCURVE",
"434 202 CURVE SMOOTH",
"366 202 OFFCURVE",
"318 150 OFFCURVE",
"318 88 CURVE SMOOTH",
"318 26 OFFCURVE",
"366 -24 OFFCURVE",
"434 -24 CURVE SMOOTH"
);
}
);
width = 997;
}
);
unicode = 003F;
},
{
glyphname = sterling;
lastChange = "2019-05-13 18:40:05 +0000";
layers = (
{
layerId = "B502AB2C-259B-4691-A7E9-F302DF43C341";
paths = (
{
closed = 1;
nodes = (
"388 144 OFFCURVE",
"478 226 OFFCURVE",
"478 402 CURVE SMOOTH",
"478 888 LINE SMOOTH",
"478 1040 OFFCURVE",
"546 1110 OFFCURVE",
"650 1110 CURVE SMOOTH",
"732 1110 OFFCURVE",
"790 1062 OFFCURVE",
"802 974 CURVE",
"1034 974 LINE",
"1002 1206 OFFCURVE",
"870 1324 OFFCURVE",
"650 1324 CURVE SMOOTH",
"404 1324 OFFCURVE",
"242 1176 OFFCURVE",
"242 888 CURVE SMOOTH",
"242 386 LINE SMOOTH",
"242 268 OFFCURVE",
"206 212 OFFCURVE",
"108 212 CURVE",
"108 144 LINE"
);
},
{
closed = 1;
nodes = (
"680 0 LINE SMOOTH",
"1004 0 OFFCURVE",
"1124 136 OFFCURVE",
"1130 368 CURVE",
"874 368 LINE",
"860 262 OFFCURVE",
"810 212 OFFCURVE",
"678 212 CURVE SMOOTH",
"44 212 LINE",
"44 0 LINE"
);
},
{
closed = 1;
nodes = (
"820 562 LINE",
"820 720 LINE",
"76 720 LINE",
"76 562 LINE"
);
}
);
width = 1203;
},
{
layerId = "1A474BE3-B501-44F4-8DAE-2FAB2708ADF8";
paths = (
{
closed = 1;
nodes = (
"330 90 OFFCURVE",
"398 160 OFFCURVE",
"398 324 CURVE SMOOTH",
"398 864 LINE SMOOTH",
"398 1052 OFFCURVE",
"478 1136 OFFCURVE",
"610 1136 CURVE SMOOTH",
"704 1136 OFFCURVE",
"782 1086 OFFCURVE",
"800 978 CURVE",
"954 978 LINE",
"922 1176 OFFCURVE",
"796 1278 OFFCURVE",
"610 1278 CURVE SMOOTH",
"366 1278 OFFCURVE",
"242 1124 OFFCURVE",
"242 864 CURVE SMOOTH",
"242 316 LINE SMOOTH",
"242 194 OFFCURVE",
"198 136 OFFCURVE",
"96 136 CURVE",
"96 90 LINE"
);
},
{
closed = 1;
nodes = (
"690 0 LINE SMOOTH",
"950 0 OFFCURVE",
"1044 118 OFFCURVE",
"1056 306 CURVE",
"890 306 LINE",
"872 190 OFFCURVE",
"818 136 OFFCURVE",
"690 136 CURVE SMOOTH",
"40 136 LINE",
"40 0 LINE"
);
},
{
closed = 1;
nodes = (
"760 534 LINE",
"760 644 LINE",
"60 644 LINE",
"60 534 LINE"
);
}
);
width = 1129;
}
);
unicode = 00A3;
},
{
glyphname = grave;
lastChange = "2019-05-13 18:40:05 +0000";
layers = (
{
anchors = (
{
name = _above;
position = "{356, 1324}";
}
);
layerId = "B502AB2C-259B-4691-A7E9-F302DF43C341";
paths = (
{
closed = 1;
nodes = (
"606 1388 LINE",
"666 1536 LINE",
"132 1800 LINE",
"48 1596 LINE"
);
}
);
width = 713;
},
{
anchors = (
{
name = _above;
position = "{314, 1270}";
}
);
layerId = "1A474BE3-B501-44F4-8DAE-2FAB2708ADF8";
paths = (
{
closed = 1;
nodes = (
"536 1354 LINE",
"582 1452 LINE",
"112 1718 LINE",
"48 1580 LINE"
);
}
);
width = 627;
}
);
unicode = 0060;
},
{
glyphname = acute;
lastChange = "2019-05-13 18:40:05 +0000";
layers = (
{
anchors = (
{
name = _above;
position = "{356, 1324}";
}
);
layerId = "B502AB2C-259B-4691-A7E9-F302DF43C341";
paths = (
{
closed = 1;
nodes = (
"664 1596 LINE",
"580 1800 LINE",
"46 1536 LINE",
"106 1388 LINE"
);
}
);
width = 713;
},
{
anchors = (
{
name = _above;
position = "{314, 1270}";
}
);
layerId = "1A474BE3-B501-44F4-8DAE-2FAB2708ADF8";
paths = (
{
closed = 1;
nodes = (
"578 1580 LINE",
"514 1718 LINE",
"46 1452 LINE",
"92 1354 LINE"
);
}
);
width = 627;
}
);
unicode = 00B4;
},
{
glyphname = circumflex;
lastChange = "2019-05-13 18:40:05 +0000";
layers = (
{
anchors = (
{
name = _above;
position = "{466, 1324}";
}
);
layerId = "B502AB2C-259B-4691-A7E9-F302DF43C341";
paths = (
{
closed = 1;
nodes = (
"466 1588 LINE",
"732 1386 LINE",
"882 1504 LINE",
"466 1826 LINE",
"48 1504 LINE",
"198 1386 LINE"
);
}
);
width = 930;
},
{
anchors = (
{
name = _above;
position = "{406, 1270}";
}
);
layerId = "1A474BE3-B501-44F4-8DAE-2FAB2708ADF8";
paths = (
{
closed = 1;
nodes = (
"406 1570 LINE",
"664 1352 LINE",
"764 1430 LINE",
"406 1744 LINE",
"48 1430 LINE",
"146 1352 LINE"
);
}
);
width = 811;
}
);
unicode = 02C6;
},
{
glyphname = tilde;
lastChange = "2019-05-13 18:40:05 +0000";
layers = (
{
anchors = (
{
name = _above;
position = "{392, 1324}";
}
);
layerId = "B502AB2C-259B-4691-A7E9-F302DF43C341";
paths = (
{
closed = 1;
nodes = (
"178 1540 OFFCURVE",
"216 1562 OFFCURVE",
"260 1562 CURVE SMOOTH",
"288 1562 OFFCURVE",
"310 1552 OFFCURVE",
"374 1518 CURVE SMOOTH",
"450 1480 OFFCURVE",
"490 1462 OFFCURVE",
"538 1462 CURVE SMOOTH",
"620 1462 OFFCURVE",
"710 1564 OFFCURVE",
"738 1708 CURVE",
"638 1774 LINE",
"610 1706 OFFCURVE",
"570 1676 OFFCURVE",
"532 1676 CURVE SMOOTH",
"500 1676 OFFCURVE",
"474 1690 OFFCURVE",
"406 1724 CURVE SMOOTH",
"334 1762 OFFCURVE",
"298 1774 OFFCURVE",
"260 1774 CURVE SMOOTH",
"156 1774 OFFCURVE",
"78 1680 OFFCURVE",
"46 1518 CURVE",
"140 1462 LINE"
);
}
);
width = 789;
},
{
anchors = (
{
name = _above;
position = "{360, 1270}";
}
);
layerId = "1A474BE3-B501-44F4-8DAE-2FAB2708ADF8";
paths = (
{
closed = 1;
nodes = (
"144 1514 OFFCURVE",
"182 1540 OFFCURVE",
"224 1540 CURVE SMOOTH",
"252 1540 OFFCURVE",
"270 1532 OFFCURVE",
"344 1494 CURVE SMOOTH",
"430 1450 OFFCURVE",
"466 1436 OFFCURVE",
"506 1436 CURVE SMOOTH",
"576 1436 OFFCURVE",
"646 1510 OFFCURVE",
"676 1636 CURVE",
"608 1682 LINE",
"580 1610 OFFCURVE",
"540 1578 OFFCURVE",
"502 1578 CURVE SMOOTH",
"472 1578 OFFCURVE",
"452 1588 OFFCURVE",
"370 1630 CURVE SMOOTH",
"286 1674 OFFCURVE",
"258 1682 OFFCURVE",
"224 1682 CURVE SMOOTH",
"142 1682 OFFCURVE",
"78 1610 OFFCURVE",
"46 1476 CURVE",
"110 1436 LINE"
);
}
);
width = 730;
}
);
unicode = 02DC;
},
{
glyphname = ampersand;
lastChange = "2019-05-13 18:40:05 +0000";
layers = (
{
layerId = "B502AB2C-259B-4691-A7E9-F302DF43C341";
paths = (
{
closed = 1;
nodes = (
"1714 -28 OFFCURVE",
"1816 110 OFFCURVE",
"1822 328 CURVE",
"1608 328 LINE",
"1604 224 OFFCURVE",
"1552 180 OFFCURVE",
"1488 180 CURVE SMOOTH",
"1426 180 OFFCURVE",
"1390 202 OFFCURVE",
"1342 244 CURVE SMOOTH",
"728 798 LINE SMOOTH",
"664 856 OFFCURVE",
"634 908 OFFCURVE",
"634 970 CURVE SMOOTH",
"634 1050 OFFCURVE",
"696 1116 OFFCURVE",
"812 1116 CURVE SMOOTH",
"912 1116 OFFCURVE",
"980 1058 OFFCURVE",
"980 978 CURVE SMOOTH",
"980 874 OFFCURVE",
"900 804 OFFCURVE",
"720 734 CURVE",
"844 618 LINE",
"1108 706 OFFCURVE",
"1240 828 OFFCURVE",
"1240 1008 CURVE SMOOTH",
"1240 1180 OFFCURVE",
"1082 1320 OFFCURVE",
"812 1320 CURVE SMOOTH",
"532 1320 OFFCURVE",
"374 1180 OFFCURVE",
"374 1004 CURVE SMOOTH",
"374 896 OFFCURVE",
"434 794 OFFCURVE",
"518 718 CURVE SMOOTH",
"1152 144 LINE SMOOTH",
"1278 28 OFFCURVE",
"1382 -28 OFFCURVE",
"1512 -28 CURVE SMOOTH"
);
},
{
closed = 1;
nodes = (
"1100 -28 OFFCURVE",
"1380 262 OFFCURVE",
"1526 688 CURVE",
"1368 776 LINE",
"1232 438 OFFCURVE",
"1018 186 OFFCURVE",
"722 186 CURVE SMOOTH",
"546 186 OFFCURVE",
"444 274 OFFCURVE",
"444 384 CURVE SMOOTH",
"444 490 OFFCURVE",
"530 556 OFFCURVE",
"734 574 CURVE",
"658 702 LINE",
"360 678 OFFCURVE",
"184 576 OFFCURVE",
"184 370 CURVE SMOOTH",
"184 144 OFFCURVE",
"424 -28 OFFCURVE",
"720 -28 CURVE SMOOTH"
);
}
);
width = 1930;
},
{
layerId = "1A474BE3-B501-44F4-8DAE-2FAB2708ADF8";
paths = (
{
closed = 1;
nodes = (
"1636 -24 OFFCURVE",
"1726 88 OFFCURVE",
"1736 278 CURVE",
"1588 278 LINE",
"1580 160 OFFCURVE",
"1522 114 OFFCURVE",
"1454 114 CURVE SMOOTH",
"1392 114 OFFCURVE",
"1358 134 OFFCURVE",
"1304 180 CURVE SMOOTH",
"652 754 LINE SMOOTH",
"572 824 OFFCURVE",
"540 888 OFFCURVE",
"540 960 CURVE SMOOTH",
"540 1058 OFFCURVE",
"614 1144 OFFCURVE",
"758 1144 CURVE SMOOTH",
"878 1144 OFFCURVE",
"958 1072 OFFCURVE",
"958 976 CURVE SMOOTH",
"958 874 OFFCURVE",
"904 790 OFFCURVE",
"680 692 CURVE",
"766 610 LINE",
"1026 714 OFFCURVE",
"1130 830 OFFCURVE",
"1130 986 CURVE SMOOTH",
"1130 1150 OFFCURVE",
"982 1276 OFFCURVE",
"758 1276 CURVE SMOOTH",
"518 1276 OFFCURVE",
"370 1152 OFFCURVE",
"370 982 CURVE SMOOTH",
"370 874 OFFCURVE",
"428 772 OFFCURVE",
"524 688 CURVE SMOOTH",
"1180 110 LINE SMOOTH",
"1282 18 OFFCURVE",
"1364 -24 OFFCURVE",
"1466 -24 CURVE SMOOTH"
);
},
{
closed = 1;
nodes = (
"1064 -24 OFFCURVE",
"1316 294 OFFCURVE",
"1448 700 CURVE",
"1338 760 LINE",
"1214 406 OFFCURVE",
"996 116 OFFCURVE",
"672 116 CURVE SMOOTH",
"462 116 OFFCURVE",
"348 224 OFFCURVE",
"348 354 CURVE SMOOTH",
"348 486 OFFCURVE",
"456 558 OFFCURVE",
"690 582 CURVE",
"652 674 LINE",
"344 648 OFFCURVE",
"178 552 OFFCURVE",
"178 348 CURVE SMOOTH",
"178 140 OFFCURVE",
"388 -24 OFFCURVE",
"670 -24 CURVE SMOOTH"
);
}
);
width = 1829;
}
);
unicode = 0026;
},
{
glyphname = at;
lastChange = "2019-05-13 18:40:05 +0000";
layers = (
{
layerId = "B502AB2C-259B-4691-A7E9-F302DF43C341";
paths = (
{
closed = 1;
nodes = (
"1138 -242 LINE",
"646 -242 OFFCURVE",
"372 26 OFFCURVE",
"372 404 CURVE SMOOTH",
"372 806 OFFCURVE",
"676 1112 OFFCURVE",
"1118 1112 CURVE SMOOTH",
"1500 1112 OFFCURVE",
"1714 882 OFFCURVE",
"1714 586 CURVE SMOOTH",
"1714 306 OFFCURVE",
"1560 198 OFFCURVE",
"1478 198 CURVE SMOOTH",
"1430 198 OFFCURVE",
"1406 226 OFFCURVE",
"1406 300 CURVE SMOOTH",
"1406 562 LINE SMOOTH",
"1406 774 OFFCURVE",
"1294 880 OFFCURVE",
"1118 880 CURVE SMOOTH",
"858 880 OFFCURVE",
"636 664 OFFCURVE",
"636 384 CURVE SMOOTH",
"636 168 OFFCURVE",
"798 14 OFFCURVE",
"966 14 CURVE SMOOTH",
"1104 14 OFFCURVE",
"1172 78 OFFCURVE",
"1224 178 CURVE",
"1236 146 LINE SMOOTH",
"1260 64 OFFCURVE",
"1344 14 OFFCURVE",
"1470 14 CURVE SMOOTH",
"1710 14 OFFCURVE",
"1952 218 OFFCURVE",
"1952 586 CURVE SMOOTH",
"1952 998 OFFCURVE",
"1616 1324 OFFCURVE",
"1118 1324 CURVE SMOOTH",
"554 1324 OFFCURVE",
"134 960 OFFCURVE",
"134 420 CURVE SMOOTH",
"134 -58 OFFCURVE",
"530 -434 OFFCURVE",
"1138 -434 CURVE"
);
},
{
closed = 1;
nodes = (
"920 204 OFFCURVE",
"848 270 OFFCURVE",
"848 388 CURVE SMOOTH",
"848 580 OFFCURVE",
"994 698 OFFCURVE",
"1110 698 CURVE SMOOTH",
"1192 698 OFFCURVE",
"1218 642 OFFCURVE",
"1218 560 CURVE SMOOTH",
"1218 360 LINE",
"1162 256 OFFCURVE",
"1108 204 OFFCURVE",
"1014 204 CURVE SMOOTH"
);
}
);
width = 2053;
},
{
layerId = "1A474BE3-B501-44F4-8DAE-2FAB2708ADF8";
paths = (
{
closed = 1;
nodes = (
"1088 -234 LINE",
"594 -234 OFFCURVE",
"294 36 OFFCURVE",
"294 440 CURVE SMOOTH",
"294 822 OFFCURVE",
"582 1140 OFFCURVE",
"1020 1140 CURVE SMOOTH",
"1394 1140 OFFCURVE",
"1624 906 OFFCURVE",
"1624 592 CURVE SMOOTH",
"1624 318 OFFCURVE",
"1466 172 OFFCURVE",
"1358 172 CURVE SMOOTH",
"1304 172 OFFCURVE",
"1280 204 OFFCURVE",
"1280 276 CURVE SMOOTH",
"1280 580 LINE SMOOTH",
"1280 774 OFFCURVE",
"1178 870 OFFCURVE",
"1022 870 CURVE SMOOTH",
"786 870 OFFCURVE",
"576 670 OFFCURVE",
"576 402 CURVE SMOOTH",
"576 194 OFFCURVE",
"732 56 OFFCURVE",
"892 56 CURVE SMOOTH",
"1028 56 OFFCURVE",
"1102 130 OFFCURVE",
"1150 228 CURVE",
"1156 198 LINE SMOOTH",
"1170 106 OFFCURVE",
"1242 56 OFFCURVE",
"1354 56 CURVE SMOOTH",
"1572 56 OFFCURVE",
"1784 262 OFFCURVE",
"1784 592 CURVE SMOOTH",
"1784 972 OFFCURVE",
"1476 1278 OFFCURVE",
"1020 1278 CURVE SMOOTH",
"502 1278 OFFCURVE",
"134 930 OFFCURVE",
"134 448 CURVE SMOOTH",
"134 -16 OFFCURVE",
"512 -360 OFFCURVE",
"1088 -360 CURVE"
);
},
{
closed = 1;
nodes = (
"806 182 OFFCURVE",
"724 264 OFFCURVE",
"724 404 CURVE SMOOTH",
"724 618 OFFCURVE",
"890 748 OFFCURVE",
"1018 748 CURVE SMOOTH",
"1112 748 OFFCURVE",
"1148 692 OFFCURVE",
"1148 580 CURVE SMOOTH",
"1148 366 LINE",
"1088 248 OFFCURVE",
"1024 182 OFFCURVE",
"918 182 CURVE SMOOTH"
);
}
);
width = 1877;
}
);
unicode = 0040;
},
{
glyphname = dieresis;
lastChange = "2019-05-13 18:40:05 +0000";
layers = (
{
anchors = (
{
name = _above;
position = "{380, 1366}";
}
);
layerId = "B502AB2C-259B-4691-A7E9-F302DF43C341";
paths = (
{
closed = 1;
nodes = (
"654 1540 OFFCURVE",
"714 1596 OFFCURVE",
"714 1672 CURVE SMOOTH",
"714 1748 OFFCURVE",
"654 1806 OFFCURVE",
"572 1806 CURVE SMOOTH",
"494 1806 OFFCURVE",
"432 1748 OFFCURVE",
"432 1672 CURVE SMOOTH",
"432 1596 OFFCURVE",
"494 1540 OFFCURVE",
"572 1540 CURVE SMOOTH"
);
},
{
closed = 1;
nodes = (
"270 1540 OFFCURVE",
"330 1596 OFFCURVE",
"330 1670 CURVE SMOOTH",
"330 1748 OFFCURVE",
"270 1804 OFFCURVE",
"188 1804 CURVE SMOOTH",
"106 1804 OFFCURVE",
"48 1748 OFFCURVE",
"48 1670 CURVE SMOOTH",
"48 1596 OFFCURVE",
"106 1540 OFFCURVE",
"188 1540 CURVE SMOOTH"
);
}
);
width = 764;
},
{
anchors = (
{
name = _above;
position = "{320, 1360}";
}
);
layerId = "1A474BE3-B501-44F4-8DAE-2FAB2708ADF8";
paths = (
{
closed = 1;
nodes = (
"546 1558 OFFCURVE",
"592 1600 OFFCURVE",
"592 1656 CURVE SMOOTH",
"592 1712 OFFCURVE",
"546 1758 OFFCURVE",
"486 1758 CURVE SMOOTH",
"428 1758 OFFCURVE",
"382 1712 OFFCURVE",
"382 1656 CURVE SMOOTH",
"382 1600 OFFCURVE",
"428 1558 OFFCURVE",
"486 1558 CURVE SMOOTH"
);
},
{
closed = 1;
nodes = (
"212 1558 OFFCURVE",
"258 1600 OFFCURVE",
"258 1654 CURVE SMOOTH",
"258 1712 OFFCURVE",
"212 1756 OFFCURVE",
"152 1756 CURVE SMOOTH",
"92 1756 OFFCURVE",
"48 1712 OFFCURVE",
"48 1654 CURVE SMOOTH",
"48 1600 OFFCURVE",
"92 1558 OFFCURVE",
"152 1558 CURVE SMOOTH"
);
}
);
width = 643;
}
);
unicode = 00A8;
},
{
glyphname = dotlessi;
lastChange = "2019-05-13 18:40:05 +0000";
layers = (
{
anchors = (
{
name = above;
position = "{304, 1052}";
}
);
layerId = "B502AB2C-259B-4691-A7E9-F302DF43C341";
paths = (
{
closed = 1;
nodes = (
"422 0 LINE",
"422 974 LINE",
"186 974 LINE",
"186 0 LINE"
);
}
);
width = 609;
},
{
anchors = (
{
name = above;
position = "{280, 1012}";
}
);
layerId = "1A474BE3-B501-44F4-8DAE-2FAB2708ADF8";
paths = (
{
closed = 1;
nodes = (
"358 0 LINE",
"358 958 LINE",
"202 958 LINE",
"202 0 LINE"
);
}
);
width = 560;
}
);
unicode = 0131;
},
{
glyphname = Rupee;
lastChange = "2019-05-13 18:40:05 +0000";
layers = (
{
layerId = "B502AB2C-259B-4691-A7E9-F302DF43C341";
paths = (
{
closed = 1;
nodes = (
"1092 1166 LINE",
"1092 1298 LINE",
"166 1298 LINE",
"166 1166 LINE"
);
},
{
closed = 1;
nodes = (
"1092 844 LINE",
"1092 978 LINE",
"166 978 LINE",
"166 844 LINE"
);
},
{
closed = 1;
nodes = (
"166 492 LINE",
"678 0 LINE",
"1008 0 LINE",
"360 626 LINE",
"166 626 LINE"
);
},
{
closed = 1;
nodes = (
"244 492 LINE",
"304 492 LINE SMOOTH",
"730 492 OFFCURVE",
"890 666 OFFCURVE",
"890 896 CURVE SMOOTH",
"890 1112 OFFCURVE",
"692 1260 OFFCURVE",
"304 1260 CURVE SMOOTH",
"244 1260 LINE",
"244 1166 LINE",
"304 1166 LINE SMOOTH",
"536 1166 OFFCURVE",
"636 1050 OFFCURVE",
"636 896 CURVE SMOOTH",
"636 742 OFFCURVE",
"536 626 OFFCURVE",
"304 626 CURVE SMOOTH",
"244 626 LINE"
);
}
);
width = 1208;
},
{
layerId = "1A474BE3-B501-44F4-8DAE-2FAB2708ADF8";
paths = (
{
closed = 1;
nodes = (
"1014 1160 LINE",
"1014 1256 LINE",
"184 1256 LINE",
"184 1160 LINE"
);
},
{
closed = 1;
nodes = (
"1014 856 LINE",
"1014 954 LINE",
"184 954 LINE",
"184 856 LINE"
);
},
{
closed = 1;
nodes = (
"184 494 LINE",
"726 0 LINE",
"946 0 LINE",
"298 592 LINE",
"184 592 LINE"
);
},
{
closed = 1;
nodes = (
"238 494 LINE",
"306 494 LINE SMOOTH",
"682 494 OFFCURVE",
"826 666 OFFCURVE",
"826 878 CURVE SMOOTH",
"826 1082 OFFCURVE",
"658 1230 OFFCURVE",
"306 1230 CURVE SMOOTH",
"238 1230 LINE",
"238 1160 LINE",
"306 1160 LINE SMOOTH",
"548 1160 OFFCURVE",
"658 1040 OFFCURVE",
"658 878 CURVE SMOOTH",
"658 716 OFFCURVE",
"548 592 OFFCURVE",
"306 592 CURVE SMOOTH",
"238 592 LINE"
);
}
);
width = 1161;
}
);
unicode = 20B9;
},
{
glyphname = less;
lastChange = "2019-05-13 18:40:05 +0000";
layers = (
{
layerId = "B502AB2C-259B-4691-A7E9-F302DF43C341";
paths = (
{
closed = 1;
nodes = (
"90 750 LINE",
"90 538 LINE",
"758 56 LINE",
"914 236 LINE",
"260 694 LINE",
"260 594 LINE",
"914 1054 LINE",
"758 1234 LINE"
);
}
);
width = 1004;
},
{
layerId = "1A474BE3-B501-44F4-8DAE-2FAB2708ADF8";
paths = (
{
closed = 1;
nodes = (
"82 678 LINE",
"82 542 LINE",
"712 80 LINE",
"814 202 LINE",
"192 642 LINE",
"192 578 LINE",
"814 1022 LINE",
"712 1142 LINE"
);
}
);
width = 906;
}
);
unicode = 003C;
},
{
glyphname = greater;
lastChange = "2019-05-13 18:40:05 +0000";
layers = (
{
layerId = "B502AB2C-259B-4691-A7E9-F302DF43C341";
paths = (
{
closed = 1;
nodes = (
"914 538 LINE",
"914 750 LINE",
"246 1234 LINE",
"90 1054 LINE",
"742 594 LINE",
"742 694 LINE",
"90 236 LINE",
"246 56 LINE"
);
}
);
width = 1004;
},
{
layerId = "1A474BE3-B501-44F4-8DAE-2FAB2708ADF8";
paths = (
{
closed = 1;
nodes = (
"826 542 LINE",
"826 678 LINE",
"196 1142 LINE",
"94 1022 LINE",
"712 578 LINE",
"712 642 LINE",
"94 202 LINE",
"196 80 LINE"
);
}
);
width = 906;
}
);
unicode = 003E;
},
{
glyphname = numbersign;
lastChange = "2019-05-13 18:40:05 +0000";
layers = (
{
layerId = "B502AB2C-259B-4691-A7E9-F302DF43C341";
paths = (
{
closed = 1;
nodes = (
"492 66 LINE",
"520 328 LINE",
"792 328 LINE",
"764 66 LINE",
"986 66 LINE",
"1014 328 LINE",
"1202 328 LINE",
"1218 482 LINE",
"1030 482 LINE",
"1062 798 LINE",
"1250 798 LINE",
"1266 952 LINE",
"1080 952 LINE",
"1106 1212 LINE",
"886 1212 LINE",
"858 952 LINE",
"586 952 LINE",
"614 1212 LINE",
"392 1212 LINE",
"364 952 LINE",
"178 952 LINE",
"162 798 LINE",
"348 798 LINE",
"314 482 LINE",
"128 482 LINE",
"114 328 LINE",
"298 328 LINE",
"270 66 LINE"
);
},
{
closed = 1;
nodes = (
"570 798 LINE",
"842 798 LINE",
"808 482 LINE",
"536 482 LINE"
);
}
);
width = 1356;
},
{
layerId = "1A474BE3-B501-44F4-8DAE-2FAB2708ADF8";
paths = (
{
closed = 1;
nodes = (
"422 62 LINE",
"452 340 LINE",
"760 340 LINE",
"730 62 LINE",
"876 62 LINE",
"906 340 LINE",
"1110 340 LINE",
"1122 446 LINE",
"918 446 LINE",
"954 804 LINE",
"1158 804 LINE",
"1170 910 LINE",
"966 910 LINE",
"994 1184 LINE",
"850 1184 LINE",
"820 910 LINE",
"512 910 LINE",
"540 1184 LINE",
"394 1184 LINE",
"366 910 LINE",
"164 910 LINE",
"154 804 LINE",
"354 804 LINE",
"316 446 LINE",
"116 446 LINE",
"106 340 LINE",
"306 340 LINE",
"276 62 LINE"
);
},
{
closed = 1;
nodes = (
"500 804 LINE",
"808 804 LINE",
"770 446 LINE",
"462 446 LINE"
);
}
);
width = 1251;
}
);
unicode = 0023;
},
{
glyphname = asterisk;
lastChange = "2019-05-13 18:40:05 +0000";
layers = (
{
layerId = "B502AB2C-259B-4691-A7E9-F302DF43C341";
paths = (
{
closed = 1;
nodes = (
"264 792 LINE",
"416 994 LINE",
"564 792 LINE",
"682 894 LINE",
"510 1058 LINE",
"728 1132 LINE",
"668 1274 LINE",
"470 1170 LINE",
"494 1408 LINE",
"334 1408 LINE",
"358 1170 LINE",
"160 1270 LINE",
"100 1130 LINE",
"322 1056 LINE",
"150 894 LINE"
);
}
);
width = 818;
},
{
layerId = "1A474BE3-B501-44F4-8DAE-2FAB2708ADF8";
paths = (
{
closed = 1;
nodes = (
"256 776 LINE",
"416 984 LINE",
"574 776 LINE",
"664 854 LINE",
"484 1032 LINE",
"716 1112 LINE",
"668 1220 LINE",
"456 1112 LINE",
"474 1368 LINE",
"354 1368 LINE",
"372 1112 LINE",
"160 1218 LINE",
"112 1112 LINE",
"346 1030 LINE",
"166 854 LINE"
);
}
);
width = 825;
}
);
unicode = 002A;
},
{
glyphname = slash;
lastChange = "2019-05-13 18:40:05 +0000";
layers = (
{
layerId = "B502AB2C-259B-4691-A7E9-F302DF43C341";
paths = (
{
closed = 1;
nodes = (
"344 -160 LINE",
"862 1490 LINE",
"620 1490 LINE",
"106 -160 LINE"
);
}
);
width = 943;
},
{
layerId = "1A474BE3-B501-44F4-8DAE-2FAB2708ADF8";
paths = (
{
closed = 1;
nodes = (
"270 -144 LINE",
"776 1462 LINE",
"616 1462 LINE",
"114 -144 LINE"
);
}
);
width = 863;
}
);
unicode = 002F;
},
{
glyphname = percent;
lastChange = "2019-05-13 18:40:05 +0000";
layers = (
{
layerId = "B502AB2C-259B-4691-A7E9-F302DF43C341";
paths = (
{
closed = 1;
nodes = (
"452 0 LINE",
"1330 1298 LINE",
"1092 1298 LINE",
"212 0 LINE"
);
},
{
closed = 1;
nodes = (
"1298 -22 OFFCURVE",
"1426 78 OFFCURVE",
"1426 282 CURVE SMOOTH",
"1426 486 OFFCURVE",
"1298 586 OFFCURVE",
"1150 586 CURVE SMOOTH",
"1006 586 OFFCURVE",
"878 486 OFFCURVE",
"878 282 CURVE SMOOTH",
"878 78 OFFCURVE",
"1006 -22 OFFCURVE",
"1150 -22 CURVE SMOOTH"
);
},
{
closed = 1;
nodes = (
"1092 130 OFFCURVE",
"1054 170 OFFCURVE",
"1054 282 CURVE SMOOTH",
"1054 392 OFFCURVE",
"1092 436 OFFCURVE",
"1150 436 CURVE SMOOTH",
"1208 436 OFFCURVE",
"1248 392 OFFCURVE",
"1248 282 CURVE SMOOTH",
"1248 170 OFFCURVE",
"1208 130 OFFCURVE",
"1150 130 CURVE SMOOTH"
);
},
{
closed = 1;
nodes = (
"542 718 OFFCURVE",
"670 818 OFFCURVE",
"670 1022 CURVE SMOOTH",
"670 1224 OFFCURVE",
"542 1324 OFFCURVE",
"394 1324 CURVE SMOOTH",
"250 1324 OFFCURVE",
"122 1224 OFFCURVE",
"122 1022 CURVE SMOOTH",
"122 818 OFFCURVE",
"250 718 OFFCURVE",
"394 718 CURVE SMOOTH"
);
},
{
closed = 1;
nodes = (
"336 868 OFFCURVE",
"298 910 OFFCURVE",
"298 1022 CURVE SMOOTH",
"298 1132 OFFCURVE",
"336 1174 OFFCURVE",
"394 1174 CURVE SMOOTH",
"452 1174 OFFCURVE",
"492 1132 OFFCURVE",
"492 1022 CURVE SMOOTH",
"492 910 OFFCURVE",
"452 868 OFFCURVE",
"394 868 CURVE SMOOTH"
);
}
);
width = 1529;
},
{
layerId = "1A474BE3-B501-44F4-8DAE-2FAB2708ADF8";
paths = (
{
closed = 1;
nodes = (
"384 0 LINE",
"1230 1256 LINE",
"1068 1256 LINE",
"222 0 LINE"
);
},
{
closed = 1;
nodes = (
"1214 -20 OFFCURVE",
"1334 78 OFFCURVE",
"1334 268 CURVE SMOOTH",
"1334 456 OFFCURVE",
"1214 554 OFFCURVE",
"1076 554 CURVE SMOOTH",
"944 554 OFFCURVE",
"822 456 OFFCURVE",
"822 268 CURVE SMOOTH",
"822 78 OFFCURVE",
"944 -20 OFFCURVE",
"1076 -20 CURVE SMOOTH"
);
},
{
closed = 1;
nodes = (
"998 88 OFFCURVE",
"946 142 OFFCURVE",
"946 268 CURVE SMOOTH",
"946 390 OFFCURVE",
"998 448 OFFCURVE",
"1076 448 CURVE SMOOTH",
"1154 448 OFFCURVE",
"1208 390 OFFCURVE",
"1208 268 CURVE SMOOTH",
"1208 142 OFFCURVE",
"1154 88 OFFCURVE",
"1076 88 CURVE SMOOTH"
);
},
{
closed = 1;
nodes = (
"512 706 OFFCURVE",
"634 804 OFFCURVE",
"634 992 CURVE SMOOTH",
"634 1180 OFFCURVE",
"512 1278 OFFCURVE",
"376 1278 CURVE SMOOTH",
"244 1278 OFFCURVE",
"122 1180 OFFCURVE",
"122 992 CURVE SMOOTH",
"122 804 OFFCURVE",
"244 706 OFFCURVE",
"376 706 CURVE SMOOTH"
);
},
{
closed = 1;
nodes = (
"298 812 OFFCURVE",
"246 868 OFFCURVE",
"246 992 CURVE SMOOTH",
"246 1116 OFFCURVE",
"298 1174 OFFCURVE",
"376 1174 CURVE SMOOTH",
"452 1174 OFFCURVE",
"506 1116 OFFCURVE",
"506 992 CURVE SMOOTH",
"506 868 OFFCURVE",
"452 812 OFFCURVE",
"376 812 CURVE SMOOTH"
);
}
);
width = 1451;
}
);
unicode = 0025;
},
{
glyphname = bar;
lastChange = "2019-05-13 18:40:05 +0000";
layers = (
{
layerId = "B502AB2C-259B-4691-A7E9-F302DF43C341";
paths = (
{
closed = 1;
nodes = (
"422 -244 LINE",
"422 1540 LINE",
"186 1540 LINE",
"186 -244 LINE"
);
}
);
width = 609;
},
{
layerId = "1A474BE3-B501-44F4-8DAE-2FAB2708ADF8";
paths = (
{
closed = 1;
nodes = (
"358 -244 LINE",
"358 1500 LINE",
"202 1500 LINE",
"202 -244 LINE"
);
}
);
width = 560;
}
);
unicode = 007C;
},
{
glyphname = bracketleft;
lastChange = "2019-05-13 18:40:05 +0000";
layers = (
{
layerId = "B502AB2C-259B-4691-A7E9-F302DF43C341";
paths = (
{
closed = 1;
nodes = (
"680 -282 LINE",
"680 -68 LINE",
"422 -68 LINE",
"422 1366 LINE",
"680 1366 LINE",
"680 1580 LINE",
"186 1580 LINE",
"186 -282 LINE"
);
}
);
width = 704;
},
{
layerId = "1A474BE3-B501-44F4-8DAE-2FAB2708ADF8";
paths = (
{
closed = 1;
nodes = (
"596 -202 LINE",
"596 -64 LINE",
"358 -64 LINE",
"358 1322 LINE",
"596 1322 LINE",
"596 1460 LINE",
"202 1460 LINE",
"202 -202 LINE"
);
}
);
width = 632;
}
);
unicode = 005B;
},
{
glyphname = asciicircum;
lastChange = "2019-05-13 18:40:05 +0000";
layers = (
{
layerId = "B502AB2C-259B-4691-A7E9-F302DF43C341";
paths = (
{
closed = 1;
nodes = (
"300 436 LINE",
"576 1026 LINE",
"486 1026 LINE",
"762 436 LINE",
"1022 436 LINE",
"626 1206 LINE",
"436 1206 LINE",
"40 436 LINE"
);
}
);
width = 1054;
},
{
layerId = "1A474BE3-B501-44F4-8DAE-2FAB2708ADF8";
paths = (
{
closed = 1;
nodes = (
"218 490 LINE",
"482 1046 LINE",
"424 1046 LINE",
"690 490 LINE",
"864 490 LINE",
"514 1172 LINE",
"392 1172 LINE",
"42 490 LINE"
);
}
);
width = 892;
}
);
unicode = 005E;
},
{
glyphname = braceleft;
lastChange = "2019-05-13 18:40:05 +0000";
layers = (
{
layerId = "B502AB2C-259B-4691-A7E9-F302DF43C341";
paths = (
{
closed = 1;
nodes = (
"774 -98 LINE",
"578 -98 OFFCURVE",
"492 -6 OFFCURVE",
"492 194 CURVE SMOOTH",
"492 386 LINE SMOOTH",
"492 514 OFFCURVE",
"436 596 OFFCURVE",
"360 634 CURVE",
"360 644 LINE",
"436 682 OFFCURVE",
"492 764 OFFCURVE",
"492 892 CURVE SMOOTH",
"492 1084 LINE SMOOTH",
"492 1284 OFFCURVE",
"578 1376 OFFCURVE",
"774 1376 CURVE",
"774 1588 LINE",
"410 1588 OFFCURVE",
"258 1382 OFFCURVE",
"258 1088 CURVE SMOOTH",
"258 904 LINE SMOOTH",
"258 792 OFFCURVE",
"244 758 OFFCURVE",
"192 758 CURVE SMOOTH",
"142 758 LINE",
"142 520 LINE",
"192 520 LINE SMOOTH",
"244 520 OFFCURVE",
"258 484 OFFCURVE",
"258 374 CURVE SMOOTH",
"258 192 LINE SMOOTH",
"258 -102 OFFCURVE",
"410 -312 OFFCURVE",
"774 -312 CURVE"
);
}
);
width = 782;
},
{
layerId = "1A474BE3-B501-44F4-8DAE-2FAB2708ADF8";
paths = (
{
closed = 1;
nodes = (
"680 -138 LINE",
"484 -138 OFFCURVE",
"410 -22 OFFCURVE",
"410 194 CURVE SMOOTH",
"410 380 LINE SMOOTH",
"410 504 OFFCURVE",
"368 574 OFFCURVE",
"306 606 CURVE",
"306 612 LINE",
"368 644 OFFCURVE",
"410 714 OFFCURVE",
"410 838 CURVE SMOOTH",
"410 1024 LINE SMOOTH",
"410 1240 OFFCURVE",
"484 1356 OFFCURVE",
"680 1356 CURVE",
"680 1494 LINE",
"370 1494 OFFCURVE",
"256 1298 OFFCURVE",
"256 1026 CURVE SMOOTH",
"256 842 LINE SMOOTH",
"256 726 OFFCURVE",
"236 684 OFFCURVE",
"184 684 CURVE SMOOTH",
"150 684 LINE",
"150 532 LINE",
"184 532 LINE SMOOTH",
"236 532 OFFCURVE",
"256 490 OFFCURVE",
"256 374 CURVE SMOOTH",
"256 192 LINE SMOOTH",
"256 -78 OFFCURVE",
"370 -276 OFFCURVE",
"680 -276 CURVE"
);
}
);
width = 696;
}
);
unicode = 007B;
},
{
glyphname = asciitilde;
lastChange = "2019-05-13 18:40:05 +0000";
layers = (
{
anchors = (
{
name = _above;
position = "{580, 322}";
}
);
layerId = "B502AB2C-259B-4691-A7E9-F302DF43C341";
paths = (
{
closed = 1;
nodes = (
"274 496 OFFCURVE",
"316 530 OFFCURVE",
"368 530 CURVE SMOOTH",
"408 530 OFFCURVE",
"448 514 OFFCURVE",
"546 480 CURVE SMOOTH",
"644 440 OFFCURVE",
"706 424 OFFCURVE",
"750 424 CURVE SMOOTH",
"874 424 OFFCURVE",
"970 508 OFFCURVE",
"1024 678 CURVE",
"898 758 LINE",
"866 686 OFFCURVE",
"820 648 OFFCURVE",
"768 648 CURVE SMOOTH",
"728 648 OFFCURVE",
"682 662 OFFCURVE",
"586 700 CURVE SMOOTH",
"488 738 OFFCURVE",
"428 756 OFFCURVE",
"370 756 CURVE SMOOTH",
"238 756 OFFCURVE",
"160 648 OFFCURVE",
"114 476 CURVE",
"240 408 LINE"
);
}
);
width = 1139;
},
{
anchors = (
{
name = _above;
position = "{546, 350}";
}
);
layerId = "1A474BE3-B501-44F4-8DAE-2FAB2708ADF8";
paths = (
{
closed = 1;
nodes = (
"228 534 OFFCURVE",
"270 564 OFFCURVE",
"316 564 CURVE SMOOTH",
"354 564 OFFCURVE",
"390 550 OFFCURVE",
"498 510 CURVE SMOOTH",
"598 470 OFFCURVE",
"656 454 OFFCURVE",
"696 454 CURVE SMOOTH",
"794 454 OFFCURVE",
"874 518 OFFCURVE",
"922 664 CURVE",
"838 718 LINE",
"804 642 OFFCURVE",
"756 604 OFFCURVE",
"706 604 CURVE SMOOTH",
"668 604 OFFCURVE",
"630 614 OFFCURVE",
"520 658 CURVE SMOOTH",
"418 698 OFFCURVE",
"368 714 OFFCURVE",
"320 714 CURVE SMOOTH",
"222 714 OFFCURVE",
"150 636 OFFCURVE",
"106 492 CURVE",
"192 446 LINE"
);
}
);
width = 1029;
}
);
unicode = 007E;
},
{
glyphname = zero.tf;
lastChange = "2019-05-13 18:40:05 +0000";
layers = (
{
layerId = "B502AB2C-259B-4691-A7E9-F302DF43C341";
paths = (
{
closed = 1;
nodes = (
"916 -28 OFFCURVE",
"1138 192 OFFCURVE",
"1138 648 CURVE SMOOTH",
"1138 1106 OFFCURVE",
"916 1324 OFFCURVE",
"600 1324 CURVE SMOOTH",
"282 1324 OFFCURVE",
"62 1106 OFFCURVE",
"62 648 CURVE SMOOTH",
"62 192 OFFCURVE",
"282 -28 OFFCURVE",
"600 -28 CURVE SMOOTH"
);
},
{
closed = 1;
nodes = (
"414 188 OFFCURVE",
"304 350 OFFCURVE",
"304 648 CURVE SMOOTH",
"304 946 OFFCURVE",
"414 1110 OFFCURVE",
"600 1110 CURVE SMOOTH",
"788 1110 OFFCURVE",
"896 946 OFFCURVE",
"896 648 CURVE SMOOTH",
"896 350 OFFCURVE",
"788 188 OFFCURVE",
"600 188 CURVE SMOOTH"
);
}
);
width = 1200;
},
{
layerId = "1A474BE3-B501-44F4-8DAE-2FAB2708ADF8";
paths = (
{
closed = 1;
nodes = (
"894 -24 OFFCURVE",
"1092 192 OFFCURVE",
"1092 628 CURVE SMOOTH",
"1092 1064 OFFCURVE",
"894 1278 OFFCURVE",
"600 1278 CURVE SMOOTH",
"304 1278 OFFCURVE",
"108 1064 OFFCURVE",
"108 628 CURVE SMOOTH",
"108 192 OFFCURVE",
"304 -24 OFFCURVE",
"600 -24 CURVE SMOOTH"
);
},
{
closed = 1;
nodes = (
"386 120 OFFCURVE",
"270 304 OFFCURVE",
"270 628 CURVE SMOOTH",
"270 952 OFFCURVE",
"386 1136 OFFCURVE",
"600 1136 CURVE SMOOTH",
"816 1136 OFFCURVE",
"930 952 OFFCURVE",
"930 628 CURVE SMOOTH",
"930 304 OFFCURVE",
"816 120 OFFCURVE",
"600 120 CURVE SMOOTH"
);
}
);
width = 1200;
}
);
},
{
glyphname = one.tf;
lastChange = "2019-05-13 18:40:05 +0000";
layers = (
{
layerId = "B502AB2C-259B-4691-A7E9-F302DF43C341";
paths = (
{
closed = 1;
nodes = (
"970 0 LINE",
"970 182 LINE",
"658 182 LINE",
"722 120 LINE",
"722 1306 LINE",
"542 1306 LINE",
"454 1240 OFFCURVE",
"368 1210 OFFCURVE",
"280 1200 CURVE",
"280 974 LINE",
"366 976 OFFCURVE",
"452 1002 OFFCURVE",
"548 1054 CURVE",
"486 1098 LINE",
"486 120 LINE",
"548 182 LINE",
"238 182 LINE",
"238 0 LINE"
);
}
);
width = 1200;
},
{
layerId = "1A474BE3-B501-44F4-8DAE-2FAB2708ADF8";
paths = (
{
closed = 1;
nodes = (
"936 0 LINE",
"936 126 LINE",
"642 126 LINE",
"680 90 LINE",
"680 1260 LINE",
"552 1260 LINE",
"482 1200 OFFCURVE",
"402 1170 OFFCURVE",
"318 1158 CURVE",
"318 1006 LINE",
"406 1010 OFFCURVE",
"498 1046 OFFCURVE",
"576 1114 CURVE",
"524 1136 LINE",
"524 90 LINE",
"560 126 LINE",
"268 126 LINE",
"268 0 LINE"
);
}
);
width = 1200;
}
);
},
{
glyphname = two.tf;
lastChange = "2019-05-13 18:40:05 +0000";
layers = (
{
layerId = "B502AB2C-259B-4691-A7E9-F302DF43C341";
paths = (
{
closed = 1;
nodes = (
"1086 0 LINE",
"1086 216 LINE",
"344 216 LINE",
"344 254 LINE SMOOTH",
"344 332 OFFCURVE",
"388 376 OFFCURVE",
"492 416 CURVE SMOOTH",
"762 520 LINE SMOOTH",
"986 606 OFFCURVE",
"1094 730 OFFCURVE",
"1094 930 CURVE SMOOTH",
"1094 1166 OFFCURVE",
"888 1324 OFFCURVE",
"626 1324 CURVE SMOOTH",
"348 1324 OFFCURVE",
"136 1194 OFFCURVE",
"130 928 CURVE",
"392 928 LINE",
"404 1052 OFFCURVE",
"500 1118 OFFCURVE",
"630 1118 CURVE SMOOTH",
"766 1118 OFFCURVE",
"840 1040 OFFCURVE",
"840 940 CURVE SMOOTH",
"840 840 OFFCURVE",
"786 774 OFFCURVE",
"670 728 CURVE SMOOTH",
"404 626 LINE SMOOTH",
"206 548 OFFCURVE",
"108 440 OFFCURVE",
"108 222 CURVE SMOOTH",
"108 0 LINE"
);
}
);
width = 1200;
},
{
layerId = "1A474BE3-B501-44F4-8DAE-2FAB2708ADF8";
paths = (
{
closed = 1;
nodes = (
"1038 0 LINE",
"1038 144 LINE",
"310 144 LINE",
"310 204 LINE SMOOTH",
"310 314 OFFCURVE",
"372 376 OFFCURVE",
"500 428 CURVE SMOOTH",
"756 530 LINE SMOOTH",
"936 604 OFFCURVE",
"1050 718 OFFCURVE",
"1050 912 CURVE SMOOTH",
"1050 1126 OFFCURVE",
"870 1278 OFFCURVE",
"626 1278 CURVE SMOOTH",
"362 1278 OFFCURVE",
"188 1156 OFFCURVE",
"176 938 CURVE",
"348 938 LINE",
"364 1072 OFFCURVE",
"472 1140 OFFCURVE",
"628 1140 CURVE SMOOTH",
"788 1140 OFFCURVE",
"882 1050 OFFCURVE",
"882 922 CURVE SMOOTH",
"882 800 OFFCURVE",
"816 722 OFFCURVE",
"688 670 CURVE SMOOTH",
"440 572 LINE SMOOTH",
"266 502 OFFCURVE",
"154 404 OFFCURVE",
"154 186 CURVE SMOOTH",
"154 0 LINE"
);
}
);
width = 1200;
}
);
},
{
glyphname = three.tf;
lastChange = "2019-05-13 18:40:05 +0000";
layers = (
{
layerId = "B502AB2C-259B-4691-A7E9-F302DF43C341";
paths = (
{
closed = 1;
nodes = (
"918 -28 OFFCURVE",
"1122 134 OFFCURVE",
"1122 364 CURVE SMOOTH",
"1122 520 OFFCURVE",
"1020 626 OFFCURVE",
"864 680 CURVE",
"1004 728 OFFCURVE",
"1078 830 OFFCURVE",
"1078 962 CURVE SMOOTH",
"1078 1176 OFFCURVE",
"870 1324 OFFCURVE",
"590 1324 CURVE SMOOTH",
"322 1324 OFFCURVE",
"124 1210 OFFCURVE",
"96 944 CURVE",
"346 944 LINE",
"370 1066 OFFCURVE",
"476 1110 OFFCURVE",
"598 1110 CURVE SMOOTH",
"748 1110 OFFCURVE",
"824 1034 OFFCURVE",
"824 934 CURVE SMOOTH",
"824 822 OFFCURVE",
"730 752 OFFCURVE",
"580 752 CURVE SMOOTH",
"432 752 LINE",
"432 566 LINE",
"606 566 LINE SMOOTH",
"784 566 OFFCURVE",
"868 498 OFFCURVE",
"868 386 CURVE SMOOTH",
"868 272 OFFCURVE",
"770 188 OFFCURVE",
"608 188 CURVE SMOOTH",
"442 188 OFFCURVE",
"328 272 OFFCURVE",
"320 408 CURVE",
"70 408 LINE",
"70 122 OFFCURVE",
"334 -28 OFFCURVE",
"608 -28 CURVE SMOOTH"
);
}
);
width = 1200;
},
{
layerId = "1A474BE3-B501-44F4-8DAE-2FAB2708ADF8";
paths = (
{
closed = 1;
nodes = (
"892 -24 OFFCURVE",
"1068 130 OFFCURVE",
"1068 346 CURVE SMOOTH",
"1068 508 OFFCURVE",
"958 612 OFFCURVE",
"798 658 CURVE",
"940 708 OFFCURVE",
"1018 804 OFFCURVE",
"1018 936 CURVE SMOOTH",
"1018 1136 OFFCURVE",
"834 1278 OFFCURVE",
"586 1278 CURVE SMOOTH",
"362 1278 OFFCURVE",
"184 1186 OFFCURVE",
"152 952 CURVE",
"314 952 LINE",
"348 1092 OFFCURVE",
"458 1136 OFFCURVE",
"590 1136 CURVE SMOOTH",
"756 1136 OFFCURVE",
"850 1042 OFFCURVE",
"850 922 CURVE SMOOTH",
"850 786 OFFCURVE",
"730 704 OFFCURVE",
"538 704 CURVE SMOOTH",
"440 704 LINE",
"440 580 LINE",
"584 580 LINE SMOOTH",
"808 580 OFFCURVE",
"900 488 OFFCURVE",
"900 358 CURVE SMOOTH",
"900 222 OFFCURVE",
"790 120 OFFCURVE",
"606 120 CURVE SMOOTH",
"424 120 OFFCURVE",
"282 212 OFFCURVE",
"278 384 CURVE",
"116 384 LINE",
"116 118 OFFCURVE",
"352 -24 OFFCURVE",
"606 -24 CURVE SMOOTH"
);
}
);
width = 1200;
}
);
},
{
glyphname = four.tf;
lastChange = "2019-05-13 18:40:05 +0000";
layers = (
{
layerId = "B502AB2C-259B-4691-A7E9-F302DF43C341";
paths = (
{
closed = 1;
nodes = (
"54 466 LINE",
"54 288 LINE",
"776 288 LINE",
"700 350 LINE",
"700 0 LINE",
"932 0 LINE",
"932 350 LINE",
"884 288 LINE",
"1132 288 LINE",
"1132 466 LINE",
"882 466 LINE",
"932 428 LINE",
"932 1312 LINE",
"704 1312 LINE"
);
},
{
closed = 1;
nodes = (
"710 402 LINE",
"786 466 LINE",
"268 466 LINE",
"276 410 LINE",
"780 1060 LINE",
"710 1066 LINE"
);
}
);
width = 1200;
},
{
layerId = "1A474BE3-B501-44F4-8DAE-2FAB2708ADF8";
paths = (
{
closed = 1;
nodes = (
"86 426 LINE",
"86 306 LINE",
"774 306 LINE",
"730 342 LINE",
"730 0 LINE",
"882 0 LINE",
"882 342 LINE",
"854 306 LINE",
"1088 306 LINE",
"1088 426 LINE",
"852 426 LINE",
"882 402 LINE",
"882 1274 LINE",
"738 1274 LINE"
);
},
{
closed = 1;
nodes = (
"734 388 LINE",
"778 426 LINE",
"228 426 LINE",
"232 384 LINE",
"798 1112 LINE",
"734 1124 LINE"
);
}
);
width = 1200;
}
);
},
{
glyphname = five.tf;
lastChange = "2019-05-13 18:40:05 +0000";
layers = (
{
layerId = "B502AB2C-259B-4691-A7E9-F302DF43C341";
paths = (
{
closed = 1;
nodes = (
"888 -28 OFFCURVE",
"1082 174 OFFCURVE",
"1082 432 CURVE SMOOTH",
"1082 674 OFFCURVE",
"910 808 OFFCURVE",
"642 808 CURVE SMOOTH",
"578 808 OFFCURVE",
"478 800 OFFCURVE",
"414 786 CURVE",
"434 764 LINE",
"472 1150 LINE",
"426 1082 LINE",
"1014 1082 LINE",
"1014 1298 LINE",
"236 1298 LINE",
"176 632 LINE",
"572 632 LINE SMOOTH",
"750 632 OFFCURVE",
"840 562 OFFCURVE",
"840 432 CURVE SMOOTH",
"840 294 OFFCURVE",
"738 188 OFFCURVE",
"592 188 CURVE SMOOTH",
"456 188 OFFCURVE",
"352 254 OFFCURVE",
"352 388 CURVE",
"112 388 LINE",
"118 122 OFFCURVE",
"312 -28 OFFCURVE",
"592 -28 CURVE SMOOTH"
);
}
);
width = 1200;
},
{
layerId = "1A474BE3-B501-44F4-8DAE-2FAB2708ADF8";
paths = (
{
closed = 1;
nodes = (
"864 -24 OFFCURVE",
"1038 162 OFFCURVE",
"1038 406 CURVE SMOOTH",
"1038 646 OFFCURVE",
"866 768 OFFCURVE",
"596 768 CURVE SMOOTH",
"532 768 OFFCURVE",
"440 762 OFFCURVE",
"376 748 CURVE",
"396 730 LINE",
"438 1168 LINE",
"406 1114 LINE",
"978 1114 LINE",
"978 1256 LINE",
"282 1256 LINE",
"226 648 LINE",
"564 648 LINE SMOOTH",
"768 648 OFFCURVE",
"876 564 OFFCURVE",
"876 406 CURVE SMOOTH",
"876 244 OFFCURVE",
"764 120 OFFCURVE",
"586 120 CURVE SMOOTH",
"430 120 OFFCURVE",
"308 198 OFFCURVE",
"308 350 CURVE",
"150 350 LINE",
"154 108 OFFCURVE",
"348 -24 OFFCURVE",
"586 -24 CURVE SMOOTH"
);
}
);
width = 1200;
}
);
},
{
glyphname = six.tf;
lastChange = "2019-05-13 18:40:05 +0000";
layers = (
{
layerId = "B502AB2C-259B-4691-A7E9-F302DF43C341";
paths = (
{
closed = 1;
nodes = (
"908 -28 OFFCURVE",
"1100 138 OFFCURVE",
"1100 384 CURVE SMOOTH",
"1100 624 OFFCURVE",
"930 796 OFFCURVE",
"686 796 CURVE SMOOTH",
"516 796 OFFCURVE",
"354 720 OFFCURVE",
"322 474 CURVE",
"318 516 OFFCURVE",
"316 566 OFFCURVE",
"316 606 CURVE SMOOTH",
"316 916 OFFCURVE",
"442 1110 OFFCURVE",
"648 1110 CURVE SMOOTH",
"762 1110 OFFCURVE",
"822 1046 OFFCURVE",
"836 942 CURVE",
"1086 942 LINE",
"1076 1172 OFFCURVE",
"898 1324 OFFCURVE",
"640 1324 CURVE SMOOTH",
"304 1324 OFFCURVE",
"78 1072 OFFCURVE",
"78 626 CURVE SMOOTH",
"78 248 OFFCURVE",
"302 -28 OFFCURVE",
"630 -28 CURVE SMOOTH"
);
},
{
closed = 1;
nodes = (
"506 188 OFFCURVE",
"404 270 OFFCURVE",
"404 394 CURVE SMOOTH",
"404 518 OFFCURVE",
"506 602 OFFCURVE",
"628 602 CURVE SMOOTH",
"754 602 OFFCURVE",
"856 524 OFFCURVE",
"856 394 CURVE SMOOTH",
"856 270 OFFCURVE",
"754 188 OFFCURVE",
"630 188 CURVE SMOOTH"
);
}
);
width = 1200;
},
{
layerId = "1A474BE3-B501-44F4-8DAE-2FAB2708ADF8";
paths = (
{
closed = 1;
nodes = (
"870 -24 OFFCURVE",
"1042 132 OFFCURVE",
"1042 364 CURVE SMOOTH",
"1042 594 OFFCURVE",
"870 756 OFFCURVE",
"644 756 CURVE SMOOTH",
"468 756 OFFCURVE",
"302 672 OFFCURVE",
"284 406 CURVE",
"278 462 OFFCURVE",
"276 532 OFFCURVE",
"276 582 CURVE SMOOTH",
"276 924 OFFCURVE",
"412 1136 OFFCURVE",
"642 1136 CURVE SMOOTH",
"776 1136 OFFCURVE",
"844 1060 OFFCURVE",
"864 940 CURVE",
"1032 940 LINE",
"1012 1142 OFFCURVE",
"862 1278 OFFCURVE",
"638 1278 CURVE SMOOTH",
"314 1278 OFFCURVE",
"116 1028 OFFCURVE",
"116 606 CURVE SMOOTH",
"116 248 OFFCURVE",
"314 -24 OFFCURVE",
"616 -24 CURVE SMOOTH"
);
},
{
closed = 1;
nodes = (
"466 120 OFFCURVE",
"352 216 OFFCURVE",
"352 368 CURVE SMOOTH",
"352 512 OFFCURVE",
"466 618 OFFCURVE",
"616 618 CURVE SMOOTH",
"766 618 OFFCURVE",
"880 524 OFFCURVE",
"880 368 CURVE SMOOTH",
"880 216 OFFCURVE",
"766 120 OFFCURVE",
"616 120 CURVE SMOOTH"
);
}
);
width = 1200;
}
);
},
{
glyphname = seven.tf;
lastChange = "2019-05-13 18:40:05 +0000";
layers = (
{
layerId = "B502AB2C-259B-4691-A7E9-F302DF43C341";
paths = (
{
closed = 1;
nodes = (
"140 1070 LINE",
"774 1070 LINE",
"180 0 LINE",
"498 0 LINE",
"1052 1072 LINE",
"1052 1298 LINE",
"140 1298 LINE"
);
}
);
width = 1200;
},
{
layerId = "1A474BE3-B501-44F4-8DAE-2FAB2708ADF8";
paths = (
{
closed = 1;
nodes = (
"162 1108 LINE",
"834 1108 LINE",
"232 0 LINE",
"440 0 LINE",
"1018 1112 LINE",
"1018 1256 LINE",
"162 1256 LINE"
);
}
);
width = 1200;
}
);
},
{
glyphname = eight.tf;
lastChange = "2019-05-13 18:40:05 +0000";
layers = (
{
layerId = "B502AB2C-259B-4691-A7E9-F302DF43C341";
paths = (
{
closed = 1;
nodes = (
"948 -28 OFFCURVE",
"1148 128 OFFCURVE",
"1148 344 CURVE SMOOTH",
"1148 516 OFFCURVE",
"1042 600 OFFCURVE",
"852 674 CURVE SMOOTH",
"470 822 LINE SMOOTH",
"382 854 OFFCURVE",
"338 894 OFFCURVE",
"338 960 CURVE SMOOTH",
"338 1046 OFFCURVE",
"452 1110 OFFCURVE",
"598 1110 CURVE SMOOTH",
"752 1110 OFFCURVE",
"858 1042 OFFCURVE",
"858 936 CURVE SMOOTH",
"858 832 OFFCURVE",
"742 764 OFFCURVE",
"610 764 CURVE",
"610 696 LINE",
"666 678 OFFCURVE",
"704 670 OFFCURVE",
"754 670 CURVE SMOOTH",
"976 670 OFFCURVE",
"1102 802 OFFCURVE",
"1102 952 CURVE SMOOTH",
"1102 1168 OFFCURVE",
"882 1324 OFFCURVE",
"598 1324 CURVE SMOOTH",
"278 1324 OFFCURVE",
"94 1186 OFFCURVE",
"94 970 CURVE SMOOTH",
"94 782 OFFCURVE",
"262 670 OFFCURVE",
"396 620 CURVE SMOOTH",
"766 478 LINE SMOOTH",
"852 444 OFFCURVE",
"904 398 OFFCURVE",
"904 332 CURVE SMOOTH",
"904 248 OFFCURVE",
"806 188 OFFCURVE",
"598 188 CURVE SMOOTH",
"430 188 OFFCURVE",
"294 258 OFFCURVE",
"294 374 CURVE SMOOTH",
"294 474 OFFCURVE",
"416 558 OFFCURVE",
"586 558 CURVE",
"586 616 LINE",
"522 632 OFFCURVE",
"480 642 OFFCURVE",
"424 642 CURVE SMOOTH",
"212 642 OFFCURVE",
"50 534 OFFCURVE",
"50 350 CURVE SMOOTH",
"50 134 OFFCURVE",
"264 -28 OFFCURVE",
"598 -28 CURVE SMOOTH"
);
}
);
width = 1200;
},
{
layerId = "1A474BE3-B501-44F4-8DAE-2FAB2708ADF8";
paths = (
{
closed = 1;
nodes = (
"918 -24 OFFCURVE",
"1104 116 OFFCURVE",
"1104 314 CURVE SMOOTH",
"1104 476 OFFCURVE",
"1004 560 OFFCURVE",
"820 630 CURVE SMOOTH",
"472 762 LINE SMOOTH",
"364 802 OFFCURVE",
"300 850 OFFCURVE",
"300 940 CURVE SMOOTH",
"300 1048 OFFCURVE",
"428 1136 OFFCURVE",
"598 1136 CURVE SMOOTH",
"774 1136 OFFCURVE",
"894 1046 OFFCURVE",
"894 922 CURVE SMOOTH",
"894 792 OFFCURVE",
"768 704 OFFCURVE",
"608 704 CURVE",
"608 654 LINE",
"646 642 OFFCURVE",
"676 638 OFFCURVE",
"712 638 CURVE SMOOTH",
"938 638 OFFCURVE",
"1058 774 OFFCURVE",
"1058 930 CURVE SMOOTH",
"1058 1130 OFFCURVE",
"864 1278 OFFCURVE",
"598 1278 CURVE SMOOTH",
"308 1278 OFFCURVE",
"136 1140 OFFCURVE",
"136 946 CURVE SMOOTH",
"136 774 OFFCURVE",
"290 674 OFFCURVE",
"416 626 CURVE SMOOTH",
"764 494 LINE SMOOTH",
"872 452 OFFCURVE",
"942 398 OFFCURVE",
"942 308 CURVE SMOOTH",
"942 196 OFFCURVE",
"814 120 OFFCURVE",
"598 120 CURVE SMOOTH",
"404 120 OFFCURVE",
"258 202 OFFCURVE",
"258 350 CURVE SMOOTH",
"258 472 OFFCURVE",
"392 582 OFFCURVE",
"590 582 CURVE",
"590 628 LINE",
"548 638 OFFCURVE",
"516 642 OFFCURVE",
"476 642 CURVE SMOOTH",
"258 642 OFFCURVE",
"94 528 OFFCURVE",
"94 338 CURVE SMOOTH",
"94 130 OFFCURVE",
"304 -24 OFFCURVE",
"598 -24 CURVE SMOOTH"
);
}
);
width = 1200;
}
);
},
{
glyphname = nine.tf;
lastChange = "2019-05-13 18:40:05 +0000";
layers = (
{
layerId = "B502AB2C-259B-4691-A7E9-F302DF43C341";
paths = (
{
closed = 1;
nodes = (
"932 -28 OFFCURVE",
"1110 244 OFFCURVE",
"1110 670 CURVE SMOOTH",
"1110 1062 OFFCURVE",
"866 1324 OFFCURVE",
"556 1324 CURVE SMOOTH",
"282 1324 OFFCURVE",
"90 1160 OFFCURVE",
"90 912 CURVE SMOOTH",
"90 672 OFFCURVE",
"260 502 OFFCURVE",
"502 502 CURVE SMOOTH",
"678 502 OFFCURVE",
"826 588 OFFCURVE",
"864 808 CURVE",
"870 766 OFFCURVE",
"872 730 OFFCURVE",
"872 690 CURVE SMOOTH",
"872 388 OFFCURVE",
"788 188 OFFCURVE",
"568 188 CURVE SMOOTH",
"444 188 OFFCURVE",
"354 264 OFFCURVE",
"348 384 CURVE",
"102 384 LINE",
"102 140 OFFCURVE",
"308 -28 OFFCURVE",
"576 -28 CURVE SMOOTH"
);
},
{
closed = 1;
nodes = (
"432 696 OFFCURVE",
"332 772 OFFCURVE",
"332 900 CURVE SMOOTH",
"332 1028 OFFCURVE",
"432 1108 OFFCURVE",
"556 1108 CURVE SMOOTH",
"682 1108 OFFCURVE",
"784 1028 OFFCURVE",
"784 900 CURVE SMOOTH",
"784 780 OFFCURVE",
"682 696 OFFCURVE",
"560 696 CURVE SMOOTH"
);
}
);
width = 1200;
},
{
layerId = "1A474BE3-B501-44F4-8DAE-2FAB2708ADF8";
paths = (
{
closed = 1;
nodes = (
"908 -24 OFFCURVE",
"1064 238 OFFCURVE",
"1064 652 CURVE SMOOTH",
"1064 1032 OFFCURVE",
"850 1278 OFFCURVE",
"560 1278 CURVE SMOOTH",
"310 1278 OFFCURVE",
"136 1126 OFFCURVE",
"136 892 CURVE SMOOTH",
"136 664 OFFCURVE",
"308 500 OFFCURVE",
"534 500 CURVE SMOOTH",
"724 500 OFFCURVE",
"866 606 OFFCURVE",
"892 822 CURVE",
"900 766 OFFCURVE",
"902 726 OFFCURVE",
"902 674 CURVE SMOOTH",
"902 336 OFFCURVE",
"804 120 OFFCURVE",
"568 120 CURVE SMOOTH",
"408 120 OFFCURVE",
"310 218 OFFCURVE",
"306 372 CURVE",
"144 372 LINE",
"144 142 OFFCURVE",
"322 -24 OFFCURVE",
"572 -24 CURVE SMOOTH"
);
},
{
closed = 1;
nodes = (
"410 638 OFFCURVE",
"298 732 OFFCURVE",
"298 886 CURVE SMOOTH",
"298 1040 OFFCURVE",
"410 1136 OFFCURVE",
"560 1136 CURVE SMOOTH",
"712 1136 OFFCURVE",
"826 1040 OFFCURVE",
"826 886 CURVE SMOOTH",
"826 746 OFFCURVE",
"712 638 OFFCURVE",
"562 638 CURVE SMOOTH"
);
}
);
width = 1200;
}
);
},
{
glyphname = period.tf;
lastChange = "2019-05-13 18:40:05 +0000";
layers = (
{
layerId = "B502AB2C-259B-4691-A7E9-F302DF43C341";
paths = (
{
closed = 1;
nodes = (
"702 -26 OFFCURVE",
"778 46 OFFCURVE",
"778 144 CURVE SMOOTH",
"778 240 OFFCURVE",
"702 314 OFFCURVE",
"598 314 CURVE SMOOTH",
"494 314 OFFCURVE",
"422 240 OFFCURVE",
"422 144 CURVE SMOOTH",
"422 46 OFFCURVE",
"494 -26 OFFCURVE",
"598 -26 CURVE SMOOTH"
);
}
);
width = 1200;
},
{
layerId = "1A474BE3-B501-44F4-8DAE-2FAB2708ADF8";
paths = (
{
closed = 1;
nodes = (
"674 -22 OFFCURVE",
"730 32 OFFCURVE",
"730 102 CURVE SMOOTH",
"730 172 OFFCURVE",
"674 228 OFFCURVE",
"598 228 CURVE SMOOTH",
"524 228 OFFCURVE",
"470 172 OFFCURVE",
"470 102 CURVE SMOOTH",
"470 32 OFFCURVE",
"524 -22 OFFCURVE",
"598 -22 CURVE SMOOTH"
);
}
);
width = 1200;
}
);
},
{
glyphname = comma.tf;
lastChange = "2019-05-13 18:40:05 +0000";
layers = (
{
layerId = "B502AB2C-259B-4691-A7E9-F302DF43C341";
paths = (
{
closed = 1;
nodes = (
"724 -210 OFFCURVE",
"816 -62 OFFCURVE",
"816 72 CURVE SMOOTH",
"816 200 OFFCURVE",
"738 302 OFFCURVE",
"612 302 CURVE SMOOTH",
"510 302 OFFCURVE",
"438 234 OFFCURVE",
"438 148 CURVE SMOOTH",
"438 66 OFFCURVE",
"502 14 OFFCURVE",
"584 -2 CURVE",
"558 -80 OFFCURVE",
"478 -144 OFFCURVE",
"382 -192 CURVE",
"570 -284 LINE"
);
}
);
width = 1200;
},
{
layerId = "1A474BE3-B501-44F4-8DAE-2FAB2708ADF8";
paths = (
{
closed = 1;
nodes = (
"698 -160 OFFCURVE",
"764 -42 OFFCURVE",
"764 62 CURVE SMOOTH",
"764 158 OFFCURVE",
"702 234 OFFCURVE",
"612 234 CURVE SMOOTH",
"536 234 OFFCURVE",
"486 182 OFFCURVE",
"486 120 CURVE SMOOTH",
"486 56 OFFCURVE",
"536 14 OFFCURVE",
"604 6 CURVE",
"584 -66 OFFCURVE",
"522 -118 OFFCURVE",
"436 -162 CURVE",
"566 -224 LINE"
);
}
);
width = 1200;
}
);
},
{
glyphname = exclam.tf;
lastChange = "2019-05-13 18:40:05 +0000";
layers = (
{
layerId = "B502AB2C-259B-4691-A7E9-F302DF43C341";
paths = (
{
closed = 1;
nodes = (
"700 438 LINE",
"726 1326 LINE",
"470 1326 LINE",
"496 438 LINE"
);
},
{
closed = 1;
nodes = (
"696 -18 OFFCURVE",
"766 48 OFFCURVE",
"766 140 CURVE SMOOTH",
"766 228 OFFCURVE",
"696 298 OFFCURVE",
"598 298 CURVE SMOOTH",
"502 298 OFFCURVE",
"434 228 OFFCURVE",
"434 140 CURVE SMOOTH",
"434 48 OFFCURVE",
"502 -18 OFFCURVE",
"598 -18 CURVE SMOOTH"
);
}
);
width = 1200;
},
{
layerId = "1A474BE3-B501-44F4-8DAE-2FAB2708ADF8";
paths = (
{
closed = 1;
nodes = (
"662 352 LINE",
"682 1252 LINE",
"516 1252 LINE",
"536 352 LINE"
);
},
{
closed = 1;
nodes = (
"666 -18 OFFCURVE",
"718 30 OFFCURVE",
"718 94 CURVE SMOOTH",
"718 156 OFFCURVE",
"666 208 OFFCURVE",
"598 208 CURVE SMOOTH",
"532 208 OFFCURVE",
"482 156 OFFCURVE",
"482 94 CURVE SMOOTH",
"482 30 OFFCURVE",
"532 -18 OFFCURVE",
"598 -18 CURVE SMOOTH"
);
}
);
width = 1200;
}
);
},
{
glyphname = question.tf;
lastChange = "2019-05-13 18:40:05 +0000";
layers = (
{
layerId = "B502AB2C-259B-4691-A7E9-F302DF43C341";
paths = (
{
closed = 1;
nodes = (
"676 388 LINE",
"676 446 LINE SMOOTH",
"676 550 OFFCURVE",
"716 592 OFFCURVE",
"844 658 CURVE SMOOTH",
"994 732 OFFCURVE",
"1060 822 OFFCURVE",
"1060 962 CURVE SMOOTH",
"1060 1166 OFFCURVE",
"886 1324 OFFCURVE",
"600 1324 CURVE SMOOTH",
"312 1324 OFFCURVE",
"154 1172 OFFCURVE",
"138 940 CURVE",
"384 940 LINE",
"396 1042 OFFCURVE",
"470 1110 OFFCURVE",
"610 1110 CURVE SMOOTH",
"728 1110 OFFCURVE",
"802 1048 OFFCURVE",
"802 964 CURVE SMOOTH",
"802 886 OFFCURVE",
"766 846 OFFCURVE",
"640 780 CURVE SMOOTH",
"496 708 OFFCURVE",
"440 642 OFFCURVE",
"440 468 CURVE SMOOTH",
"440 388 LINE"
);
},
{
closed = 1;
nodes = (
"660 -28 OFFCURVE",
"732 40 OFFCURVE",
"732 128 CURVE SMOOTH",
"732 218 OFFCURVE",
"660 286 OFFCURVE",
"564 286 CURVE SMOOTH",
"468 286 OFFCURVE",
"400 218 OFFCURVE",
"400 128 CURVE SMOOTH",
"400 40 OFFCURVE",
"468 -28 OFFCURVE",
"564 -28 CURVE SMOOTH"
);
}
);
width = 1200;
},
{
layerId = "1A474BE3-B501-44F4-8DAE-2FAB2708ADF8";
paths = (
{
closed = 1;
nodes = (
"626 320 LINE",
"626 400 LINE SMOOTH",
"626 530 OFFCURVE",
"670 574 OFFCURVE",
"802 646 CURVE SMOOTH",
"956 728 OFFCURVE",
"1022 812 OFFCURVE",
"1022 950 CURVE SMOOTH",
"1022 1130 OFFCURVE",
"866 1278 OFFCURVE",
"608 1278 CURVE SMOOTH",
"342 1278 OFFCURVE",
"196 1146 OFFCURVE",
"178 952 CURVE",
"344 952 LINE",
"366 1068 OFFCURVE",
"450 1136 OFFCURVE",
"614 1136 CURVE SMOOTH",
"762 1136 OFFCURVE",
"852 1058 OFFCURVE",
"852 954 CURVE SMOOTH",
"852 850 OFFCURVE",
"804 806 OFFCURVE",
"670 732 CURVE SMOOTH",
"520 650 OFFCURVE",
"472 584 OFFCURVE",
"472 410 CURVE SMOOTH",
"472 320 LINE"
);
},
{
closed = 1;
nodes = (
"618 -24 OFFCURVE",
"670 26 OFFCURVE",
"670 88 CURVE SMOOTH",
"670 150 OFFCURVE",
"618 202 OFFCURVE",
"552 202 CURVE SMOOTH",
"484 202 OFFCURVE",
"436 150 OFFCURVE",
"436 88 CURVE SMOOTH",
"436 26 OFFCURVE",
"484 -24 OFFCURVE",
"552 -24 CURVE SMOOTH"
);
}
);
width = 1200;
}
);
},
{
glyphname = asterisk.tf;
lastChange = "2019-05-13 18:40:05 +0000";
layers = (
{
layerId = "B502AB2C-259B-4691-A7E9-F302DF43C341";
paths = (
{
closed = 1;
nodes = (
"602 994 LINE",
"750 792 LINE",
"868 894 LINE",
"696 1058 LINE",
"914 1132 LINE",
"854 1274 LINE",
"656 1170 LINE",
"680 1408 LINE",
"520 1408 LINE",
"544 1170 LINE",
"346 1270 LINE",
"286 1130 LINE",
"508 1056 LINE",
"336 894 LINE",
"450 792 LINE"
);
}
);
width = 1200;
},
{
layerId = "1A474BE3-B501-44F4-8DAE-2FAB2708ADF8";
paths = (
{
closed = 1;
nodes = (
"602 984 LINE",
"760 776 LINE",
"850 854 LINE",
"670 1032 LINE",
"902 1112 LINE",
"854 1220 LINE",
"642 1112 LINE",
"660 1368 LINE",
"540 1368 LINE",
"558 1112 LINE",
"346 1218 LINE",
"298 1112 LINE",
"532 1030 LINE",
"352 854 LINE",
"442 776 LINE"
);
}
);
width = 1200;
}
);
},
{
glyphname = numbersign.tf;
lastChange = "2019-05-13 18:40:05 +0000";
layers = (
{
layerId = "B502AB2C-259B-4691-A7E9-F302DF43C341";
paths = (
{
closed = 1;
nodes = (
"428 92 LINE",
"454 314 LINE",
"672 314 LINE",
"646 92 LINE",
"868 92 LINE",
"894 314 LINE",
"1058 314 LINE",
"1074 470 LINE",
"912 470 LINE",
"946 784 LINE",
"1106 784 LINE",
"1124 940 LINE",
"964 940 LINE",
"990 1160 LINE",
"768 1160 LINE",
"744 940 LINE",
"524 940 LINE",
"550 1160 LINE",
"328 1160 LINE",
"302 940 LINE",
"140 940 LINE",
"124 784 LINE",
"284 784 LINE",
"250 470 LINE",
"90 470 LINE",
"76 314 LINE",
"232 314 LINE",
"206 92 LINE"
);
},
{
closed = 1;
nodes = (
"506 784 LINE",
"726 784 LINE",
"690 470 LINE",
"472 470 LINE"
);
}
);
width = 1200;
},
{
layerId = "1A474BE3-B501-44F4-8DAE-2FAB2708ADF8";
paths = (
{
closed = 1;
nodes = (
"398 76 LINE",
"426 334 LINE",
"706 334 LINE",
"678 76 LINE",
"824 76 LINE",
"854 334 LINE",
"1046 334 LINE",
"1058 440 LINE",
"866 440 LINE",
"904 796 LINE",
"1094 796 LINE",
"1106 904 LINE",
"916 904 LINE",
"944 1158 LINE",
"798 1158 LINE",
"770 904 LINE",
"488 904 LINE",
"516 1158 LINE",
"370 1158 LINE",
"342 904 LINE",
"152 904 LINE",
"142 796 LINE",
"330 796 LINE",
"292 440 LINE",
"104 440 LINE",
"94 334 LINE",
"280 334 LINE",
"252 76 LINE"
);
},
{
closed = 1;
nodes = (
"476 796 LINE",
"758 796 LINE",
"718 440 LINE",
"438 440 LINE"
);
}
);
width = 1200;
}
);
},
{
glyphname = slash.tf;
lastChange = "2019-05-13 18:40:05 +0000";
layers = (
{
layerId = "B502AB2C-259B-4691-A7E9-F302DF43C341";
paths = (
{
closed = 1;
nodes = (
"462 -160 LINE",
"978 1490 LINE",
"738 1490 LINE",
"224 -160 LINE"
);
}
);
width = 1200;
},
{
layerId = "1A474BE3-B501-44F4-8DAE-2FAB2708ADF8";
paths = (
{
closed = 1;
nodes = (
"428 -144 LINE",
"930 1462 LINE",
"772 1462 LINE",
"270 -144 LINE"
);
}
);
width = 1200;
}
);
},
{
glyphname = cent;
lastChange = "2019-05-13 18:40:05 +0000";
layers = (
{
components = (
{
alignment = -1;
name = c;
}
);
layerId = "B502AB2C-259B-4691-A7E9-F302DF43C341";
paths = (
{
closed = 1;
nodes = (
"646 -216 LINE",
"646 42 LINE",
"452 42 LINE",
"452 -216 LINE"
);
},
{
closed = 1;
nodes = (
"646 940 LINE",
"646 1174 LINE",
"452 1174 LINE",
"452 940 LINE"
);
}
);
width = 1057;
},
{
components = (
{
alignment = -1;
name = c;
}
);
layerId = "1A474BE3-B501-44F4-8DAE-2FAB2708ADF8";
paths = (
{
closed = 1;
nodes = (
"604 -210 LINE",
"604 18 LINE",
"470 18 LINE",
"470 -210 LINE"
);
},
{
closed = 1;
nodes = (
"604 942 LINE",
"604 1142 LINE",
"470 1142 LINE",
"470 942 LINE"
);
}
);
width = 1025;
}
);
unicode = 00A2;
},
{
glyphname = currency;
lastChange = "2019-05-13 18:40:05 +0000";
layers = (
{
layerId = "B502AB2C-259B-4691-A7E9-F302DF43C341";
paths = (
{
closed = 1;
nodes = (
"834 216 OFFCURVE",
"1022 406 OFFCURVE",
"1022 640 CURVE SMOOTH",
"1022 874 OFFCURVE",
"834 1064 OFFCURVE",
"600 1064 CURVE SMOOTH",
"366 1064 OFFCURVE",
"176 874 OFFCURVE",
"176 640 CURVE SMOOTH",
"176 406 OFFCURVE",
"366 216 OFFCURVE",
"600 216 CURVE SMOOTH"
);
},
{
closed = 1;
nodes = (
"482 426 OFFCURVE",
"386 522 OFFCURVE",
"386 640 CURVE SMOOTH",
"386 760 OFFCURVE",
"482 854 OFFCURVE",
"600 854 CURVE SMOOTH",
"718 854 OFFCURVE",
"814 760 OFFCURVE",
"814 640 CURVE SMOOTH",
"814 522 OFFCURVE",
"718 426 OFFCURVE",
"600 426 CURVE SMOOTH"
);
},
{
closed = 1;
nodes = (
"1078 1020 LINE",
"978 1118 LINE",
"748 888 LINE",
"848 788 LINE"
);
},
{
closed = 1;
nodes = (
"438 900 LINE",
"220 1118 LINE",
"122 1018 LINE",
"340 800 LINE"
);
},
{
closed = 1;
nodes = (
"762 380 LINE",
"980 162 LINE",
"1078 262 LINE",
"860 480 LINE"
);
},
{
closed = 1;
nodes = (
"122 262 LINE",
"220 162 LINE",
"438 380 LINE",
"340 480 LINE"
);
}
);
width = 1200;
},
{
layerId = "1A474BE3-B501-44F4-8DAE-2FAB2708ADF8";
paths = (
{
closed = 1;
nodes = (
"824 226 OFFCURVE",
"1004 408 OFFCURVE",
"1004 634 CURVE SMOOTH",
"1004 856 OFFCURVE",
"824 1038 OFFCURVE",
"600 1038 CURVE SMOOTH",
"376 1038 OFFCURVE",
"194 856 OFFCURVE",
"194 634 CURVE SMOOTH",
"194 408 OFFCURVE",
"376 226 OFFCURVE",
"600 226 CURVE SMOOTH"
);
},
{
closed = 1;
nodes = (
"456 372 OFFCURVE",
"340 488 OFFCURVE",
"340 634 CURVE SMOOTH",
"340 778 OFFCURVE",
"456 892 OFFCURVE",
"600 892 CURVE SMOOTH",
"742 892 OFFCURVE",
"860 778 OFFCURVE",
"860 634 CURVE SMOOTH",
"860 488 OFFCURVE",
"742 372 OFFCURVE",
"600 372 CURVE SMOOTH"
);
},
{
closed = 1;
nodes = (
"1056 1010 LINE",
"976 1088 LINE",
"780 894 LINE",
"860 814 LINE"
);
},
{
closed = 1;
nodes = (
"412 900 LINE",
"222 1088 LINE",
"144 1008 LINE",
"334 820 LINE"
);
},
{
closed = 1;
nodes = (
"788 366 LINE",
"978 176 LINE",
"1056 258 LINE",
"866 446 LINE"
);
},
{
closed = 1;
nodes = (
"144 258 LINE",
"222 176 LINE",
"412 366 LINE",
"334 446 LINE"
);
}
);
width = 1200;
}
);
unicode = 00A4;
},
{
glyphname = euro;
lastChange = "2019-05-13 18:40:05 +0000";
layers = (
{
layerId = "B502AB2C-259B-4691-A7E9-F302DF43C341";
paths = (
{
closed = 1;
nodes = (
"1014 -28 OFFCURVE",
"1210 138 OFFCURVE",
"1210 428 CURVE",
"958 428 LINE",
"958 288 OFFCURVE",
"860 188 OFFCURVE",
"694 188 CURVE SMOOTH",
"500 188 OFFCURVE",
"388 364 OFFCURVE",
"388 652 CURVE SMOOTH",
"388 958 OFFCURVE",
"526 1110 OFFCURVE",
"694 1110 CURVE SMOOTH",
"824 1110 OFFCURVE",
"916 1018 OFFCURVE",
"958 882 CURVE",
"1210 928 LINE",
"1162 1162 OFFCURVE",
"994 1324 OFFCURVE",
"694 1324 CURVE SMOOTH",
"370 1324 OFFCURVE",
"134 1092 OFFCURVE",
"134 652 CURVE SMOOTH",
"134 226 OFFCURVE",
"356 -28 OFFCURVE",
"694 -28 CURVE SMOOTH"
);
},
{
closed = 1;
nodes = (
"750 470 LINE",
"750 604 LINE",
"40 604 LINE",
"40 470 LINE"
);
},
{
closed = 1;
nodes = (
"750 690 LINE",
"750 824 LINE",
"40 824 LINE",
"40 690 LINE"
);
}
);
width = 1267;
},
{
layerId = "1A474BE3-B501-44F4-8DAE-2FAB2708ADF8";
paths = (
{
closed = 1;
nodes = (
"960 -24 OFFCURVE",
"1160 138 OFFCURVE",
"1160 408 CURVE",
"990 408 LINE",
"990 234 OFFCURVE",
"864 118 OFFCURVE",
"672 118 CURVE SMOOTH",
"432 118 OFFCURVE",
"310 336 OFFCURVE",
"310 636 CURVE SMOOTH",
"310 966 OFFCURVE",
"482 1138 OFFCURVE",
"672 1138 CURVE SMOOTH",
"818 1138 OFFCURVE",
"938 1038 OFFCURVE",
"990 882 CURVE",
"1158 916 LINE",
"1096 1130 OFFCURVE",
"934 1278 OFFCURVE",
"672 1278 CURVE SMOOTH",
"374 1278 OFFCURVE",
"142 1054 OFFCURVE",
"142 636 CURVE SMOOTH",
"142 244 OFFCURVE",
"346 -24 OFFCURVE",
"672 -24 CURVE SMOOTH"
);
},
{
closed = 1;
nodes = (
"736 482 LINE",
"736 580 LINE",
"52 580 LINE",
"52 482 LINE"
);
},
{
closed = 1;
nodes = (
"736 684 LINE",
"736 782 LINE",
"52 782 LINE",
"52 684 LINE"
);
}
);
width = 1226;
}
);
unicode = 20AC;
},
{
glyphname = yen;
lastChange = "2019-05-13 18:40:05 +0000";
layers = (
{
layerId = "B502AB2C-259B-4691-A7E9-F302DF43C341";
paths = (
{
closed = 1;
nodes = (
"696 0 LINE",
"696 536 LINE",
"1158 1298 LINE",
"880 1298 LINE",
"558 740 LINE",
"604 740 LINE",
"294 1298 LINE",
"14 1298 LINE",
"460 536 LINE",
"460 0 LINE"
);
},
{
closed = 1;
nodes = (
"930 170 LINE",
"930 302 LINE",
"232 302 LINE",
"232 170 LINE"
);
},
{
closed = 1;
nodes = (
"930 384 LINE",
"930 516 LINE",
"232 516 LINE",
"232 384 LINE"
);
}
);
width = 1173;
},
{
layerId = "1A474BE3-B501-44F4-8DAE-2FAB2708ADF8";
paths = (
{
closed = 1;
nodes = (
"624 0 LINE",
"624 516 LINE",
"1078 1256 LINE",
"892 1256 LINE",
"526 646 LINE",
"566 646 LINE",
"206 1256 LINE",
"18 1256 LINE",
"466 516 LINE",
"466 0 LINE"
);
},
{
closed = 1;
nodes = (
"884 202 LINE",
"884 300 LINE",
"208 300 LINE",
"208 202 LINE"
);
},
{
closed = 1;
nodes = (
"884 400 LINE",
"884 498 LINE",
"208 498 LINE",
"208 400 LINE"
);
}
);
width = 1097;
}
);
unicode = 00A5;
},
{
glyphname = currency.tf;
lastChange = "2019-05-13 18:40:05 +0000";
layers = (
{
layerId = "B502AB2C-259B-4691-A7E9-F302DF43C341";
paths = (
{
closed = 1;
nodes = (
"834 216 OFFCURVE",
"1022 406 OFFCURVE",
"1022 640 CURVE SMOOTH",
"1022 874 OFFCURVE",
"834 1064 OFFCURVE",
"600 1064 CURVE SMOOTH",
"366 1064 OFFCURVE",
"176 874 OFFCURVE",
"176 640 CURVE SMOOTH",
"176 406 OFFCURVE",
"366 216 OFFCURVE",
"600 216 CURVE SMOOTH"
);
},
{
closed = 1;
nodes = (
"482 426 OFFCURVE",
"386 522 OFFCURVE",
"386 640 CURVE SMOOTH",
"386 760 OFFCURVE",
"482 854 OFFCURVE",
"600 854 CURVE SMOOTH",
"718 854 OFFCURVE",
"814 760 OFFCURVE",
"814 640 CURVE SMOOTH",
"814 522 OFFCURVE",
"718 426 OFFCURVE",
"600 426 CURVE SMOOTH"
);
},
{
closed = 1;
nodes = (
"1078 1020 LINE",
"978 1118 LINE",
"748 888 LINE",
"848 788 LINE"
);
},
{
closed = 1;
nodes = (
"438 900 LINE",
"220 1118 LINE",
"122 1018 LINE",
"340 800 LINE"
);
},
{
closed = 1;
nodes = (
"762 380 LINE",
"980 162 LINE",
"1078 262 LINE",
"860 480 LINE"
);
},
{
closed = 1;
nodes = (
"122 262 LINE",
"220 162 LINE",
"438 380 LINE",
"340 480 LINE"
);
}
);
width = 1200;
},
{
layerId = "1A474BE3-B501-44F4-8DAE-2FAB2708ADF8";
paths = (
{
closed = 1;
nodes = (
"824 226 OFFCURVE",
"1004 408 OFFCURVE",
"1004 634 CURVE SMOOTH",
"1004 856 OFFCURVE",
"824 1038 OFFCURVE",
"600 1038 CURVE SMOOTH",
"376 1038 OFFCURVE",
"194 856 OFFCURVE",
"194 634 CURVE SMOOTH",
"194 408 OFFCURVE",
"376 226 OFFCURVE",
"600 226 CURVE SMOOTH"
);
},
{
closed = 1;
nodes = (
"456 372 OFFCURVE",
"340 488 OFFCURVE",
"340 634 CURVE SMOOTH",
"340 778 OFFCURVE",
"456 892 OFFCURVE",
"600 892 CURVE SMOOTH",
"742 892 OFFCURVE",
"860 778 OFFCURVE",
"860 634 CURVE SMOOTH",
"860 488 OFFCURVE",
"742 372 OFFCURVE",
"600 372 CURVE SMOOTH"
);
},
{
closed = 1;
nodes = (
"1056 1010 LINE",
"976 1088 LINE",
"780 894 LINE",
"860 814 LINE"
);
},
{
closed = 1;
nodes = (
"412 900 LINE",
"222 1088 LINE",
"144 1008 LINE",
"334 820 LINE"
);
},
{
closed = 1;
nodes = (
"788 366 LINE",
"978 176 LINE",
"1056 258 LINE",
"866 446 LINE"
);
},
{
closed = 1;
nodes = (
"144 258 LINE",
"222 176 LINE",
"412 366 LINE",
"334 446 LINE"
);
}
);
width = 1200;
}
);
},
{
glyphname = dollar.tf;
lastChange = "2019-05-13 18:40:05 +0000";
layers = (
{
layerId = "B502AB2C-259B-4691-A7E9-F302DF43C341";
paths = (
{
closed = 1;
nodes = (
"968 -28 OFFCURVE",
"1134 158 OFFCURVE",
"1134 346 CURVE SMOOTH",
"1134 516 OFFCURVE",
"1038 620 OFFCURVE",
"850 686 CURVE SMOOTH",
"594 776 LINE",
"594 572 LINE",
"738 518 LINE SMOOTH",
"820 490 OFFCURVE",
"870 428 OFFCURVE",
"870 352 CURVE SMOOTH",
"870 262 OFFCURVE",
"788 188 OFFCURVE",
"620 188 CURVE SMOOTH",
"426 188 OFFCURVE",
"296 250 OFFCURVE",
"296 406 CURVE",
"64 406 LINE",
"64 106 OFFCURVE",
"332 -28 OFFCURVE",
"610 -28 CURVE SMOOTH"
);
},
{
closed = 1;
nodes = (
"702 -202 LINE",
"702 1474 LINE",
"532 1474 LINE",
"532 -202 LINE"
);
},
{
closed = 1;
nodes = (
"592 776 LINE",
"486 820 LINE SMOOTH",
"400 850 OFFCURVE",
"358 892 OFFCURVE",
"358 962 CURVE SMOOTH",
"358 1056 OFFCURVE",
"448 1122 OFFCURVE",
"618 1122 CURVE SMOOTH",
"762 1122 OFFCURVE",
"860 1042 OFFCURVE",
"874 940 CURVE",
"1106 940 LINE",
"1072 1176 OFFCURVE",
"914 1324 OFFCURVE",
"622 1324 CURVE SMOOTH",
"286 1324 OFFCURVE",
"102 1180 OFFCURVE",
"102 970 CURVE SMOOTH",
"102 786 OFFCURVE",
"228 692 OFFCURVE",
"446 618 CURVE SMOOTH",
"592 568 LINE"
);
}
);
width = 1200;
},
{
layerId = "1A474BE3-B501-44F4-8DAE-2FAB2708ADF8";
paths = (
{
closed = 1;
nodes = (
"924 -24 OFFCURVE",
"1080 154 OFFCURVE",
"1080 330 CURVE SMOOTH",
"1080 502 OFFCURVE",
"970 602 OFFCURVE",
"794 660 CURVE SMOOTH",
"600 724 LINE",
"600 584 LINE",
"730 540 LINE SMOOTH",
"840 506 OFFCURVE",
"906 434 OFFCURVE",
"906 334 CURVE SMOOTH",
"906 222 OFFCURVE",
"802 120 OFFCURVE",
"608 120 CURVE SMOOTH",
"418 120 OFFCURVE",
"272 198 OFFCURVE",
"272 376 CURVE",
"118 376 LINE",
"118 112 OFFCURVE",
"348 -24 OFFCURVE",
"604 -24 CURVE SMOOTH"
);
},
{
closed = 1;
nodes = (
"668 -182 LINE",
"668 1424 LINE",
"546 1424 LINE",
"546 -182 LINE"
);
},
{
closed = 1;
nodes = (
"592 726 LINE",
"492 762 LINE SMOOTH",
"378 798 OFFCURVE",
"324 850 OFFCURVE",
"324 942 CURVE SMOOTH",
"324 1058 OFFCURVE",
"426 1142 OFFCURVE",
"610 1142 CURVE SMOOTH",
"768 1142 OFFCURVE",
"870 1068 OFFCURVE",
"888 952 CURVE",
"1042 952 LINE",
"1014 1148 OFFCURVE",
"868 1278 OFFCURVE",
"612 1278 CURVE SMOOTH",
"316 1278 OFFCURVE",
"156 1142 OFFCURVE",
"156 948 CURVE SMOOTH",
"156 774 OFFCURVE",
"272 692 OFFCURVE",
"490 618 CURVE SMOOTH",
"592 584 LINE"
);
}
);
width = 1200;
}
);
},
{
glyphname = euro.tf;
lastChange = "2019-05-13 18:40:05 +0000";
layers = (
{
layerId = "B502AB2C-259B-4691-A7E9-F302DF43C341";
paths = (
{
closed = 1;
nodes = (
"962 -28 OFFCURVE",
"1154 138 OFFCURVE",
"1154 428 CURVE",
"902 428 LINE",
"902 288 OFFCURVE",
"816 188 OFFCURVE",
"664 188 CURVE SMOOTH",
"474 188 OFFCURVE",
"384 362 OFFCURVE",
"384 638 CURVE SMOOTH",
"384 966 OFFCURVE",
"522 1110 OFFCURVE",
"664 1110 CURVE SMOOTH",
"780 1110 OFFCURVE",
"860 1018 OFFCURVE",
"894 882 CURVE",
"1146 928 LINE",
"1106 1162 OFFCURVE",
"950 1324 OFFCURVE",
"664 1324 CURVE SMOOTH",
"366 1324 OFFCURVE",
"130 1094 OFFCURVE",
"130 650 CURVE SMOOTH",
"130 228 OFFCURVE",
"344 -28 OFFCURVE",
"682 -28 CURVE SMOOTH"
);
},
{
closed = 1;
nodes = (
"694 470 LINE",
"694 604 LINE",
"36 604 LINE",
"36 470 LINE"
);
},
{
closed = 1;
nodes = (
"694 690 LINE",
"694 824 LINE",
"36 824 LINE",
"36 690 LINE"
);
}
);
width = 1200;
},
{
layerId = "1A474BE3-B501-44F4-8DAE-2FAB2708ADF8";
paths = (
{
closed = 1;
nodes = (
"934 -24 OFFCURVE",
"1132 138 OFFCURVE",
"1132 408 CURVE",
"962 408 LINE",
"962 234 OFFCURVE",
"842 118 OFFCURVE",
"658 118 CURVE SMOOTH",
"418 118 OFFCURVE",
"308 336 OFFCURVE",
"308 630 CURVE SMOOTH",
"308 970 OFFCURVE",
"480 1138 OFFCURVE",
"658 1138 CURVE SMOOTH",
"794 1138 OFFCURVE",
"910 1038 OFFCURVE",
"958 882 CURVE",
"1126 916 LINE",
"1068 1130 OFFCURVE",
"912 1278 OFFCURVE",
"658 1278 CURVE SMOOTH",
"372 1278 OFFCURVE",
"140 1054 OFFCURVE",
"140 636 CURVE SMOOTH",
"140 244 OFFCURVE",
"340 -24 OFFCURVE",
"666 -24 CURVE SMOOTH"
);
},
{
closed = 1;
nodes = (
"706 482 LINE",
"706 580 LINE",
"50 580 LINE",
"50 482 LINE"
);
},
{
closed = 1;
nodes = (
"706 684 LINE",
"706 782 LINE",
"50 782 LINE",
"50 684 LINE"
);
}
);
width = 1200;
}
);
},
{
glyphname = sterling.tf;
lastChange = "2019-05-13 18:40:05 +0000";
layers = (
{
layerId = "B502AB2C-259B-4691-A7E9-F302DF43C341";
paths = (
{
closed = 1;
nodes = (
"400 144 OFFCURVE",
"490 226 OFFCURVE",
"490 402 CURVE SMOOTH",
"490 888 LINE SMOOTH",
"490 1040 OFFCURVE",
"560 1110 OFFCURVE",
"662 1110 CURVE SMOOTH",
"744 1110 OFFCURVE",
"802 1062 OFFCURVE",
"814 974 CURVE",
"1046 974 LINE",
"1014 1206 OFFCURVE",
"884 1324 OFFCURVE",
"662 1324 CURVE SMOOTH",
"416 1324 OFFCURVE",
"254 1176 OFFCURVE",
"254 888 CURVE SMOOTH",
"254 386 LINE SMOOTH",
"254 268 OFFCURVE",
"218 212 OFFCURVE",
"120 212 CURVE",
"120 144 LINE"
);
},
{
closed = 1;
nodes = (
"692 0 LINE SMOOTH",
"1016 0 OFFCURVE",
"1136 136 OFFCURVE",
"1144 368 CURVE",
"886 368 LINE",
"874 262 OFFCURVE",
"824 212 OFFCURVE",
"690 212 CURVE SMOOTH",
"56 212 LINE",
"56 0 LINE"
);
},
{
closed = 1;
nodes = (
"832 562 LINE",
"832 720 LINE",
"90 720 LINE",
"90 562 LINE"
);
}
);
width = 1200;
},
{
layerId = "1A474BE3-B501-44F4-8DAE-2FAB2708ADF8";
paths = (
{
closed = 1;
nodes = (
"380 90 OFFCURVE",
"448 160 OFFCURVE",
"448 324 CURVE SMOOTH",
"448 864 LINE SMOOTH",
"448 1052 OFFCURVE",
"530 1136 OFFCURVE",
"660 1136 CURVE SMOOTH",
"754 1136 OFFCURVE",
"832 1086 OFFCURVE",
"850 978 CURVE",
"1004 978 LINE",
"972 1176 OFFCURVE",
"848 1278 OFFCURVE",
"660 1278 CURVE SMOOTH",
"416 1278 OFFCURVE",
"292 1124 OFFCURVE",
"292 864 CURVE SMOOTH",
"292 316 LINE SMOOTH",
"292 194 OFFCURVE",
"248 136 OFFCURVE",
"146 136 CURVE",
"146 90 LINE"
);
},
{
closed = 1;
nodes = (
"742 0 LINE SMOOTH",
"1000 0 OFFCURVE",
"1094 118 OFFCURVE",
"1108 306 CURVE",
"942 306 LINE",
"924 190 OFFCURVE",
"870 136 OFFCURVE",
"740 136 CURVE SMOOTH",
"90 136 LINE",
"90 0 LINE"
);
},
{
closed = 1;
nodes = (
"810 534 LINE",
"810 644 LINE",
"112 644 LINE",
"112 534 LINE"
);
}
);
width = 1200;
}
);
},
{
glyphname = yen.tf;
lastChange = "2019-05-13 18:40:05 +0000";
layers = (
{
layerId = "B502AB2C-259B-4691-A7E9-F302DF43C341";
paths = (
{
closed = 1;
nodes = (
"710 0 LINE",
"710 536 LINE",
"1158 1298 LINE",
"878 1298 LINE",
"572 740 LINE",
"616 740 LINE",
"322 1298 LINE",
"42 1298 LINE",
"474 536 LINE",
"474 0 LINE"
);
},
{
closed = 1;
nodes = (
"944 170 LINE",
"944 302 LINE",
"246 302 LINE",
"246 170 LINE"
);
},
{
closed = 1;
nodes = (
"944 384 LINE",
"944 516 LINE",
"246 516 LINE",
"246 384 LINE"
);
}
);
width = 1200;
},
{
layerId = "1A474BE3-B501-44F4-8DAE-2FAB2708ADF8";
paths = (
{
closed = 1;
nodes = (
"676 0 LINE",
"676 516 LINE",
"1122 1256 LINE",
"936 1256 LINE",
"578 646 LINE",
"618 646 LINE",
"264 1256 LINE",
"78 1256 LINE",
"518 516 LINE",
"518 0 LINE"
);
},
{
closed = 1;
nodes = (
"938 202 LINE",
"938 300 LINE",
"260 300 LINE",
"260 202 LINE"
);
},
{
closed = 1;
nodes = (
"938 400 LINE",
"938 498 LINE",
"260 498 LINE",
"260 400 LINE"
);
}
);
width = 1200;
}
);
},
{
glyphname = multiply;
lastChange = "2019-05-13 18:40:05 +0000";
layers = (
{
layerId = "B502AB2C-259B-4691-A7E9-F302DF43C341";
paths = (
{
closed = 1;
nodes = (
"544 350 LINE",
"804 90 LINE",
"972 258 LINE",
"710 518 LINE",
"972 776 LINE",
"804 944 LINE",
"544 684 LINE",
"284 944 LINE",
"118 776 LINE",
"378 518 LINE",
"118 258 LINE",
"284 90 LINE"
);
}
);
width = 1088;
},
{
layerId = "1A474BE3-B501-44F4-8DAE-2FAB2708ADF8";
paths = (
{
closed = 1;
nodes = (
"528 394 LINE",
"812 110 LINE",
"922 220 LINE",
"636 506 LINE",
"922 788 LINE",
"812 898 LINE",
"528 614 LINE",
"242 898 LINE",
"134 788 LINE",
"418 506 LINE",
"134 220 LINE",
"242 110 LINE"
);
}
);
width = 1055;
}
);
unicode = 00D7;
},
{
glyphname = divide;
lastChange = "2019-05-13 18:40:05 +0000";
layers = (
{
layerId = "B502AB2C-259B-4691-A7E9-F302DF43C341";
paths = (
{
closed = 1;
nodes = (
"908 444 LINE",
"908 652 LINE",
"132 652 LINE",
"132 444 LINE"
);
},
{
closed = 1;
nodes = (
"598 78 OFFCURVE",
"658 134 OFFCURVE",
"658 208 CURVE SMOOTH",
"658 282 OFFCURVE",
"598 338 OFFCURVE",
"518 338 CURVE SMOOTH",
"440 338 OFFCURVE",
"382 282 OFFCURVE",
"382 208 CURVE SMOOTH",
"382 134 OFFCURVE",
"440 78 OFFCURVE",
"518 78 CURVE SMOOTH"
);
},
{
closed = 1;
nodes = (
"598 752 OFFCURVE",
"658 806 OFFCURVE",
"658 882 CURVE SMOOTH",
"658 954 OFFCURVE",
"598 1012 OFFCURVE",
"518 1012 CURVE SMOOTH",
"440 1012 OFFCURVE",
"382 954 OFFCURVE",
"382 882 CURVE SMOOTH",
"382 806 OFFCURVE",
"440 752 OFFCURVE",
"518 752 CURVE SMOOTH"
);
}
);
width = 1041;
},
{
layerId = "1A474BE3-B501-44F4-8DAE-2FAB2708ADF8";
paths = (
{
closed = 1;
nodes = (
"864 452 LINE",
"864 588 LINE",
"166 588 LINE",
"166 452 LINE"
);
},
{
closed = 1;
nodes = (
"574 140 OFFCURVE",
"618 184 OFFCURVE",
"618 238 CURVE SMOOTH",
"618 292 OFFCURVE",
"574 338 OFFCURVE",
"514 338 CURVE SMOOTH",
"456 338 OFFCURVE",
"412 292 OFFCURVE",
"412 238 CURVE SMOOTH",
"412 184 OFFCURVE",
"456 140 OFFCURVE",
"514 140 CURVE SMOOTH"
);
},
{
closed = 1;
nodes = (
"574 700 OFFCURVE",
"618 742 OFFCURVE",
"618 798 CURVE SMOOTH",
"618 852 OFFCURVE",
"574 896 OFFCURVE",
"514 896 CURVE SMOOTH",
"456 896 OFFCURVE",
"412 852 OFFCURVE",
"412 798 CURVE SMOOTH",
"412 742 OFFCURVE",
"456 700 OFFCURVE",
"514 700 CURVE SMOOTH"
);
}
);
width = 1031;
}
);
unicode = 00F7;
},
{
glyphname = notequal;
lastChange = "2019-05-13 18:40:05 +0000";
layers = (
{
layerId = "B502AB2C-259B-4691-A7E9-F302DF43C341";
paths = (
{
closed = 1;
nodes = (
"158 192 LINE",
"854 192 LINE",
"854 396 LINE",
"158 396 LINE"
);
},
{
closed = 1;
nodes = (
"158 612 LINE",
"854 612 LINE",
"854 816 LINE",
"158 816 LINE"
);
},
{
closed = 1;
nodes = (
"428 64 LINE",
"744 966 LINE",
"592 966 LINE",
"274 64 LINE"
);
}
);
width = 1012;
},
{
layerId = "1A474BE3-B501-44F4-8DAE-2FAB2708ADF8";
paths = (
{
closed = 1;
nodes = (
"158 234 LINE",
"816 234 LINE",
"816 368 LINE",
"158 368 LINE"
);
},
{
closed = 1;
nodes = (
"158 616 LINE",
"816 616 LINE",
"816 752 LINE",
"158 752 LINE"
);
},
{
closed = 1;
nodes = (
"388 98 LINE",
"692 904 LINE",
"582 904 LINE",
"278 98 LINE"
);
}
);
width = 975;
}
);
unicode = 2260;
},
{
glyphname = greaterequal;
lastChange = "2019-05-13 18:40:05 +0000";
layers = (
{
layerId = "B502AB2C-259B-4691-A7E9-F302DF43C341";
paths = (
{
closed = 1;
nodes = (
"862 536 LINE",
"862 712 LINE",
"190 964 LINE",
"142 774 LINE",
"734 582 LINE",
"734 666 LINE",
"142 476 LINE",
"190 286 LINE"
);
},
{
closed = 1;
nodes = (
"866 0 LINE",
"866 178 LINE",
"170 178 LINE",
"170 0 LINE"
);
}
);
width = 1012;
},
{
layerId = "1A474BE3-B501-44F4-8DAE-2FAB2708ADF8";
paths = (
{
closed = 1;
nodes = (
"810 512 LINE",
"810 630 LINE",
"190 880 LINE",
"148 758 LINE",
"720 542 LINE",
"720 598 LINE",
"148 388 LINE",
"190 262 LINE"
);
},
{
closed = 1;
nodes = (
"824 0 LINE",
"824 120 LINE",
"166 120 LINE",
"166 0 LINE"
);
}
);
width = 975;
}
);
unicode = 2265;
},
{
glyphname = lessequal;
lastChange = "2019-05-13 18:40:05 +0000";
layers = (
{
layerId = "B502AB2C-259B-4691-A7E9-F302DF43C341";
paths = (
{
closed = 1;
nodes = (
"870 476 LINE",
"278 666 LINE",
"278 582 LINE",
"870 774 LINE",
"824 964 LINE",
"150 712 LINE",
"150 536 LINE",
"824 286 LINE"
);
},
{
closed = 1;
nodes = (
"842 0 LINE",
"842 178 LINE",
"146 178 LINE",
"146 0 LINE"
);
}
);
width = 1012;
},
{
layerId = "1A474BE3-B501-44F4-8DAE-2FAB2708ADF8";
paths = (
{
closed = 1;
nodes = (
"826 388 LINE",
"254 598 LINE",
"254 542 LINE",
"826 758 LINE",
"786 880 LINE",
"164 630 LINE",
"164 512 LINE",
"786 262 LINE"
);
},
{
closed = 1;
nodes = (
"808 0 LINE",
"808 120 LINE",
"150 120 LINE",
"150 0 LINE"
);
}
);
width = 975;
}
);
unicode = 2264;
},
{
glyphname = plusminus;
lastChange = "2019-05-13 18:40:05 +0000";
layers = (
{
layerId = "B502AB2C-259B-4691-A7E9-F302DF43C341";
paths = (
{
closed = 1;
nodes = (
"414 792 LINE",
"136 792 LINE",
"136 640 LINE",
"414 640 LINE",
"414 336 LINE",
"598 336 LINE",
"598 640 LINE",
"876 640 LINE",
"876 792 LINE",
"598 792 LINE",
"598 1098 LINE",
"414 1098 LINE"
);
},
{
closed = 1;
nodes = (
"152 0 LINE",
"862 0 LINE",
"862 178 LINE",
"152 178 LINE"
);
}
);
width = 1012;
},
{
layerId = "1A474BE3-B501-44F4-8DAE-2FAB2708ADF8";
paths = (
{
closed = 1;
nodes = (
"422 718 LINE",
"114 718 LINE",
"114 612 LINE",
"422 612 LINE",
"422 280 LINE",
"552 280 LINE",
"552 612 LINE",
"860 612 LINE",
"860 718 LINE",
"552 718 LINE",
"552 1050 LINE",
"422 1050 LINE"
);
},
{
closed = 1;
nodes = (
"146 0 LINE",
"830 0 LINE",
"830 120 LINE",
"146 120 LINE"
);
}
);
width = 975;
}
);
unicode = 00B1;
},
{
glyphname = plus.tf;
lastChange = "2019-05-13 18:40:05 +0000";
layers = (
{
layerId = "B502AB2C-259B-4691-A7E9-F302DF43C341";
paths = (
{
closed = 1;
nodes = (
"482 594 LINE",
"94 594 LINE",
"94 388 LINE",
"482 388 LINE",
"482 0 LINE",
"718 0 LINE",
"718 388 LINE",
"1108 388 LINE",
"1108 594 LINE",
"718 594 LINE",
"718 982 LINE",
"482 982 LINE"
);
}
);
width = 1200;
},
{
layerId = "1A474BE3-B501-44F4-8DAE-2FAB2708ADF8";
paths = (
{
closed = 1;
nodes = (
"522 558 LINE",
"110 558 LINE",
"110 424 LINE",
"522 424 LINE",
"522 0 LINE",
"678 0 LINE",
"678 424 LINE",
"1092 424 LINE",
"1092 558 LINE",
"678 558 LINE",
"678 982 LINE",
"522 982 LINE"
);
}
);
width = 1200;
}
);
},
{
glyphname = minus.tf;
lastChange = "2019-05-13 18:40:05 +0000";
layers = (
{
layerId = "B502AB2C-259B-4691-A7E9-F302DF43C341";
paths = (
{
closed = 1;
nodes = (
"86 386 LINE",
"1114 386 LINE",
"1114 592 LINE",
"86 592 LINE"
);
}
);
width = 1200;
},
{
layerId = "1A474BE3-B501-44F4-8DAE-2FAB2708ADF8";
paths = (
{
closed = 1;
nodes = (
"106 424 LINE",
"1094 424 LINE",
"1094 558 LINE",
"106 558 LINE"
);
}
);
width = 1200;
}
);
},
{
glyphname = equal.tf;
lastChange = "2019-05-13 18:40:05 +0000";
layers = (
{
layerId = "B502AB2C-259B-4691-A7E9-F302DF43C341";
paths = (
{
closed = 1;
nodes = (
"252 192 LINE",
"948 192 LINE",
"948 396 LINE",
"252 396 LINE"
);
},
{
closed = 1;
nodes = (
"252 612 LINE",
"948 612 LINE",
"948 816 LINE",
"252 816 LINE"
);
}
);
width = 1200;
},
{
layerId = "1A474BE3-B501-44F4-8DAE-2FAB2708ADF8";
paths = (
{
closed = 1;
nodes = (
"270 234 LINE",
"930 234 LINE",
"930 368 LINE",
"270 368 LINE"
);
},
{
closed = 1;
nodes = (
"270 616 LINE",
"930 616 LINE",
"930 752 LINE",
"270 752 LINE"
);
}
);
width = 1200;
}
);
},
{
glyphname = greater.tf;
lastChange = "2019-05-13 18:40:05 +0000";
layers = (
{
layerId = "B502AB2C-259B-4691-A7E9-F302DF43C341";
paths = (
{
closed = 1;
nodes = (
"1012 538 LINE",
"1012 750 LINE",
"344 1234 LINE",
"188 1054 LINE",
"840 594 LINE",
"840 694 LINE",
"188 236 LINE",
"344 56 LINE"
);
}
);
width = 1200;
},
{
layerId = "1A474BE3-B501-44F4-8DAE-2FAB2708ADF8";
paths = (
{
closed = 1;
nodes = (
"966 542 LINE",
"966 678 LINE",
"336 1142 LINE",
"234 1022 LINE",
"852 578 LINE",
"852 642 LINE",
"234 202 LINE",
"336 80 LINE"
);
}
);
width = 1200;
}
);
},
{
glyphname = less.tf;
lastChange = "2019-05-13 18:40:05 +0000";
layers = (
{
layerId = "B502AB2C-259B-4691-A7E9-F302DF43C341";
paths = (
{
closed = 1;
nodes = (
"186 750 LINE",
"186 538 LINE",
"854 56 LINE",
"1012 236 LINE",
"358 694 LINE",
"358 594 LINE",
"1012 1054 LINE",
"854 1234 LINE"
);
}
);
width = 1200;
},
{
layerId = "1A474BE3-B501-44F4-8DAE-2FAB2708ADF8";
paths = (
{
closed = 1;
nodes = (
"232 678 LINE",
"232 542 LINE",
"862 80 LINE",
"966 202 LINE",
"346 642 LINE",
"346 578 LINE",
"966 1022 LINE",
"862 1142 LINE"
);
}
);
width = 1200;
}
);
},
{
glyphname = asciitilde.tf;
lastChange = "2019-05-13 18:40:05 +0000";
layers = (
{
layerId = "B502AB2C-259B-4691-A7E9-F302DF43C341";
paths = (
{
closed = 1;
nodes = (
"304 496 OFFCURVE",
"346 530 OFFCURVE",
"396 530 CURVE SMOOTH",
"436 530 OFFCURVE",
"478 518 OFFCURVE",
"574 480 CURVE SMOOTH",
"672 440 OFFCURVE",
"734 424 OFFCURVE",
"778 424 CURVE SMOOTH",
"904 424 OFFCURVE",
"1000 508 OFFCURVE",
"1054 678 CURVE",
"926 758 LINE",
"894 686 OFFCURVE",
"848 648 OFFCURVE",
"798 648 CURVE SMOOTH",
"758 648 OFFCURVE",
"710 662 OFFCURVE",
"614 700 CURVE SMOOTH",
"516 738 OFFCURVE",
"456 756 OFFCURVE",
"398 756 CURVE SMOOTH",
"266 756 OFFCURVE",
"188 648 OFFCURVE",
"142 476 CURVE",
"268 408 LINE"
);
}
);
width = 1200;
},
{
layerId = "1A474BE3-B501-44F4-8DAE-2FAB2708ADF8";
paths = (
{
closed = 1;
nodes = (
"312 534 OFFCURVE",
"354 564 OFFCURVE",
"400 564 CURVE SMOOTH",
"438 564 OFFCURVE",
"476 552 OFFCURVE",
"582 510 CURVE SMOOTH",
"682 470 OFFCURVE",
"740 454 OFFCURVE",
"780 454 CURVE SMOOTH",
"880 454 OFFCURVE",
"960 518 OFFCURVE",
"1008 664 CURVE",
"922 718 LINE",
"890 642 OFFCURVE",
"842 604 OFFCURVE",
"792 604 CURVE SMOOTH",
"754 604 OFFCURVE",
"714 614 OFFCURVE",
"606 658 CURVE SMOOTH",
"502 698 OFFCURVE",
"452 714 OFFCURVE",
"404 714 CURVE SMOOTH",
"306 714 OFFCURVE",
"234 636 OFFCURVE",
"190 492 CURVE",
"276 446 LINE"
);
}
);
width = 1200;
}
);
},
{
glyphname = asciicircum.tf;
lastChange = "2019-05-13 18:40:05 +0000";
layers = (
{
layerId = "B502AB2C-259B-4691-A7E9-F302DF43C341";
paths = (
{
closed = 1;
nodes = (
"370 436 LINE",
"646 1026 LINE",
"556 1026 LINE",
"830 436 LINE",
"1092 436 LINE",
"696 1206 LINE",
"506 1206 LINE",
"108 436 LINE"
);
}
);
width = 1200;
},
{
layerId = "1A474BE3-B501-44F4-8DAE-2FAB2708ADF8";
paths = (
{
closed = 1;
nodes = (
"364 490 LINE",
"630 1046 LINE",
"572 1046 LINE",
"836 490 LINE",
"1012 490 LINE",
"662 1172 LINE",
"540 1172 LINE",
"188 490 LINE"
);
}
);
width = 1200;
}
);
},
{
glyphname = percent.tf;
lastChange = "2019-05-13 18:40:05 +0000";
layers = (
{
layerId = "B502AB2C-259B-4691-A7E9-F302DF43C341";
paths = (
{
closed = 1;
nodes = (
"288 0 LINE",
"1138 1298 LINE",
"914 1298 LINE",
"62 0 LINE"
);
},
{
closed = 1;
nodes = (
"1052 -28 OFFCURVE",
"1180 50 OFFCURVE",
"1180 276 CURVE SMOOTH",
"1180 502 OFFCURVE",
"1052 578 OFFCURVE",
"922 578 CURVE SMOOTH",
"794 578 OFFCURVE",
"666 502 OFFCURVE",
"666 276 CURVE SMOOTH",
"666 50 OFFCURVE",
"794 -28 OFFCURVE",
"922 -28 CURVE SMOOTH"
);
},
{
closed = 1;
nodes = (
"866 124 OFFCURVE",
"824 160 OFFCURVE",
"824 276 CURVE SMOOTH",
"824 390 OFFCURVE",
"866 430 OFFCURVE",
"922 430 CURVE SMOOTH",
"974 430 OFFCURVE",
"1018 390 OFFCURVE",
"1018 276 CURVE SMOOTH",
"1018 160 OFFCURVE",
"974 124 OFFCURVE",
"922 124 CURVE SMOOTH"
);
},
{
closed = 1;
nodes = (
"406 718 OFFCURVE",
"534 796 OFFCURVE",
"534 1022 CURVE SMOOTH",
"534 1246 OFFCURVE",
"406 1324 OFFCURVE",
"276 1324 CURVE SMOOTH",
"148 1324 OFFCURVE",
"20 1246 OFFCURVE",
"20 1022 CURVE SMOOTH",
"20 796 OFFCURVE",
"148 718 OFFCURVE",
"276 718 CURVE SMOOTH"
);
},
{
closed = 1;
nodes = (
"222 868 OFFCURVE",
"180 906 OFFCURVE",
"180 1022 CURVE SMOOTH",
"180 1136 OFFCURVE",
"222 1174 OFFCURVE",
"276 1174 CURVE SMOOTH",
"330 1174 OFFCURVE",
"374 1136 OFFCURVE",
"374 1022 CURVE SMOOTH",
"374 906 OFFCURVE",
"330 868 OFFCURVE",
"276 868 CURVE SMOOTH"
);
}
